{
.appVersion = "3080";
customParameters = (
{
name = localizedDesigner;
value = "French;Ange Degheest & Luna Delabre & Camille Depalle";
},
{
name = license;
value = "SIL OFL";
},
{
name = licenseURL;
value = "https://scripts.sil.org/cms/scripts/page.php?item_id=OFL_web";
},
{
name = vendorID;
value = VTF;
}
);
date = "2020-06-17 14:36:55 +0000";
familyName = Louise;
featurePrefixes = (
{
automatic = 1;
code = "languagesystem DFLT dflt;\012\012languagesystem latn dflt;\012";
name = Languagesystems;
}
);
features = (
{
automatic = 1;
code = "feature sups;\012feature frac;\012feature ordn;\012";
name = aalt;
},
{
automatic = 1;
code = "lookup ccmp_latn_1 {\012	sub fi by f i;\012	sub fl by f l;\012} ccmp_latn_1;\012\012script latn;\012lookup ccmp_latn_1;\012";
name = ccmp;
},
{
automatic = 1;
code = "sub one by onesuperior;\012sub two by twosuperior;\012sub three by threesuperior;\012";
name = sups;
},
{
automatic = 1;
code = "sub one slash four by onequarter;\012sub one slash two by onehalf;\012sub three slash four by threequarters;\012";
name = frac;
},
{
automatic = 1;
code = "sub [zero one two three four five six seven eight nine] [A a]' by ordfeminine;\012sub [zero one two three four five six seven eight nine] [O o]' by ordmasculine;\012";
name = ordn;
},
{
automatic = 1;
code = "lookupflag IgnoreMarks;\012sub t t by t_t;\012";
name = dlig;
},
{
automatic = 1;
code = "lookupflag IgnoreMarks;\012sub f f by f_f;\012sub f i by fi;\012sub f l by fl;\012";
name = liga;
}
);
fontMaster = (
{
ascender = 1200;
capHeight = 700;
descender = -500;
guideLines = (
{
angle = 48.0829;
position = "{503, 664}";
},
{
position = "{583, 187}";
},
{
position = "{294, 306}";
},
{
position = "{256, 581}";
}
);
id = "B59D2992-18BA-4B4D-949D-9ECAC08614C3";
xHeight = 500;
}
);
glyphs = (
{
glyphname = A;
lastChange = "2021-05-01 11:01:59 +0000";
layers = (
{
guideLines = (
{
position = "{658, 1019}";
},
{
angle = 60;
position = "{959, -15}";
},
{
angle = 60;
position = "{923, -15}";
}
);
layerId = "B59D2992-18BA-4B4D-949D-9ECAC08614C3";
paths = (
{
closed = 1;
nodes = (
"571 -15 OFFCURVE",
"728 165 OFFCURVE",
"930 436 CURVE SMOOTH",
"1209 811 OFFCURVE",
"1363 994 OFFCURVE",
"1463 994 CURVE SMOOTH",
"1487 994 OFFCURVE",
"1497 979 OFFCURVE",
"1477 945 CURVE SMOOTH",
"941 16 LINE",
"968 0 LINE",
"1510 939 LINE SMOOTH",
"1538 988 OFFCURVE",
"1514 1022 OFFCURVE",
"1467 1022 CURVE SMOOTH",
"1336 1022 OFFCURVE",
"1187 823 OFFCURVE",
"905 447 CURVE SMOOTH",
"706 181 OFFCURVE",
"559 19 OFFCURVE",
"341 19 CURVE SMOOTH",
"220 19 OFFCURVE",
"141 115 OFFCURVE",
"141 205 CURVE SMOOTH",
"141 309 OFFCURVE",
"201 344 OFFCURVE",
"254 345 CURVE SMOOTH",
"305 346 OFFCURVE",
"317 321 OFFCURVE",
"360 321 CURVE SMOOTH",
"399 321 OFFCURVE",
"435 347 OFFCURVE",
"435 385 CURVE SMOOTH",
"435 436 OFFCURVE",
"389 464 OFFCURVE",
"333 464 CURVE SMOOTH",
"229 464 OFFCURVE",
"110 380 OFFCURVE",
"110 206 CURVE SMOOTH",
"110 96 OFFCURVE",
"208 -7 OFFCURVE",
"341 -10 CURVE SMOOTH"
);
},
{
closed = 1;
nodes = (
"991 79 LINE",
"1040 349 OFFCURVE",
"895 558 OFFCURVE",
"761 558 CURVE SMOOTH",
"674 558 OFFCURVE",
"635 501 OFFCURVE",
"635 435 CURVE SMOOTH",
"635 281 OFFCURVE",
"869 150 OFFCURVE",
"1046 150 CURVE SMOOTH",
"1139 150 OFFCURVE",
"1236 198 OFFCURVE",
"1309 270 CURVE",
"1289 290 LINE",
"1202 209 OFFCURVE",
"1125 180 OFFCURVE",
"1045 180 CURVE SMOOTH",
"913 180 OFFCURVE",
"668 284 OFFCURVE",
"668 435 CURVE SMOOTH",
"668 495 OFFCURVE",
"704 525 OFFCURVE",
"761 525 CURVE SMOOTH",
"893 525 OFFCURVE",
"1033 280 OFFCURVE",
"941 16 CURVE",
"968 0 LINE"
);
}
);
width = 1186;
},
{
associatedMasterId = "B59D2992-18BA-4B4D-949D-9ECAC08614C3";
guideLines = (
{
angle = 60;
position = "{115, 0}";
},
{
angle = 60;
position = "{79, 0}";
},
{
position = "{358, 1019}";
}
);
layerId = "133806BF-C9C5-41B3-8C7E-1787CB1FDBEA";
name = "May 5 20, 18:09";
paths = (
{
closed = 1;
nodes = (
"-78 466 OFFCURVE",
"-200 370 OFFCURVE",
"-200 196 CURVE SMOOTH",
"-200 86 OFFCURVE",
"-90 -7 OFFCURVE",
"41 -10 CURVE SMOOTH",
"271 -15 OFFCURVE",
"513 108 OFFCURVE",
"670 406 CURVE SMOOTH",
"810 672 OFFCURVE",
"838 749 OFFCURVE",
"916 834 CURVE SMOOTH",
"1003 928 OFFCURVE",
"1066 931 OFFCURVE",
"1105 929 CURVE SMOOTH",
"1137 927 OFFCURVE",
"1157 929 OFFCURVE",
"1168 933 CURVE",
"896 458 LINE",
"854 384 LINE",
"736 166 OFFCURVE",
"738 0 OFFCURVE",
"871 0 CURVE SMOOTH",
"965 0 OFFCURVE",
"1060 117 OFFCURVE",
"1167 225 CURVE",
"1208 270 LINE",
"1188 290 LINE",
"1146 243 LINE",
"1024 107 OFFCURVE",
"935 27 OFFCURVE",
"871 27 CURVE SMOOTH",
"754 27 OFFCURVE",
"789 212 OFFCURVE",
"884 384 CURVE",
"1201 941 LINE",
"1201 941 OFFCURVE",
"1226 960 OFFCURVE",
"1226 981 CURVE SMOOTH",
"1226 1010 OFFCURVE",
"1199 1023 OFFCURVE",
"1167 1022 CURVE SMOOTH",
"1012 1019 OFFCURVE",
"866 846 OFFCURVE",
"755 620 CURVE SMOOTH",
"698 505 OFFCURVE",
"655 409 OFFCURVE",
"580 307 CURVE SMOOTH",
"390 47 OFFCURVE",
"154 15 OFFCURVE",
"41 18 CURVE SMOOTH",
"-78 21 OFFCURVE",
"-170 105 OFFCURVE",
"-170 195 CURVE SMOOTH",
"-170 340 OFFCURVE",
"-50 355 OFFCURVE",
"-1 322 CURVE SMOOTH",
"43 293 OFFCURVE",
"118 307 OFFCURVE",
"128 361 CURVE SMOOTH",
"140 425 OFFCURVE",
"76 442 OFFCURVE",
"37 448 CURVE SMOOTH"
);
},
{
closed = 1;
nodes = (
"511 543 LINE",
"515 547 OFFCURVE",
"520 551 OFFCURVE",
"526 555 CURVE SMOOTH",
"562 579 OFFCURVE",
"623 554 OFFCURVE",
"666 526 CURVE SMOOTH",
"812 431 OFFCURVE",
"927 446 OFFCURVE",
"962 450 CURVE SMOOTH",
"1073 463 OFFCURVE",
"1141 505 OFFCURVE",
"1168 557 CURVE SMOOTH",
"1185 590 OFFCURVE",
"1183 610 OFFCURVE",
"1164 623 CURVE SMOOTH",
"1144 637 OFFCURVE",
"1124 620 OFFCURVE",
"1112 603 CURVE SMOOTH",
"1095 579 OFFCURVE",
"1058 488 OFFCURVE",
"961 478 CURVE SMOOTH",
"951 477 OFFCURVE",
"834 448 OFFCURVE",
"661 557 CURVE SMOOTH",
"585 605 OFFCURVE",
"544 591 OFFCURVE",
"520 579 CURVE SMOOTH",
"509 573 OFFCURVE",
"500 566 OFFCURVE",
"494 558 CURVE"
);
}
);
width = 1085;
},
{
associatedMasterId = "B59D2992-18BA-4B4D-949D-9ECAC08614C3";
guideLines = (
{
angle = 60;
position = "{959, -54}";
},
{
angle = 60;
position = "{923, -54}";
},
{
position = "{658, 1019}";
}
);
layerId = "2CD63180-0CC9-46A5-B035-57604EA445F0";
name = "Aug 25 20, 11:07";
paths = (
{
closed = 1;
nodes = (
"1504 939 LINE SMOOTH",
"1531 988 OFFCURVE",
"1514 1022 OFFCURVE",
"1467 1022 CURVE SMOOTH",
"1336 1022 OFFCURVE",
"1187 823 OFFCURVE",
"905 447 CURVE SMOOTH",
"706 181 OFFCURVE",
"559 19 OFFCURVE",
"341 19 CURVE SMOOTH",
"220 19 OFFCURVE",
"141 115 OFFCURVE",
"141 205 CURVE SMOOTH",
"141 309 OFFCURVE",
"201 344 OFFCURVE",
"254 345 CURVE SMOOTH",
"305 345 OFFCURVE",
"317 321 OFFCURVE",
"360 321 CURVE SMOOTH",
"399 321 OFFCURVE",
"435 347 OFFCURVE",
"435 385 CURVE SMOOTH",
"435 436 OFFCURVE",
"389 464 OFFCURVE",
"333 464 CURVE SMOOTH",
"229 464 OFFCURVE",
"110 380 OFFCURVE",
"110 206 CURVE SMOOTH",
"110 96 OFFCURVE",
"208 -7 OFFCURVE",
"341 -10 CURVE SMOOTH",
"571 -15 OFFCURVE",
"728 165 OFFCURVE",
"930 436 CURVE SMOOTH",
"1209 811 OFFCURVE",
"1363 996 OFFCURVE",
"1463 996 CURVE SMOOTH",
"1491 996 OFFCURVE",
"1494 975 OFFCURVE",
"1477 945 CURVE SMOOTH",
"986 66 LINE",
"961 8 LINE",
"984 -1 LINE"
);
},
{
closed = 1;
nodes = (
"1102 286 OFFCURVE",
"929 556 OFFCURVE",
"761 556 CURVE SMOOTH",
"674 556 OFFCURVE",
"638 501 OFFCURVE",
"638 435 CURVE SMOOTH",
"638 285 OFFCURVE",
"848 150 OFFCURVE",
"1033 150 CURVE SMOOTH",
"1138 150 OFFCURVE",
"1216 170 OFFCURVE",
"1309 270 CURVE",
"1289 290 LINE",
"1203 199 OFFCURVE",
"1125 181 OFFCURVE",
"1034 181 CURVE SMOOTH",
"903 181 OFFCURVE",
"668 278 OFFCURVE",
"668 435 CURVE SMOOTH",
"668 501 OFFCURVE",
"704 525 OFFCURVE",
"761 525 CURVE SMOOTH",
"904 525 OFFCURVE",
"1075 290 OFFCURVE",
"961 8 CURVE",
"986 3 LINE"
);
}
);
width = 1186;
}
);
unicode = 0041;
},
{
glyphname = Aacute;
lastChange = "2021-05-01 11:01:59 +0000";
layers = (
{
layerId = "B59D2992-18BA-4B4D-949D-9ECAC08614C3";
paths = (
{
closed = 1;
nodes = (
"571 -15 OFFCURVE",
"728 165 OFFCURVE",
"930 436 CURVE SMOOTH",
"1209 811 OFFCURVE",
"1363 994 OFFCURVE",
"1463 994 CURVE SMOOTH",
"1487 994 OFFCURVE",
"1497 979 OFFCURVE",
"1477 945 CURVE SMOOTH",
"941 16 LINE",
"968 0 LINE",
"1510 939 LINE SMOOTH",
"1538 988 OFFCURVE",
"1514 1022 OFFCURVE",
"1467 1022 CURVE SMOOTH",
"1336 1022 OFFCURVE",
"1187 823 OFFCURVE",
"905 447 CURVE SMOOTH",
"706 181 OFFCURVE",
"559 19 OFFCURVE",
"341 19 CURVE SMOOTH",
"220 19 OFFCURVE",
"141 115 OFFCURVE",
"141 205 CURVE SMOOTH",
"141 309 OFFCURVE",
"201 344 OFFCURVE",
"254 345 CURVE SMOOTH",
"305 346 OFFCURVE",
"317 321 OFFCURVE",
"360 321 CURVE SMOOTH",
"399 321 OFFCURVE",
"435 347 OFFCURVE",
"435 385 CURVE SMOOTH",
"435 436 OFFCURVE",
"389 464 OFFCURVE",
"333 464 CURVE SMOOTH",
"229 464 OFFCURVE",
"110 380 OFFCURVE",
"110 206 CURVE SMOOTH",
"110 96 OFFCURVE",
"208 -7 OFFCURVE",
"341 -10 CURVE SMOOTH"
);
},
{
closed = 1;
nodes = (
"991 79 LINE",
"1040 349 OFFCURVE",
"895 558 OFFCURVE",
"761 558 CURVE SMOOTH",
"674 558 OFFCURVE",
"635 501 OFFCURVE",
"635 435 CURVE SMOOTH",
"635 281 OFFCURVE",
"869 150 OFFCURVE",
"1046 150 CURVE SMOOTH",
"1139 150 OFFCURVE",
"1236 198 OFFCURVE",
"1309 270 CURVE",
"1289 290 LINE",
"1202 209 OFFCURVE",
"1125 180 OFFCURVE",
"1045 180 CURVE SMOOTH",
"913 180 OFFCURVE",
"668 284 OFFCURVE",
"668 435 CURVE SMOOTH",
"668 495 OFFCURVE",
"704 525 OFFCURVE",
"761 525 CURVE SMOOTH",
"893 525 OFFCURVE",
"1033 280 OFFCURVE",
"941 16 CURVE",
"968 0 LINE"
);
},
{
closed = 1;
nodes = (
"1654 1232 LINE SMOOTH",
"1687 1252 OFFCURVE",
"1696 1282 OFFCURVE",
"1676 1306 CURVE SMOOTH",
"1657 1329 OFFCURVE",
"1633 1327 OFFCURVE",
"1600 1293 CURVE SMOOTH",
"1423 1108 LINE",
"1435 1095 LINE"
);
}
);
width = 1185;
}
);
unicode = 00C1;
},
{
glyphname = Acircumflex;
lastChange = "2021-05-01 11:01:59 +0000";
layers = (
{
layerId = "B59D2992-18BA-4B4D-949D-9ECAC08614C3";
paths = (
{
closed = 1;
nodes = (
"571 -15 OFFCURVE",
"728 165 OFFCURVE",
"930 436 CURVE SMOOTH",
"1209 811 OFFCURVE",
"1363 994 OFFCURVE",
"1463 994 CURVE SMOOTH",
"1487 994 OFFCURVE",
"1497 979 OFFCURVE",
"1477 945 CURVE SMOOTH",
"941 16 LINE",
"968 0 LINE",
"1510 939 LINE SMOOTH",
"1538 988 OFFCURVE",
"1514 1022 OFFCURVE",
"1467 1022 CURVE SMOOTH",
"1336 1022 OFFCURVE",
"1187 823 OFFCURVE",
"905 447 CURVE SMOOTH",
"706 181 OFFCURVE",
"559 19 OFFCURVE",
"341 19 CURVE SMOOTH",
"220 19 OFFCURVE",
"141 115 OFFCURVE",
"141 205 CURVE SMOOTH",
"141 309 OFFCURVE",
"201 344 OFFCURVE",
"254 345 CURVE SMOOTH",
"305 346 OFFCURVE",
"317 321 OFFCURVE",
"360 321 CURVE SMOOTH",
"399 321 OFFCURVE",
"435 347 OFFCURVE",
"435 385 CURVE SMOOTH",
"435 436 OFFCURVE",
"389 464 OFFCURVE",
"333 464 CURVE SMOOTH",
"229 464 OFFCURVE",
"110 380 OFFCURVE",
"110 206 CURVE SMOOTH",
"110 96 OFFCURVE",
"208 -7 OFFCURVE",
"341 -10 CURVE SMOOTH"
);
},
{
closed = 1;
nodes = (
"991 79 LINE",
"1040 349 OFFCURVE",
"895 558 OFFCURVE",
"761 558 CURVE SMOOTH",
"674 558 OFFCURVE",
"635 501 OFFCURVE",
"635 435 CURVE SMOOTH",
"635 281 OFFCURVE",
"869 150 OFFCURVE",
"1046 150 CURVE SMOOTH",
"1139 150 OFFCURVE",
"1236 198 OFFCURVE",
"1309 270 CURVE",
"1289 290 LINE",
"1202 209 OFFCURVE",
"1125 180 OFFCURVE",
"1045 180 CURVE SMOOTH",
"913 180 OFFCURVE",
"668 284 OFFCURVE",
"668 435 CURVE SMOOTH",
"668 495 OFFCURVE",
"704 525 OFFCURVE",
"761 525 CURVE SMOOTH",
"893 525 OFFCURVE",
"1033 280 OFFCURVE",
"941 16 CURVE",
"968 0 LINE"
);
},
{
closed = 1;
nodes = (
"1448 1119 OFFCURVE",
"1477 1124 OFFCURVE",
"1494 1146 CURVE SMOOTH",
"1511 1167 OFFCURVE",
"1507 1196 OFFCURVE",
"1487 1211 CURVE SMOOTH",
"1466 1226 OFFCURVE",
"1437 1222 OFFCURVE",
"1420 1200 CURVE SMOOTH",
"1404 1179 OFFCURVE",
"1406 1149 OFFCURVE",
"1428 1133 CURVE SMOOTH"
);
},
{
closed = 1;
nodes = (
"1623 1119 OFFCURVE",
"1652 1124 OFFCURVE",
"1669 1146 CURVE SMOOTH",
"1686 1167 OFFCURVE",
"1682 1196 OFFCURVE",
"1662 1211 CURVE SMOOTH",
"1641 1226 OFFCURVE",
"1612 1222 OFFCURVE",
"1595 1200 CURVE SMOOTH",
"1579 1179 OFFCURVE",
"1581 1149 OFFCURVE",
"1603 1133 CURVE SMOOTH"
);
}
);
width = 1186;
}
);
unicode = 00C2;
},
{
glyphname = Adieresis;
lastChange = "2021-05-01 11:01:59 +0000";
layers = (
{
layerId = "B59D2992-18BA-4B4D-949D-9ECAC08614C3";
paths = (
{
closed = 1;
nodes = (
"571 -15 OFFCURVE",
"728 165 OFFCURVE",
"930 436 CURVE SMOOTH",
"1209 811 OFFCURVE",
"1363 994 OFFCURVE",
"1463 994 CURVE SMOOTH",
"1487 994 OFFCURVE",
"1497 979 OFFCURVE",
"1477 945 CURVE SMOOTH",
"941 16 LINE",
"968 0 LINE",
"1510 939 LINE SMOOTH",
"1538 988 OFFCURVE",
"1514 1022 OFFCURVE",
"1467 1022 CURVE SMOOTH",
"1336 1022 OFFCURVE",
"1187 823 OFFCURVE",
"905 447 CURVE SMOOTH",
"706 181 OFFCURVE",
"559 19 OFFCURVE",
"341 19 CURVE SMOOTH",
"220 19 OFFCURVE",
"141 115 OFFCURVE",
"141 205 CURVE SMOOTH",
"141 309 OFFCURVE",
"201 344 OFFCURVE",
"254 345 CURVE SMOOTH",
"305 346 OFFCURVE",
"317 321 OFFCURVE",
"360 321 CURVE SMOOTH",
"399 321 OFFCURVE",
"435 347 OFFCURVE",
"435 385 CURVE SMOOTH",
"435 436 OFFCURVE",
"389 464 OFFCURVE",
"333 464 CURVE SMOOTH",
"229 464 OFFCURVE",
"110 380 OFFCURVE",
"110 206 CURVE SMOOTH",
"110 96 OFFCURVE",
"208 -7 OFFCURVE",
"341 -10 CURVE SMOOTH"
);
},
{
closed = 1;
nodes = (
"991 79 LINE",
"1040 349 OFFCURVE",
"895 558 OFFCURVE",
"761 558 CURVE SMOOTH",
"674 558 OFFCURVE",
"635 501 OFFCURVE",
"635 435 CURVE SMOOTH",
"635 281 OFFCURVE",
"869 150 OFFCURVE",
"1046 150 CURVE SMOOTH",
"1139 150 OFFCURVE",
"1236 198 OFFCURVE",
"1309 270 CURVE",
"1289 290 LINE",
"1202 209 OFFCURVE",
"1125 180 OFFCURVE",
"1045 180 CURVE SMOOTH",
"913 180 OFFCURVE",
"668 284 OFFCURVE",
"668 435 CURVE SMOOTH",
"668 495 OFFCURVE",
"704 525 OFFCURVE",
"761 525 CURVE SMOOTH",
"893 525 OFFCURVE",
"1033 280 OFFCURVE",
"941 16 CURVE",
"968 0 LINE"
);
},
{
closed = 1;
nodes = (
"1648 973 LINE",
"1611 1197 LINE SMOOTH",
"1607 1221 OFFCURVE",
"1595 1238 OFFCURVE",
"1581 1242 CURVE SMOOTH",
"1568 1246 OFFCURVE",
"1550 1251 OFFCURVE",
"1528 1235 CURVE SMOOTH",
"1322 1082 LINE",
"1327 1066 LINE",
"1542 1156 LINE",
"1631 966 LINE"
);
}
);
width = 1186;
}
);
unicode = 00C4;
},
{
glyphname = Agrave;
lastChange = "2021-05-01 11:01:59 +0000";
layers = (
{
layerId = "B59D2992-18BA-4B4D-949D-9ECAC08614C3";
paths = (
{
closed = 1;
nodes = (
"571 -15 OFFCURVE",
"728 165 OFFCURVE",
"930 436 CURVE SMOOTH",
"1209 811 OFFCURVE",
"1363 994 OFFCURVE",
"1463 994 CURVE SMOOTH",
"1487 994 OFFCURVE",
"1497 979 OFFCURVE",
"1477 945 CURVE SMOOTH",
"941 16 LINE",
"968 0 LINE",
"1510 939 LINE SMOOTH",
"1538 988 OFFCURVE",
"1514 1022 OFFCURVE",
"1467 1022 CURVE SMOOTH",
"1336 1022 OFFCURVE",
"1187 823 OFFCURVE",
"905 447 CURVE SMOOTH",
"706 181 OFFCURVE",
"559 19 OFFCURVE",
"341 19 CURVE SMOOTH",
"220 19 OFFCURVE",
"141 115 OFFCURVE",
"141 205 CURVE SMOOTH",
"141 309 OFFCURVE",
"201 344 OFFCURVE",
"254 345 CURVE SMOOTH",
"305 346 OFFCURVE",
"317 321 OFFCURVE",
"360 321 CURVE SMOOTH",
"399 321 OFFCURVE",
"435 347 OFFCURVE",
"435 385 CURVE SMOOTH",
"435 436 OFFCURVE",
"389 464 OFFCURVE",
"333 464 CURVE SMOOTH",
"229 464 OFFCURVE",
"110 380 OFFCURVE",
"110 206 CURVE SMOOTH",
"110 96 OFFCURVE",
"208 -7 OFFCURVE",
"341 -10 CURVE SMOOTH"
);
},
{
closed = 1;
nodes = (
"991 79 LINE",
"1040 349 OFFCURVE",
"895 558 OFFCURVE",
"761 558 CURVE SMOOTH",
"674 558 OFFCURVE",
"635 501 OFFCURVE",
"635 435 CURVE SMOOTH",
"635 281 OFFCURVE",
"869 150 OFFCURVE",
"1046 150 CURVE SMOOTH",
"1139 150 OFFCURVE",
"1236 198 OFFCURVE",
"1309 270 CURVE",
"1289 290 LINE",
"1202 209 OFFCURVE",
"1125 180 OFFCURVE",
"1045 180 CURVE SMOOTH",
"913 180 OFFCURVE",
"668 284 OFFCURVE",
"668 435 CURVE SMOOTH",
"668 495 OFFCURVE",
"704 525 OFFCURVE",
"761 525 CURVE SMOOTH",
"893 525 OFFCURVE",
"1033 280 OFFCURVE",
"941 16 CURVE",
"968 0 LINE"
);
},
{
closed = 1;
nodes = (
"1652 1031 LINE",
"1537 1260 LINE SMOOTH",
"1518 1298 OFFCURVE",
"1489 1307 OFFCURVE",
"1469 1294 CURVE SMOOTH",
"1442 1277 OFFCURVE",
"1445 1243 OFFCURVE",
"1468 1217 CURVE SMOOTH",
"1637 1022 LINE"
);
}
);
width = 1186;
}
);
unicode = 00C0;
},
{
glyphname = Aring;
lastChange = "2021-05-01 11:01:59 +0000";
layers = (
{
layerId = "B59D2992-18BA-4B4D-949D-9ECAC08614C3";
paths = (
{
closed = 1;
nodes = (
"571 -15 OFFCURVE",
"728 165 OFFCURVE",
"930 436 CURVE SMOOTH",
"1209 811 OFFCURVE",
"1363 994 OFFCURVE",
"1463 994 CURVE SMOOTH",
"1487 994 OFFCURVE",
"1497 979 OFFCURVE",
"1477 945 CURVE SMOOTH",
"941 16 LINE",
"968 0 LINE",
"1510 939 LINE SMOOTH",
"1538 988 OFFCURVE",
"1514 1022 OFFCURVE",
"1467 1022 CURVE SMOOTH",
"1336 1022 OFFCURVE",
"1187 823 OFFCURVE",
"905 447 CURVE SMOOTH",
"706 181 OFFCURVE",
"559 19 OFFCURVE",
"341 19 CURVE SMOOTH",
"220 19 OFFCURVE",
"141 115 OFFCURVE",
"141 205 CURVE SMOOTH",
"141 309 OFFCURVE",
"201 344 OFFCURVE",
"254 345 CURVE SMOOTH",
"305 346 OFFCURVE",
"317 321 OFFCURVE",
"360 321 CURVE SMOOTH",
"399 321 OFFCURVE",
"435 347 OFFCURVE",
"435 385 CURVE SMOOTH",
"435 436 OFFCURVE",
"389 464 OFFCURVE",
"333 464 CURVE SMOOTH",
"229 464 OFFCURVE",
"110 380 OFFCURVE",
"110 206 CURVE SMOOTH",
"110 96 OFFCURVE",
"208 -7 OFFCURVE",
"341 -10 CURVE SMOOTH"
);
},
{
closed = 1;
nodes = (
"991 79 LINE",
"1040 349 OFFCURVE",
"895 558 OFFCURVE",
"761 558 CURVE SMOOTH",
"674 558 OFFCURVE",
"635 501 OFFCURVE",
"635 435 CURVE SMOOTH",
"635 281 OFFCURVE",
"869 150 OFFCURVE",
"1046 150 CURVE SMOOTH",
"1139 150 OFFCURVE",
"1236 198 OFFCURVE",
"1309 270 CURVE",
"1289 290 LINE",
"1202 209 OFFCURVE",
"1125 180 OFFCURVE",
"1045 180 CURVE SMOOTH",
"913 180 OFFCURVE",
"668 284 OFFCURVE",
"668 435 CURVE SMOOTH",
"668 495 OFFCURVE",
"704 525 OFFCURVE",
"761 525 CURVE SMOOTH",
"893 525 OFFCURVE",
"1033 280 OFFCURVE",
"941 16 CURVE",
"968 0 LINE"
);
},
{
closed = 1;
nodes = (
"1606 1079 OFFCURVE",
"1638 1111 OFFCURVE",
"1638 1152 CURVE SMOOTH",
"1638 1192 OFFCURVE",
"1606 1225 OFFCURVE",
"1567 1225 CURVE SMOOTH",
"1526 1225 OFFCURVE",
"1494 1192 OFFCURVE",
"1494 1152 CURVE SMOOTH",
"1494 1111 OFFCURVE",
"1526 1079 OFFCURVE",
"1567 1079 CURVE SMOOTH"
);
},
{
closed = 1;
nodes = (
"1545 1111 OFFCURVE",
"1527 1129 OFFCURVE",
"1527 1150 CURVE SMOOTH",
"1527 1174 OFFCURVE",
"1545 1190 OFFCURVE",
"1569 1190 CURVE SMOOTH",
"1588 1190 OFFCURVE",
"1606 1174 OFFCURVE",
"1606 1150 CURVE SMOOTH",
"1606 1129 OFFCURVE",
"1588 1111 OFFCURVE",
"1569 1111 CURVE SMOOTH"
);
}
);
width = 1186;
}
);
unicode = 00C5;
},
{
glyphname = Atilde;
lastChange = "2021-05-01 11:01:59 +0000";
layers = (
{
layerId = "B59D2992-18BA-4B4D-949D-9ECAC08614C3";
paths = (
{
closed = 1;
nodes = (
"571 -15 OFFCURVE",
"728 165 OFFCURVE",
"930 436 CURVE SMOOTH",
"1209 811 OFFCURVE",
"1363 994 OFFCURVE",
"1463 994 CURVE SMOOTH",
"1487 994 OFFCURVE",
"1497 979 OFFCURVE",
"1477 945 CURVE SMOOTH",
"941 16 LINE",
"968 0 LINE",
"1510 939 LINE SMOOTH",
"1538 988 OFFCURVE",
"1514 1022 OFFCURVE",
"1467 1022 CURVE SMOOTH",
"1336 1022 OFFCURVE",
"1187 823 OFFCURVE",
"905 447 CURVE SMOOTH",
"706 181 OFFCURVE",
"559 19 OFFCURVE",
"341 19 CURVE SMOOTH",
"220 19 OFFCURVE",
"141 115 OFFCURVE",
"141 205 CURVE SMOOTH",
"141 309 OFFCURVE",
"201 344 OFFCURVE",
"254 345 CURVE SMOOTH",
"305 346 OFFCURVE",
"317 321 OFFCURVE",
"360 321 CURVE SMOOTH",
"399 321 OFFCURVE",
"435 347 OFFCURVE",
"435 385 CURVE SMOOTH",
"435 436 OFFCURVE",
"389 464 OFFCURVE",
"333 464 CURVE SMOOTH",
"229 464 OFFCURVE",
"110 380 OFFCURVE",
"110 206 CURVE SMOOTH",
"110 96 OFFCURVE",
"208 -7 OFFCURVE",
"341 -10 CURVE SMOOTH"
);
},
{
closed = 1;
nodes = (
"991 79 LINE",
"1040 349 OFFCURVE",
"895 558 OFFCURVE",
"761 558 CURVE SMOOTH",
"674 558 OFFCURVE",
"635 501 OFFCURVE",
"635 435 CURVE SMOOTH",
"635 281 OFFCURVE",
"869 150 OFFCURVE",
"1046 150 CURVE SMOOTH",
"1139 150 OFFCURVE",
"1236 198 OFFCURVE",
"1309 270 CURVE",
"1289 290 LINE",
"1202 209 OFFCURVE",
"1125 180 OFFCURVE",
"1045 180 CURVE SMOOTH",
"913 180 OFFCURVE",
"668 284 OFFCURVE",
"668 435 CURVE SMOOTH",
"668 495 OFFCURVE",
"704 525 OFFCURVE",
"761 525 CURVE SMOOTH",
"893 525 OFFCURVE",
"1033 280 OFFCURVE",
"941 16 CURVE",
"968 0 LINE"
);
},
{
closed = 1;
nodes = (
"1656 1077 OFFCURVE",
"1699 1133 OFFCURVE",
"1724 1162 CURVE",
"1705 1178 LINE",
"1700 1175 OFFCURVE",
"1655 1105 OFFCURVE",
"1605 1105 CURVE SMOOTH",
"1546 1105 OFFCURVE",
"1536 1186 OFFCURVE",
"1462 1186 CURVE SMOOTH",
"1410 1186 OFFCURVE",
"1361 1129 OFFCURVE",
"1347 1110 CURVE",
"1366 1092 LINE",
"1371 1095 OFFCURVE",
"1416 1158 OFFCURVE",
"1463 1158 CURVE SMOOTH",
"1523 1158 OFFCURVE",
"1530 1077 OFFCURVE",
"1604 1077 CURVE SMOOTH"
);
}
);
width = 1187;
}
);
unicode = 00C3;
},
{
glyphname = AE;
lastChange = "2021-05-01 11:01:59 +0000";
layers = (
{
layerId = "B59D2992-18BA-4B4D-949D-9ECAC08614C3";
paths = (
{
closed = 1;
nodes = (
"571 -15 OFFCURVE",
"728 165 OFFCURVE",
"930 436 CURVE SMOOTH",
"1209 811 OFFCURVE",
"1363 994 OFFCURVE",
"1463 994 CURVE SMOOTH",
"1487 994 OFFCURVE",
"1497 979 OFFCURVE",
"1477 945 CURVE SMOOTH",
"941 16 LINE",
"968 0 LINE",
"1510 939 LINE SMOOTH",
"1538 988 OFFCURVE",
"1514 1022 OFFCURVE",
"1467 1022 CURVE SMOOTH",
"1350 1022 OFFCURVE",
"1187 823 OFFCURVE",
"905 447 CURVE SMOOTH",
"706 181 OFFCURVE",
"559 19 OFFCURVE",
"341 19 CURVE SMOOTH",
"220 19 OFFCURVE",
"141 115 OFFCURVE",
"141 205 CURVE SMOOTH",
"141 309 OFFCURVE",
"201 344 OFFCURVE",
"254 345 CURVE SMOOTH",
"305 345 OFFCURVE",
"317 321 OFFCURVE",
"360 321 CURVE SMOOTH",
"399 321 OFFCURVE",
"435 347 OFFCURVE",
"435 385 CURVE SMOOTH",
"435 436 OFFCURVE",
"389 464 OFFCURVE",
"333 464 CURVE SMOOTH",
"229 464 OFFCURVE",
"110 380 OFFCURVE",
"110 206 CURVE SMOOTH",
"110 96 OFFCURVE",
"208 -7 OFFCURVE",
"341 -10 CURVE SMOOTH"
);
},
{
closed = 1;
nodes = (
"1093 283 OFFCURVE",
"939 556 OFFCURVE",
"767 556 CURVE SMOOTH",
"680 556 OFFCURVE",
"632 501 OFFCURVE",
"644 435 CURVE SMOOTH",
"671 284 OFFCURVE",
"1036 378 OFFCURVE",
"1351 560 CURVE",
"1349 592 LINE",
"1128 456 OFFCURVE",
"718 310 OFFCURVE",
"674 435 CURVE SMOOTH",
"652 498 OFFCURVE",
"710 525 OFFCURVE",
"767 525 CURVE SMOOTH",
"913 525 OFFCURVE",
"1055 298 OFFCURVE",
"941 16 CURVE",
"968 0 LINE"
);
},
{
closed = 1;
nodes = (
"1400 -21 OFFCURVE",
"1547 92 OFFCURVE",
"1708 272 CURVE",
"1688 291 LINE",
"1547 126 OFFCURVE",
"1382 7 OFFCURVE",
"1252 7 CURVE SMOOTH",
"1155 7 OFFCURVE",
"1097 60 OFFCURVE",
"1097 165 CURVE SMOOTH",
"1097 303 OFFCURVE",
"1273 494 OFFCURVE",
"1455 518 CURVE",
"1493 481 OFFCURVE",
"1513 468 OFFCURVE",
"1535 468 CURVE SMOOTH",
"1561 468 OFFCURVE",
"1587 480 OFFCURVE",
"1589 508 CURVE SMOOTH",
"1591 533 OFFCURVE",
"1574 554 OFFCURVE",
"1540 556 CURVE SMOOTH",
"1524 557 OFFCURVE",
"1502 557 OFFCURVE",
"1470 551 CURVE",
"1468 553 OFFCURVE",
"1467 555 OFFCURVE",
"1465 556 CURVE",
"1438 549 LINE",
"1439 548 OFFCURVE",
"1440 546 OFFCURVE",
"1441 545 CURVE",
"1219 488 OFFCURVE",
"1068 309 OFFCURVE",
"1068 165 CURVE SMOOTH",
"1068 60 OFFCURVE",
"1117 -21 OFFCURVE",
"1252 -21 CURVE SMOOTH"
);
},
{
closed = 1;
nodes = (
"1465 556 LINE",
"1439 588 OFFCURVE",
"1423 622 OFFCURVE",
"1415 664 CURVE SMOOTH",
"1380 847 OFFCURVE",
"1576 995 OFFCURVE",
"1716 995 CURVE SMOOTH",
"1762 995 OFFCURVE",
"1816 981 OFFCURVE",
"1811 926 CURVE SMOOTH",
"1802 817 OFFCURVE",
"1531 690 OFFCURVE",
"1349 592 CURVE",
"1351 560 LINE",
"1558 669 OFFCURVE",
"1840 798 OFFCURVE",
"1840 927 CURVE SMOOTH",
"1840 988 OFFCURVE",
"1798 1021 OFFCURVE",
"1716 1021 CURVE SMOOTH",
"1579 1021 OFFCURVE",
"1359 877 OFFCURVE",
"1389 664 CURVE SMOOTH",
"1397 607 OFFCURVE",
"1417 579 OFFCURVE",
"1438 549 CURVE"
);
}
);
width = 1584;
},
{
associatedMasterId = "B59D2992-18BA-4B4D-949D-9ECAC08614C3";
layerId = "2B610B8E-6D79-42F7-B470-F7E62745C60F";
name = "Jan 30 21, 16:32";
paths = (
{
closed = 1;
nodes = (
"1510 939 LINE SMOOTH",
"1538 988 OFFCURVE",
"1514 1022 OFFCURVE",
"1467 1022 CURVE SMOOTH",
"1350 1022 OFFCURVE",
"1187 823 OFFCURVE",
"905 447 CURVE SMOOTH",
"706 181 OFFCURVE",
"559 19 OFFCURVE",
"341 19 CURVE SMOOTH",
"220 19 OFFCURVE",
"141 115 OFFCURVE",
"141 205 CURVE SMOOTH",
"141 309 OFFCURVE",
"201 344 OFFCURVE",
"254 345 CURVE SMOOTH",
"305 345 OFFCURVE",
"317 321 OFFCURVE",
"360 321 CURVE SMOOTH",
"399 321 OFFCURVE",
"435 347 OFFCURVE",
"435 385 CURVE SMOOTH",
"435 436 OFFCURVE",
"389 464 OFFCURVE",
"333 464 CURVE SMOOTH",
"229 464 OFFCURVE",
"110 380 OFFCURVE",
"110 206 CURVE SMOOTH",
"110 96 OFFCURVE",
"208 -7 OFFCURVE",
"341 -10 CURVE SMOOTH",
"571 -15 OFFCURVE",
"728 165 OFFCURVE",
"930 436 CURVE SMOOTH",
"1209 811 OFFCURVE",
"1363 994 OFFCURVE",
"1463 994 CURVE SMOOTH",
"1487 994 OFFCURVE",
"1497 979 OFFCURVE",
"1477 945 CURVE SMOOTH",
"941 16 LINE",
"968 0 LINE"
);
},
{
closed = 1;
nodes = (
"1438 549 LINE",
"1439 548 OFFCURVE",
"1440 546 OFFCURVE",
"1441 545 CURVE",
"1219 488 OFFCURVE",
"1068 309 OFFCURVE",
"1068 165 CURVE SMOOTH",
"1068 60 OFFCURVE",
"1117 -21 OFFCURVE",
"1252 -21 CURVE SMOOTH",
"1400 -21 OFFCURVE",
"1547 92 OFFCURVE",
"1708 272 CURVE",
"1688 291 LINE",
"1547 126 OFFCURVE",
"1382 7 OFFCURVE",
"1252 7 CURVE SMOOTH",
"1155 7 OFFCURVE",
"1097 60 OFFCURVE",
"1097 165 CURVE SMOOTH",
"1097 303 OFFCURVE",
"1273 494 OFFCURVE",
"1455 518 CURVE",
"1493 481 OFFCURVE",
"1513 468 OFFCURVE",
"1535 468 CURVE SMOOTH",
"1561 468 OFFCURVE",
"1587 480 OFFCURVE",
"1589 508 CURVE SMOOTH",
"1591 533 OFFCURVE",
"1574 554 OFFCURVE",
"1540 556 CURVE SMOOTH",
"1524 557 OFFCURVE",
"1502 557 OFFCURVE",
"1470 551 CURVE",
"1468 553 OFFCURVE",
"1467 555 OFFCURVE",
"1465 556 CURVE"
);
},
{
closed = 1;
nodes = (
"1465 556 LINE",
"1439 588 OFFCURVE",
"1423 622 OFFCURVE",
"1415 664 CURVE SMOOTH",
"1380 847 OFFCURVE",
"1576 995 OFFCURVE",
"1716 995 CURVE SMOOTH",
"1762 995 OFFCURVE",
"1805 969 OFFCURVE",
"1803 914 CURVE SMOOTH",
"1798 786 OFFCURVE",
"1536 677 OFFCURVE",
"1360 620 CURVE",
"1362 589 LINE",
"1547 645 OFFCURVE",
"1832 770 OFFCURVE",
"1832 915 CURVE SMOOTH",
"1832 976 OFFCURVE",
"1798 1021 OFFCURVE",
"1716 1021 CURVE SMOOTH",
"1579 1021 OFFCURVE",
"1359 877 OFFCURVE",
"1389 664 CURVE SMOOTH",
"1397 607 OFFCURVE",
"1417 579 OFFCURVE",
"1438 549 CURVE"
);
},
{
closed = 1;
nodes = (
"770 577 LINE",
"943 543 OFFCURVE",
"1194 538 OFFCURVE",
"1362 589 CURVE",
"1360 620 LINE",
"1205 566 OFFCURVE",
"949 572 OFFCURVE",
"777 607 CURVE"
);
}
);
width = 1584;
},
{
associatedMasterId = "B59D2992-18BA-4B4D-949D-9ECAC08614C3";
layerId = "E3549927-2A7A-49B2-AA39-720F125C97C7";
name = "Jan 30 21, 16:33";
paths = (
{
closed = 1;
nodes = (
"1510 939 LINE SMOOTH",
"1538 988 OFFCURVE",
"1514 1022 OFFCURVE",
"1467 1022 CURVE SMOOTH",
"1350 1022 OFFCURVE",
"1187 823 OFFCURVE",
"905 447 CURVE SMOOTH",
"706 181 OFFCURVE",
"559 19 OFFCURVE",
"341 19 CURVE SMOOTH",
"220 19 OFFCURVE",
"141 115 OFFCURVE",
"141 205 CURVE SMOOTH",
"141 309 OFFCURVE",
"201 344 OFFCURVE",
"254 345 CURVE SMOOTH",
"305 345 OFFCURVE",
"317 321 OFFCURVE",
"360 321 CURVE SMOOTH",
"399 321 OFFCURVE",
"435 347 OFFCURVE",
"435 385 CURVE SMOOTH",
"435 436 OFFCURVE",
"389 464 OFFCURVE",
"333 464 CURVE SMOOTH",
"229 464 OFFCURVE",
"110 380 OFFCURVE",
"110 206 CURVE SMOOTH",
"110 96 OFFCURVE",
"208 -7 OFFCURVE",
"341 -10 CURVE SMOOTH",
"571 -15 OFFCURVE",
"728 165 OFFCURVE",
"930 436 CURVE SMOOTH",
"1209 811 OFFCURVE",
"1363 994 OFFCURVE",
"1463 994 CURVE SMOOTH",
"1487 994 OFFCURVE",
"1497 979 OFFCURVE",
"1477 945 CURVE SMOOTH",
"941 16 LINE",
"968 0 LINE"
);
},
{
closed = 1;
nodes = (
"1438 549 LINE",
"1439 548 OFFCURVE",
"1440 546 OFFCURVE",
"1441 545 CURVE",
"1219 488 OFFCURVE",
"1068 309 OFFCURVE",
"1068 165 CURVE SMOOTH",
"1068 60 OFFCURVE",
"1117 -21 OFFCURVE",
"1252 -21 CURVE SMOOTH",
"1400 -21 OFFCURVE",
"1547 92 OFFCURVE",
"1708 272 CURVE",
"1688 291 LINE",
"1547 126 OFFCURVE",
"1382 7 OFFCURVE",
"1252 7 CURVE SMOOTH",
"1155 7 OFFCURVE",
"1097 60 OFFCURVE",
"1097 165 CURVE SMOOTH",
"1097 303 OFFCURVE",
"1273 494 OFFCURVE",
"1455 518 CURVE",
"1493 481 OFFCURVE",
"1513 468 OFFCURVE",
"1535 468 CURVE SMOOTH",
"1561 468 OFFCURVE",
"1587 480 OFFCURVE",
"1589 508 CURVE SMOOTH",
"1591 533 OFFCURVE",
"1574 554 OFFCURVE",
"1540 556 CURVE SMOOTH",
"1524 557 OFFCURVE",
"1502 557 OFFCURVE",
"1470 551 CURVE",
"1468 553 OFFCURVE",
"1467 555 OFFCURVE",
"1465 556 CURVE"
);
},
{
closed = 1;
nodes = (
"1465 556 LINE",
"1439 588 OFFCURVE",
"1423 622 OFFCURVE",
"1415 664 CURVE SMOOTH",
"1380 847 OFFCURVE",
"1576 995 OFFCURVE",
"1716 995 CURVE SMOOTH",
"1762 995 OFFCURVE",
"1816 981 OFFCURVE",
"1811 926 CURVE SMOOTH",
"1802 817 OFFCURVE",
"1531 690 OFFCURVE",
"1349 592 CURVE",
"1351 560 LINE",
"1558 669 OFFCURVE",
"1840 798 OFFCURVE",
"1840 927 CURVE SMOOTH",
"1840 988 OFFCURVE",
"1798 1021 OFFCURVE",
"1716 1021 CURVE SMOOTH",
"1579 1021 OFFCURVE",
"1359 877 OFFCURVE",
"1389 664 CURVE SMOOTH",
"1397 607 OFFCURVE",
"1417 579 OFFCURVE",
"1438 549 CURVE"
);
},
{
closed = 1;
nodes = (
"650 425 LINE",
"759 348 OFFCURVE",
"1084 406 OFFCURVE",
"1351 560 CURVE",
"1349 592 LINE",
"1151 470 OFFCURVE",
"778 377 OFFCURVE",
"669 449 CURVE"
);
}
);
width = 1584;
}
);
unicode = 00C6;
},
{
glyphname = B;
lastChange = "2021-05-01 11:01:59 +0000";
layers = (
{
associatedMasterId = "B59D2992-18BA-4B4D-949D-9ECAC08614C3";
guideLines = (
{
position = "{954, 1019}";
},
{
position = "{274, -15}";
},
{
angle = 60;
position = "{273, 0}";
},
{
angle = 60;
position = "{240, 0}";
},
{
position = "{281, 13}";
}
);
layerId = "D339DD3C-A148-42FF-B5EE-71BB9B6DE041";
name = "May 26 20, 19:35";
paths = (
{
closed = 1;
nodes = (
"476 168 OFFCURVE",
"514 181 OFFCURVE",
"518 217 CURVE SMOOTH",
"521 241 OFFCURVE",
"515 270 OFFCURVE",
"482 272 CURVE SMOOTH",
"462 273 OFFCURVE",
"433 254 OFFCURVE",
"423 201 CURVE SMOOTH",
"414 154 OFFCURVE",
"435 -15 OFFCURVE",
"626 -15 CURVE SMOOTH",
"751 -15 OFFCURVE",
"866 63 OFFCURVE",
"866 203 CURVE SMOOTH",
"866 327 OFFCURVE",
"806 391 OFFCURVE",
"805 483 CURVE SMOOTH",
"804 573 OFFCURVE",
"1046 614 OFFCURVE",
"1046 810 CURVE SMOOTH",
"1046 951 OFFCURVE",
"944 1018 OFFCURVE",
"777 1018 CURVE SMOOTH",
"607 1018 OFFCURVE",
"435 943 OFFCURVE",
"297 824 CURVE SMOOTH",
"126 675 OFFCURVE",
"7 458 OFFCURVE",
"0 242 CURVE SMOOTH",
"-5 87 OFFCURVE",
"51 -17 OFFCURVE",
"157 -15 CURVE SMOOTH",
"193 -14 OFFCURVE",
"247 6 OFFCURVE",
"289 54 CURVE SMOOTH",
"321 90 OFFCURVE",
"348 142 OFFCURVE",
"391 208 CURVE SMOOTH",
"429 267 OFFCURVE",
"467 340 OFFCURVE",
"522 431 CURVE SMOOTH",
"599 564 OFFCURVE",
"671 699 OFFCURVE",
"804 777 CURVE SMOOTH",
"891 828 OFFCURVE",
"834 912 OFFCURVE",
"776 882 CURVE SMOOTH",
"747 867 OFFCURVE",
"738 860 OFFCURVE",
"677 756 CURVE SMOOTH",
"489 431 LINE SMOOTH",
"448 361 OFFCURVE",
"410 288 OFFCURVE",
"371 223 CURVE SMOOTH",
"338 168 OFFCURVE",
"303 110 OFFCURVE",
"268 71 CURVE SMOOTH",
"232 32 OFFCURVE",
"186 14 OFFCURVE",
"156 13 CURVE SMOOTH",
"71 12 OFFCURVE",
"28 102 OFFCURVE",
"31 237 CURVE SMOOTH",
"35 452 OFFCURVE",
"148 660 OFFCURVE",
"315 804 CURVE SMOOTH",
"445 916 OFFCURVE",
"607 990 OFFCURVE",
"777 990 CURVE SMOOTH",
"941 990 OFFCURVE",
"1015 926 OFFCURVE",
"1018 807 CURVE SMOOTH",
"1022 636 OFFCURVE",
"774 598 OFFCURVE",
"774 483 CURVE SMOOTH",
"774 389 OFFCURVE",
"839 335 OFFCURVE",
"839 201 CURVE SMOOTH",
"839 93 OFFCURVE",
"750 13 OFFCURVE",
"622 13 CURVE SMOOTH",
"549 13 OFFCURVE",
"476 57 OFFCURVE",
"476 124 CURVE SMOOTH"
);
}
);
width = 942;
},
{
associatedMasterId = "B59D2992-18BA-4B4D-949D-9ECAC08614C3";
guideLines = (
{
position = "{954, 1019}";
},
{
position = "{274, -15}";
},
{
angle = 60;
position = "{273, 0}";
},
{
angle = 60;
position = "{240, 0}";
},
{
position = "{281, 13}";
}
);
layerId = "1529C47A-E66C-47D4-8FFB-51A08B34D63C";
name = "May 26 20, 19:50";
paths = (
{
closed = 1;
nodes = (
"476 168 OFFCURVE",
"514 181 OFFCURVE",
"518 217 CURVE SMOOTH",
"521 241 OFFCURVE",
"515 270 OFFCURVE",
"482 272 CURVE SMOOTH",
"462 273 OFFCURVE",
"433 254 OFFCURVE",
"423 201 CURVE SMOOTH",
"414 154 OFFCURVE",
"435 -15 OFFCURVE",
"626 -15 CURVE SMOOTH",
"751 -15 OFFCURVE",
"866 63 OFFCURVE",
"866 203 CURVE SMOOTH",
"866 327 OFFCURVE",
"806 391 OFFCURVE",
"805 483 CURVE SMOOTH",
"804 573 OFFCURVE",
"1046 614 OFFCURVE",
"1046 810 CURVE SMOOTH",
"1046 951 OFFCURVE",
"944 1018 OFFCURVE",
"777 1018 CURVE SMOOTH",
"607 1018 OFFCURVE",
"435 943 OFFCURVE",
"297 824 CURVE SMOOTH",
"126 675 OFFCURVE",
"7 458 OFFCURVE",
"0 242 CURVE SMOOTH",
"-5 87 OFFCURVE",
"51 -17 OFFCURVE",
"157 -15 CURVE SMOOTH",
"193 -14 OFFCURVE",
"247 6 OFFCURVE",
"289 54 CURVE SMOOTH",
"321 90 OFFCURVE",
"350 142 OFFCURVE",
"393 208 CURVE SMOOTH",
"431 267 OFFCURVE",
"467 340 OFFCURVE",
"522 431 CURVE",
"812 934 LINE",
"780 936 LINE",
"489 431 LINE",
"448 361 OFFCURVE",
"408 288 OFFCURVE",
"369 223 CURVE SMOOTH",
"336 168 OFFCURVE",
"303 110 OFFCURVE",
"268 71 CURVE SMOOTH",
"232 32 OFFCURVE",
"186 14 OFFCURVE",
"156 13 CURVE SMOOTH",
"71 12 OFFCURVE",
"28 102 OFFCURVE",
"31 237 CURVE SMOOTH",
"35 452 OFFCURVE",
"148 660 OFFCURVE",
"315 804 CURVE SMOOTH",
"445 916 OFFCURVE",
"607 990 OFFCURVE",
"777 990 CURVE SMOOTH",
"941 990 OFFCURVE",
"1015 926 OFFCURVE",
"1018 807 CURVE SMOOTH",
"1022 636 OFFCURVE",
"774 598 OFFCURVE",
"774 483 CURVE SMOOTH",
"774 389 OFFCURVE",
"839 335 OFFCURVE",
"839 201 CURVE SMOOTH",
"839 93 OFFCURVE",
"750 13 OFFCURVE",
"622 13 CURVE SMOOTH",
"549 13 OFFCURVE",
"476 57 OFFCURVE",
"476 124 CURVE SMOOTH"
);
}
);
width = 821;
},
{
guideLines = (
{
position = "{1064, 1019}";
},
{
position = "{384, -15}";
},
{
angle = 60;
position = "{383, 0}";
},
{
angle = 60;
position = "{350, 0}";
},
{
position = "{391, 13}";
}
);
layerId = "B59D2992-18BA-4B4D-949D-9ECAC08614C3";
paths = (
{
closed = 1;
nodes = (
"303 -14 OFFCURVE",
"357 6 OFFCURVE",
"399 54 CURVE SMOOTH",
"431 90 OFFCURVE",
"463 139 OFFCURVE",
"503 208 CURVE SMOOTH",
"538 269 OFFCURVE",
"577 340 OFFCURVE",
"632 431 CURVE SMOOTH",
"709 564 OFFCURVE",
"781 699 OFFCURVE",
"914 777 CURVE SMOOTH",
"1001 828 OFFCURVE",
"944 912 OFFCURVE",
"886 882 CURVE SMOOTH",
"857 867 OFFCURVE",
"848 860 OFFCURVE",
"787 756 CURVE SMOOTH",
"599 431 LINE SMOOTH",
"558 361 OFFCURVE",
"518 288 OFFCURVE",
"479 223 CURVE SMOOTH",
"446 168 OFFCURVE",
"413 110 OFFCURVE",
"378 71 CURVE SMOOTH",
"342 32 OFFCURVE",
"296 14 OFFCURVE",
"266 13 CURVE SMOOTH",
"181 12 OFFCURVE",
"138 102 OFFCURVE",
"141 237 CURVE SMOOTH",
"150 612 OFFCURVE",
"501 990 OFFCURVE",
"880 990 CURVE SMOOTH",
"1027 990 OFFCURVE",
"1128 920 OFFCURVE",
"1128 809 CURVE SMOOTH",
"1128 624 OFFCURVE",
"885 599 OFFCURVE",
"884 483 CURVE SMOOTH",
"883 380 OFFCURVE",
"947 327 OFFCURVE",
"947 201 CURVE SMOOTH",
"947 104 OFFCURVE",
"876 13 OFFCURVE",
"727 13 CURVE SMOOTH",
"673 13 OFFCURVE",
"642 32 OFFCURVE",
"642 62 CURVE SMOOTH",
"642 95 OFFCURVE",
"695 110 OFFCURVE",
"736 117 CURVE SMOOTH",
"781 125 OFFCURVE",
"922 150 OFFCURVE",
"956 162 CURVE SMOOTH",
"1020 184 OFFCURVE",
"1068 213 OFFCURVE",
"1135 270 CURVE",
"1115 290 LINE SMOOTH",
"1075 245 OFFCURVE",
"1012 209 OFFCURVE",
"951 191 CURVE SMOOTH",
"907 178 OFFCURVE",
"777 152 OFFCURVE",
"738 145 CURVE SMOOTH",
"677 134 OFFCURVE",
"614 109 OFFCURVE",
"614 65 CURVE SMOOTH",
"614 21 OFFCURVE",
"656 -15 OFFCURVE",
"731 -15 CURVE SMOOTH",
"877 -15 OFFCURVE",
"974 74 OFFCURVE",
"974 203 CURVE SMOOTH",
"974 329 OFFCURVE",
"911 387 OFFCURVE",
"912 483 CURVE SMOOTH",
"913 571 OFFCURVE",
"1156 614 OFFCURVE",
"1156 810 CURVE SMOOTH",
"1156 945 OFFCURVE",
"1038 1018 OFFCURVE",
"880 1018 CURVE SMOOTH",
"484 1018 OFFCURVE",
"123 637 OFFCURVE",
"110 242 CURVE SMOOTH",
"105 87 OFFCURVE",
"161 -17 OFFCURVE",
"267 -15 CURVE SMOOTH"
);
}
);
width = 1012;
},
{
associatedMasterId = "B59D2992-18BA-4B4D-949D-9ECAC08614C3";
guideLines = (
{
position = "{1064, 1019}";
},
{
position = "{384, -15}";
},
{
angle = 60;
position = "{383, 0}";
},
{
angle = 60;
position = "{350, 0}";
},
{
position = "{391, 13}";
}
);
layerId = "5C572AFA-751D-4582-870C-FB606D514F05";
name = "Jun 9 20, 09:37";
paths = (
{
closed = 1;
nodes = (
"877 -15 OFFCURVE",
"974 74 OFFCURVE",
"974 203 CURVE SMOOTH",
"974 327 OFFCURVE",
"913 387 OFFCURVE",
"912 483 CURVE SMOOTH",
"911 574 OFFCURVE",
"1156 614 OFFCURVE",
"1156 810 CURVE SMOOTH",
"1156 951 OFFCURVE",
"1050 1018 OFFCURVE",
"887 1018 CURVE SMOOTH",
"491 1018 OFFCURVE",
"123 637 OFFCURVE",
"110 242 CURVE SMOOTH",
"105 87 OFFCURVE",
"161 -17 OFFCURVE",
"267 -15 CURVE SMOOTH",
"303 -14 OFFCURVE",
"357 6 OFFCURVE",
"399 54 CURVE SMOOTH",
"431 90 OFFCURVE",
"463 139 OFFCURVE",
"503 208 CURVE SMOOTH",
"538 269 OFFCURVE",
"577 340 OFFCURVE",
"632 431 CURVE SMOOTH",
"709 564 OFFCURVE",
"781 699 OFFCURVE",
"914 777 CURVE SMOOTH",
"1001 828 OFFCURVE",
"944 912 OFFCURVE",
"886 882 CURVE SMOOTH",
"857 867 OFFCURVE",
"848 860 OFFCURVE",
"787 756 CURVE SMOOTH",
"599 431 LINE SMOOTH",
"558 361 OFFCURVE",
"518 288 OFFCURVE",
"479 223 CURVE SMOOTH",
"446 168 OFFCURVE",
"413 110 OFFCURVE",
"378 71 CURVE SMOOTH",
"342 32 OFFCURVE",
"296 14 OFFCURVE",
"266 13 CURVE SMOOTH",
"181 12 OFFCURVE",
"138 102 OFFCURVE",
"141 237 CURVE SMOOTH",
"150 612 OFFCURVE",
"508 990 OFFCURVE",
"887 990 CURVE SMOOTH",
"1047 990 OFFCURVE",
"1121 926 OFFCURVE",
"1128 807 CURVE SMOOTH",
"1138 636 OFFCURVE",
"884 599 OFFCURVE",
"884 483 CURVE SMOOTH",
"884 385 OFFCURVE",
"947 327 OFFCURVE",
"947 201 CURVE SMOOTH",
"947 104 OFFCURVE",
"876 13 OFFCURVE",
"727 13 CURVE SMOOTH",
"673 13 OFFCURVE",
"642 32 OFFCURVE",
"642 62 CURVE SMOOTH",
"642 95 OFFCURVE",
"695 110 OFFCURVE",
"736 117 CURVE SMOOTH",
"781 125 OFFCURVE",
"922 150 OFFCURVE",
"956 162 CURVE SMOOTH",
"1020 184 OFFCURVE",
"1068 213 OFFCURVE",
"1135 270 CURVE",
"1115 290 LINE SMOOTH",
"1075 245 OFFCURVE",
"1012 209 OFFCURVE",
"951 191 CURVE SMOOTH",
"907 178 OFFCURVE",
"777 152 OFFCURVE",
"738 145 CURVE SMOOTH",
"677 134 OFFCURVE",
"614 109 OFFCURVE",
"614 65 CURVE SMOOTH",
"614 21 OFFCURVE",
"656 -15 OFFCURVE",
"731 -15 CURVE SMOOTH"
);
}
);
width = 1012;
}
);
unicode = 0042;
},
{
glyphname = C;
lastChange = "2021-05-01 11:01:59 +0000";
layers = (
{
associatedMasterId = "B59D2992-18BA-4B4D-949D-9ECAC08614C3";
layerId = "8152D328-6625-4B77-947B-C92E7CB29594";
name = "Jun 9 20, 09:39";
paths = (
{
closed = 1;
nodes = (
"853 850 LINE",
"845 922 OFFCURVE",
"794 994 OFFCURVE",
"699 995 CURVE SMOOTH",
"565 996 OFFCURVE",
"393 866 OFFCURVE",
"246 627 CURVE SMOOTH",
"126 432 OFFCURVE",
"45 19 OFFCURVE",
"348 19 CURVE SMOOTH",
"502 19 OFFCURVE",
"615 118 OFFCURVE",
"757 290 CURVE",
"777 270 LINE",
"615 84 OFFCURVE",
"510 -9 OFFCURVE",
"347 -9 CURVE SMOOTH",
"60 -9 OFFCURVE",
"52 354 OFFCURVE",
"223 638 CURVE SMOOTH",
"393 920 OFFCURVE",
"568 1019 OFFCURVE",
"694 1021 CURVE SMOOTH",
"809 1023 OFFCURVE",
"871 947 OFFCURVE",
"878 850 CURVE"
);
},
{
closed = 1;
nodes = (
"853 850 LINE",
"855 798 OFFCURVE",
"849 773 OFFCURVE",
"831 733 CURVE SMOOTH",
"780 616 OFFCURVE",
"662 627 OFFCURVE",
"621 620 CURVE SMOOTH",
"595 616 OFFCURVE",
"564 592 OFFCURVE",
"568 564 CURVE SMOOTH",
"573 532 OFFCURVE",
"601 517 OFFCURVE",
"648 524 CURVE SMOOTH",
"710 533 OFFCURVE",
"810 611 OFFCURVE",
"855 713 CURVE SMOOTH",
"876 762 OFFCURVE",
"880 817 OFFCURVE",
"878 850 CURVE"
);
}
);
width = 654;
},
{
associatedMasterId = "B59D2992-18BA-4B4D-949D-9ECAC08614C3";
layerId = "915109AC-B89D-4C8F-9172-ADA43951EEB0";
name = "Jun 9 20, 09:51";
paths = (
{
closed = 1;
nodes = (
"463 1019 OFFCURVE",
"744 1019 CURVE SMOOTH",
"845 1019 OFFCURVE",
"917 955 OFFCURVE",
"917 854 CURVE SMOOTH",
"917 682 OFFCURVE",
"711 527 OFFCURVE",
"580 530 CURVE SMOOTH",
"538 531 OFFCURVE",
"511 551 OFFCURVE",
"511 583 CURVE SMOOTH",
"511 611 OFFCURVE",
"533 636 OFFCURVE",
"574 628 CURVE SMOOTH",
"734 597 OFFCURVE",
"890 707 OFFCURVE",
"890 854 CURVE SMOOTH",
"890 938 OFFCURVE",
"832 992 OFFCURVE",
"745 993 CURVE SMOOTH",
"481 996 OFFCURVE",
"161 554 OFFCURVE",
"161 239 CURVE SMOOTH",
"161 104 OFFCURVE",
"208 19 OFFCURVE",
"340 19 CURVE SMOOTH",
"474 19 OFFCURVE",
"635 153 OFFCURVE",
"757 290 CURVE",
"777 270 LINE",
"635 117 OFFCURVE",
"482 -9 OFFCURVE",
"339 -9 CURVE SMOOTH",
"197 -9 OFFCURVE",
"133 85 OFFCURVE",
"133 245 CURVE SMOOTH",
"133 564 OFFCURVE"
);
}
);
width = 654;
},
{
guideLines = (
{
position = "{400, -9}";
},
{
position = "{407, 19}";
}
);
layerId = "B59D2992-18BA-4B4D-949D-9ECAC08614C3";
paths = (
{
closed = 1;
nodes = (
"349 -9 OFFCURVE",
"502 117 OFFCURVE",
"644 270 CURVE",
"624 290 LINE",
"502 153 OFFCURVE",
"341 19 OFFCURVE",
"207 19 CURVE SMOOTH",
"75 19 OFFCURVE",
"28 104 OFFCURVE",
"28 239 CURVE SMOOTH",
"28 554 OFFCURVE",
"348 996 OFFCURVE",
"612 993 CURVE SMOOTH",
"699 992 OFFCURVE",
"752 942 OFFCURVE",
"752 863 CURVE SMOOTH",
"752 728 OFFCURVE",
"631 637 OFFCURVE",
"471 667 CURVE SMOOTH",
"430 675 OFFCURVE",
"408 650 OFFCURVE",
"408 622 CURVE SMOOTH",
"408 590 OFFCURVE",
"435 570 OFFCURVE",
"477 569 CURVE SMOOTH",
"608 566 OFFCURVE",
"779 703 OFFCURVE",
"779 863 CURVE SMOOTH",
"779 959 OFFCURVE",
"712 1019 OFFCURVE",
"611 1019 CURVE SMOOTH",
"330 1019 OFFCURVE",
"0 564 OFFCURVE",
"0 245 CURVE SMOOTH",
"0 85 OFFCURVE",
"64 -9 OFFCURVE",
"206 -9 CURVE SMOOTH"
);
}
);
width = 521;
}
);
unicode = 0043;
},
{
glyphname = Ccedilla;
lastChange = "2021-05-01 11:01:59 +0000";
layers = (
{
layerId = "B59D2992-18BA-4B4D-949D-9ECAC08614C3";
paths = (
{
closed = 1;
nodes = (
"349 -9 OFFCURVE",
"502 117 OFFCURVE",
"644 270 CURVE",
"624 290 LINE",
"502 153 OFFCURVE",
"341 19 OFFCURVE",
"207 19 CURVE SMOOTH",
"75 19 OFFCURVE",
"28 104 OFFCURVE",
"28 239 CURVE SMOOTH",
"28 554 OFFCURVE",
"348 996 OFFCURVE",
"612 993 CURVE SMOOTH",
"699 992 OFFCURVE",
"752 942 OFFCURVE",
"752 863 CURVE SMOOTH",
"752 728 OFFCURVE",
"631 637 OFFCURVE",
"471 667 CURVE SMOOTH",
"430 675 OFFCURVE",
"408 650 OFFCURVE",
"408 622 CURVE SMOOTH",
"408 590 OFFCURVE",
"435 570 OFFCURVE",
"477 569 CURVE SMOOTH",
"608 566 OFFCURVE",
"779 703 OFFCURVE",
"779 863 CURVE SMOOTH",
"779 959 OFFCURVE",
"712 1019 OFFCURVE",
"611 1019 CURVE SMOOTH",
"330 1019 OFFCURVE",
"0 564 OFFCURVE",
"0 245 CURVE SMOOTH",
"0 85 OFFCURVE",
"64 -9 OFFCURVE",
"206 -9 CURVE SMOOTH"
);
},
{
closed = 1;
nodes = (
"95 -188 OFFCURVE",
"193 -176 OFFCURVE",
"195 -106 CURVE SMOOTH",
"196 -69 OFFCURVE",
"162 -56 OFFCURVE",
"130 -52 CURVE SMOOTH",
"113 -50 OFFCURVE",
"112 -43 OFFCURVE",
"130 -20 CURVE SMOOTH",
"152 7 LINE",
"116 9 LINE",
"90 -24 LINE SMOOTH",
"73 -46 OFFCURVE",
"86 -65 OFFCURVE",
"98 -72 CURVE SMOOTH",
"116 -83 OFFCURVE",
"136 -77 OFFCURVE",
"150 -83 CURVE SMOOTH",
"182 -97 OFFCURVE",
"173 -139 OFFCURVE",
"115 -148 CURVE SMOOTH",
"90 -152 OFFCURVE",
"65 -142 OFFCURVE",
"41 -118 CURVE SMOOTH",
"25 -102 OFFCURVE",
"1 -109 OFFCURVE",
"0 -128 CURVE SMOOTH",
"-1 -147 OFFCURVE",
"19 -168 OFFCURVE",
"46 -175 CURVE SMOOTH"
);
}
);
width = 521;
}
);
unicode = 00C7;
},
{
glyphname = D;
lastChange = "2021-05-01 11:01:59 +0000";
layers = (
{
associatedMasterId = "B59D2992-18BA-4B4D-949D-9ECAC08614C3";
guideLines = (
{
angle = 60;
position = "{277, 0}";
},
{
angle = 60;
position = "{244, 0}";
},
{
position = "{311, -15}";
}
);
layerId = "2C4AD205-926F-4520-B2B8-CD3C82F766B7";
name = "May 26 20, 20:00";
paths = (
{
closed = 1;
nodes = (
"852 992 OFFCURVE",
"942 937 OFFCURVE",
"980 852 CURVE SMOOTH",
"1008 789 OFFCURVE",
"1021 710 OFFCURVE",
"1021 624 CURVE SMOOTH",
"1021 432 OFFCURVE",
"945 267 OFFCURVE",
"864 157 CURVE SMOOTH",
"797 66 OFFCURVE",
"712 13 OFFCURVE",
"637 13 CURVE SMOOTH",
"553 13 OFFCURVE",
"484 50 OFFCURVE",
"484 124 CURVE SMOOTH",
"484 168 OFFCURVE",
"522 181 OFFCURVE",
"526 217 CURVE SMOOTH",
"529 241 OFFCURVE",
"523 271 OFFCURVE",
"490 272 CURVE SMOOTH",
"470 273 OFFCURVE",
"441 254 OFFCURVE",
"431 201 CURVE SMOOTH",
"422 154 OFFCURVE",
"443 -15 OFFCURVE",
"634 -15 CURVE SMOOTH",
"719 -15 OFFCURVE",
"807 39 OFFCURVE",
"885 139 CURVE SMOOTH",
"970 250 OFFCURVE",
"1050 416 OFFCURVE",
"1049 627 CURVE SMOOTH",
"1049 710 OFFCURVE",
"1037 790 OFFCURVE",
"1011 855 CURVE SMOOTH",
"973 953 OFFCURVE",
"875 1019 OFFCURVE",
"760 1018 CURVE SMOOTH",
"577 1017 OFFCURVE",
"435 943 OFFCURVE",
"297 824 CURVE SMOOTH",
"126 675 OFFCURVE",
"7 458 OFFCURVE",
"0 242 CURVE SMOOTH",
"-5 87 OFFCURVE",
"46 -17 OFFCURVE",
"157 -15 CURVE SMOOTH",
"226 -13 OFFCURVE",
"297 35 OFFCURVE",
"403 217 CURVE SMOOTH",
"434 270 OFFCURVE",
"482 357 OFFCURVE",
"525 431 CURVE SMOOTH",
"603 565 OFFCURVE",
"673 699 OFFCURVE",
"806 777 CURVE SMOOTH",
"893 828 OFFCURVE",
"836 912 OFFCURVE",
"778 882 CURVE SMOOTH",
"749 867 OFFCURVE",
"740 861 OFFCURVE",
"680 756 CURVE SMOOTH",
"640 686 OFFCURVE",
"572 568 OFFCURVE",
"499 442 CURVE SMOOTH",
"463 380 OFFCURVE",
"415 293 OFFCURVE",
"378 236 CURVE SMOOTH",
"292 103 OFFCURVE",
"240 14 OFFCURVE",
"156 13 CURVE SMOOTH",
"71 12 OFFCURVE",
"28 104 OFFCURVE",
"31 239 CURVE SMOOTH",
"35 454 OFFCURVE",
"148 658 OFFCURVE",
"315 802 CURVE SMOOTH",
"445 914 OFFCURVE",
"590 992 OFFCURVE",
"760 992 CURVE SMOOTH"
);
}
);
width = 1044;
},
{
associatedMasterId = "B59D2992-18BA-4B4D-949D-9ECAC08614C3";
guideLines = (
{
angle = 60;
position = "{277, 0}";
},
{
angle = 60;
position = "{244, 0}";
},
{
position = "{311, -15}";
}
);
layerId = "6B5FDD12-7D6A-4406-ACA6-89A1A5FFFB41";
name = "May 26 20, 20:14";
paths = (
{
closed = 1;
nodes = (
"741 859 OFFCURVE",
"572 568 OFFCURVE",
"499 442 CURVE SMOOTH",
"463 380 OFFCURVE",
"415 293 OFFCURVE",
"378 236 CURVE SMOOTH",
"292 103 OFFCURVE",
"240 14 OFFCURVE",
"156 13 CURVE SMOOTH",
"71 12 OFFCURVE",
"28 104 OFFCURVE",
"31 239 CURVE SMOOTH",
"35 454 OFFCURVE",
"148 658 OFFCURVE",
"315 802 CURVE SMOOTH",
"445 914 OFFCURVE",
"590 992 OFFCURVE",
"760 992 CURVE SMOOTH",
"852 992 OFFCURVE",
"942 937 OFFCURVE",
"980 852 CURVE SMOOTH",
"1008 789 OFFCURVE",
"1021 710 OFFCURVE",
"1021 624 CURVE SMOOTH",
"1021 432 OFFCURVE",
"945 267 OFFCURVE",
"864 157 CURVE SMOOTH",
"797 66 OFFCURVE",
"712 13 OFFCURVE",
"637 13 CURVE SMOOTH",
"553 13 OFFCURVE",
"484 50 OFFCURVE",
"484 124 CURVE SMOOTH",
"484 168 OFFCURVE",
"522 181 OFFCURVE",
"526 217 CURVE SMOOTH",
"529 241 OFFCURVE",
"523 271 OFFCURVE",
"490 272 CURVE SMOOTH",
"470 273 OFFCURVE",
"441 254 OFFCURVE",
"431 201 CURVE SMOOTH",
"422 154 OFFCURVE",
"443 -15 OFFCURVE",
"634 -15 CURVE SMOOTH",
"719 -15 OFFCURVE",
"807 39 OFFCURVE",
"885 139 CURVE SMOOTH",
"970 250 OFFCURVE",
"1050 416 OFFCURVE",
"1049 627 CURVE SMOOTH",
"1049 710 OFFCURVE",
"1037 790 OFFCURVE",
"1011 855 CURVE SMOOTH",
"973 953 OFFCURVE",
"875 1019 OFFCURVE",
"760 1018 CURVE SMOOTH",
"577 1017 OFFCURVE",
"435 943 OFFCURVE",
"297 824 CURVE SMOOTH",
"126 675 OFFCURVE",
"7 458 OFFCURVE",
"0 242 CURVE SMOOTH",
"-5 87 OFFCURVE",
"46 -17 OFFCURVE",
"157 -15 CURVE SMOOTH",
"226 -13 OFFCURVE",
"297 35 OFFCURVE",
"403 217 CURVE SMOOTH",
"434 270 OFFCURVE",
"482 357 OFFCURVE",
"525 431 CURVE SMOOTH",
"603 565 OFFCURVE",
"764 844 OFFCURVE",
"812 926 CURVE",
"781 929 LINE"
);
}
);
width = 1044;
},
{
associatedMasterId = "B59D2992-18BA-4B4D-949D-9ECAC08614C3";
guideLines = (
{
angle = 60;
position = "{277, 0}";
},
{
angle = 60;
position = "{244, 0}";
},
{
position = "{311, -15}";
}
);
layerId = "337E3114-32D5-4AB0-9F3B-9923A7ADD3BE";
name = "Jun 4 20, 13:06";
paths = (
{
closed = 1;
nodes = (
"439 29 OFFCURVE",
"480 13 OFFCURVE",
"557 13 CURVE SMOOTH",
"632 13 OFFCURVE",
"780 66 OFFCURVE",
"847 157 CURVE SMOOTH",
"928 267 OFFCURVE",
"1021 432 OFFCURVE",
"1021 624 CURVE SMOOTH",
"1021 710 OFFCURVE",
"1008 789 OFFCURVE",
"980 852 CURVE SMOOTH",
"942 937 OFFCURVE",
"852 992 OFFCURVE",
"760 992 CURVE SMOOTH",
"590 992 OFFCURVE",
"447 912 OFFCURVE",
"317 800 CURVE SMOOTH",
"150 656 OFFCURVE",
"35 443 OFFCURVE",
"31 239 CURVE SMOOTH",
"28 104 OFFCURVE",
"71 12 OFFCURVE",
"156 13 CURVE SMOOTH",
"240 14 OFFCURVE",
"299 103 OFFCURVE",
"380 236 CURVE SMOOTH",
"415 293 OFFCURVE",
"463 380 OFFCURVE",
"499 442 CURVE SMOOTH",
"572 568 OFFCURVE",
"640 686 OFFCURVE",
"680 756 CURVE SMOOTH",
"740 861 OFFCURVE",
"749 867 OFFCURVE",
"778 882 CURVE SMOOTH",
"836 912 OFFCURVE",
"893 828 OFFCURVE",
"806 777 CURVE SMOOTH",
"673 699 OFFCURVE",
"603 565 OFFCURVE",
"525 431 CURVE SMOOTH",
"482 357 OFFCURVE",
"434 270 OFFCURVE",
"403 217 CURVE SMOOTH",
"297 35 OFFCURVE",
"240 -13 OFFCURVE",
"157 -15 CURVE SMOOTH",
"46 -18 OFFCURVE",
"-5 87 OFFCURVE",
"0 242 CURVE SMOOTH",
"7 458 OFFCURVE",
"126 675 OFFCURVE",
"297 824 CURVE SMOOTH",
"435 943 OFFCURVE",
"577 1017 OFFCURVE",
"760 1018 CURVE SMOOTH",
"875 1019 OFFCURVE",
"973 953 OFFCURVE",
"1011 855 CURVE SMOOTH",
"1037 790 OFFCURVE",
"1049 710 OFFCURVE",
"1049 627 CURVE SMOOTH",
"1050 416 OFFCURVE",
"953 250 OFFCURVE",
"868 139 CURVE SMOOTH",
"790 39 OFFCURVE",
"639 -15 OFFCURVE",
"554 -15 CURVE SMOOTH",
"473 -15 OFFCURVE",
"412 4 OFFCURVE",
"411 67 CURVE SMOOTH",
"409 183 OFFCURVE",
"681 186 OFFCURVE",
"750 197 CURVE SMOOTH",
"821 208 OFFCURVE",
"993 247 OFFCURVE",
"1041 290 CURVE",
"1061 270 LINE",
"1005 213 OFFCURVE",
"825 172 OFFCURVE",
"752 162 CURVE SMOOTH",
"685 153 OFFCURVE",
"436 152 OFFCURVE",
"439 68 CURVE"
);
}
);
width = 938;
},
{
associatedMasterId = "B59D2992-18BA-4B4D-949D-9ECAC08614C3";
guideLines = (
{
angle = 60;
position = "{367, 0}";
},
{
angle = 60;
position = "{334, 0}";
},
{
position = "{401, -15}";
}
);
layerId = "7A8E2FC8-56CE-45E3-9502-7921130660DA";
name = "Jun 9 20, 09:32";
paths = (
{
closed = 1;
nodes = (
"649 22 OFFCURVE",
"687 13 OFFCURVE",
"727 13 CURVE SMOOTH",
"802 13 OFFCURVE",
"930 66 OFFCURVE",
"1036 210 CURVE SMOOTH",
"1078 267 OFFCURVE",
"1171 432 OFFCURVE",
"1171 624 CURVE SMOOTH",
"1171 710 OFFCURVE",
"1158 789 OFFCURVE",
"1130 852 CURVE SMOOTH",
"1092 937 OFFCURVE",
"1022 992 OFFCURVE",
"870 992 CURVE SMOOTH",
"700 992 OFFCURVE",
"557 912 OFFCURVE",
"427 800 CURVE SMOOTH",
"260 656 OFFCURVE",
"145 443 OFFCURVE",
"141 239 CURVE SMOOTH",
"138 104 OFFCURVE",
"181 12 OFFCURVE",
"246 13 CURVE SMOOTH",
"330 14 OFFCURVE",
"389 103 OFFCURVE",
"470 236 CURVE SMOOTH",
"505 293 OFFCURVE",
"553 380 OFFCURVE",
"589 442 CURVE SMOOTH",
"662 568 OFFCURVE",
"730 686 OFFCURVE",
"770 756 CURVE SMOOTH",
"830 861 OFFCURVE",
"839 867 OFFCURVE",
"868 882 CURVE SMOOTH",
"926 912 OFFCURVE",
"983 828 OFFCURVE",
"896 777 CURVE SMOOTH",
"763 699 OFFCURVE",
"693 565 OFFCURVE",
"615 431 CURVE SMOOTH",
"572 357 OFFCURVE",
"524 270 OFFCURVE",
"493 217 CURVE SMOOTH",
"387 35 OFFCURVE",
"330 -12 OFFCURVE",
"247 -15 CURVE SMOOTH",
"156 -18 OFFCURVE",
"105 87 OFFCURVE",
"110 242 CURVE SMOOTH",
"117 458 OFFCURVE",
"236 675 OFFCURVE",
"407 824 CURVE SMOOTH",
"545 943 OFFCURVE",
"687 1017 OFFCURVE",
"870 1018 CURVE SMOOTH",
"1045 1019 OFFCURVE",
"1123 953 OFFCURVE",
"1161 855 CURVE SMOOTH",
"1187 790 OFFCURVE",
"1199 710 OFFCURVE",
"1199 627 CURVE SMOOTH",
"1200 416 OFFCURVE",
"1103 250 OFFCURVE",
"1058 191 CURVE SMOOTH",
"941 38 OFFCURVE",
"809 -15 OFFCURVE",
"724 -15 CURVE SMOOTH",
"671 -15 OFFCURVE",
"622 8 OFFCURVE",
"621 47 CURVE SMOOTH",
"619 181 OFFCURVE",
"1055 120 OFFCURVE",
"1211 290 CURVE",
"1231 270 LINE",
"1078 101 OFFCURVE",
"649 142 OFFCURVE",
"649 48 CURVE SMOOTH"
);
}
);
width = 1108;
},
{
associatedMasterId = "B59D2992-18BA-4B4D-949D-9ECAC08614C3";
guideLines = (
{
angle = 60;
position = "{367, 0}";
},
{
angle = 60;
position = "{334, 0}";
},
{
position = "{401, -15}";
}
);
layerId = "0C7A150A-A782-44D1-832F-B42457006A0E";
name = "Jun 9 20, 09:34";
paths = (
{
closed = 1;
nodes = (
"619 22 OFFCURVE",
"657 13 OFFCURVE",
"697 13 CURVE SMOOTH",
"946 13 OFFCURVE",
"1173 341 OFFCURVE",
"1173 625 CURVE SMOOTH",
"1173 852 OFFCURVE",
"1037 992 OFFCURVE",
"817 992 CURVE SMOOTH",
"467 992 OFFCURVE",
"144 579 OFFCURVE",
"137 235 CURVE SMOOTH",
"134 100 OFFCURVE",
"181 12 OFFCURVE",
"246 13 CURVE SMOOTH",
"330 14 OFFCURVE",
"389 103 OFFCURVE",
"470 236 CURVE SMOOTH",
"505 293 OFFCURVE",
"553 380 OFFCURVE",
"589 442 CURVE SMOOTH",
"662 568 OFFCURVE",
"730 686 OFFCURVE",
"770 756 CURVE SMOOTH",
"830 861 OFFCURVE",
"839 867 OFFCURVE",
"868 882 CURVE SMOOTH",
"926 912 OFFCURVE",
"983 828 OFFCURVE",
"896 777 CURVE SMOOTH",
"763 699 OFFCURVE",
"693 565 OFFCURVE",
"615 431 CURVE SMOOTH",
"572 357 OFFCURVE",
"524 270 OFFCURVE",
"493 217 CURVE SMOOTH",
"387 35 OFFCURVE",
"330 -12 OFFCURVE",
"247 -15 CURVE SMOOTH",
"156 -18 OFFCURVE",
"101 80 OFFCURVE",
"106 235 CURVE SMOOTH",
"118 602 OFFCURVE",
"449 1016 OFFCURVE",
"817 1018 CURVE SMOOTH",
"1054 1019 OFFCURVE",
"1201 877 OFFCURVE",
"1201 628 CURVE SMOOTH",
"1201 323 OFFCURVE",
"967 -15 OFFCURVE",
"694 -15 CURVE SMOOTH",
"641 -15 OFFCURVE",
"592 8 OFFCURVE",
"591 47 CURVE SMOOTH",
"588 181 OFFCURVE",
"1055 120 OFFCURVE",
"1211 290 CURVE",
"1231 270 LINE",
"1078 101 OFFCURVE",
"619 142 OFFCURVE",
"619 48 CURVE SMOOTH"
);
}
);
width = 1108;
},
{
associatedMasterId = "B59D2992-18BA-4B4D-949D-9ECAC08614C3";
guideLines = (
{
angle = 60;
position = "{367, 0}";
},
{
angle = 60;
position = "{334, 0}";
},
{
position = "{401, -15}";
}
);
layerId = "26D34B85-1EDA-4F5A-9220-50F7B52178CD";
name = "Jun 9 20, 09:36";
paths = (
{
closed = 1;
nodes = (
"557 22 OFFCURVE",
"595 13 OFFCURVE",
"635 13 CURVE SMOOTH",
"884 13 OFFCURVE",
"1114 347 OFFCURVE",
"1114 645 CURVE SMOOTH",
"1114 863 OFFCURVE",
"967 992 OFFCURVE",
"803 992 CURVE SMOOTH",
"453 992 OFFCURVE",
"94 549 OFFCURVE",
"87 205 CURVE SMOOTH",
"84 70 OFFCURVE",
"141 12 OFFCURVE",
"216 13 CURVE SMOOTH",
"320 14 OFFCURVE",
"389 103 OFFCURVE",
"470 236 CURVE SMOOTH",
"505 293 OFFCURVE",
"553 380 OFFCURVE",
"589 442 CURVE SMOOTH",
"662 568 OFFCURVE",
"730 686 OFFCURVE",
"770 756 CURVE SMOOTH",
"830 861 OFFCURVE",
"839 867 OFFCURVE",
"868 882 CURVE SMOOTH",
"926 912 OFFCURVE",
"983 828 OFFCURVE",
"896 777 CURVE SMOOTH",
"763 699 OFFCURVE",
"693 565 OFFCURVE",
"615 431 CURVE SMOOTH",
"572 357 OFFCURVE",
"524 270 OFFCURVE",
"493 217 CURVE SMOOTH",
"387 35 OFFCURVE",
"320 -12 OFFCURVE",
"217 -15 CURVE SMOOTH",
"116 -18 OFFCURVE",
"51 50 OFFCURVE",
"56 205 CURVE SMOOTH",
"68 572 OFFCURVE",
"435 1016 OFFCURVE",
"803 1018 CURVE SMOOTH",
"984 1019 OFFCURVE",
"1142 888 OFFCURVE",
"1142 648 CURVE SMOOTH",
"1142 329 OFFCURVE",
"905 -15 OFFCURVE",
"632 -15 CURVE SMOOTH",
"579 -15 OFFCURVE",
"530 8 OFFCURVE",
"529 47 CURVE SMOOTH",
"526 181 OFFCURVE",
"993 120 OFFCURVE",
"1149 290 CURVE",
"1169 270 LINE",
"1016 101 OFFCURVE",
"557 142 OFFCURVE",
"557 48 CURVE SMOOTH"
);
}
);
width = 1047;
},
{
guideLines = (
{
angle = 60;
position = "{367, 0}";
},
{
angle = 60;
position = "{334, 0}";
},
{
position = "{401, -15}";
}
);
layerId = "B59D2992-18BA-4B4D-949D-9ECAC08614C3";
paths = (
{
closed = 1;
nodes = (
"330 -12 OFFCURVE",
"387 35 OFFCURVE",
"493 217 CURVE SMOOTH",
"524 270 OFFCURVE",
"572 357 OFFCURVE",
"615 431 CURVE SMOOTH",
"693 565 OFFCURVE",
"763 699 OFFCURVE",
"896 777 CURVE SMOOTH",
"983 828 OFFCURVE",
"926 912 OFFCURVE",
"868 882 CURVE SMOOTH",
"839 867 OFFCURVE",
"830 861 OFFCURVE",
"770 756 CURVE SMOOTH",
"730 686 OFFCURVE",
"662 568 OFFCURVE",
"589 442 CURVE SMOOTH",
"553 380 OFFCURVE",
"505 293 OFFCURVE",
"470 236 CURVE SMOOTH",
"389 103 OFFCURVE",
"330 14 OFFCURVE",
"246 13 CURVE SMOOTH",
"181 12 OFFCURVE",
"134 100 OFFCURVE",
"137 235 CURVE SMOOTH",
"144 579 OFFCURVE",
"453 992 OFFCURVE",
"803 992 CURVE SMOOTH",
"967 992 OFFCURVE",
"1114 863 OFFCURVE",
"1114 645 CURVE SMOOTH",
"1114 347 OFFCURVE",
"884 13 OFFCURVE",
"635 13 CURVE SMOOTH",
"595 13 OFFCURVE",
"557 22 OFFCURVE",
"557 48 CURVE SMOOTH",
"557 142 OFFCURVE",
"1016 101 OFFCURVE",
"1169 270 CURVE",
"1149 290 LINE",
"993 120 OFFCURVE",
"526 181 OFFCURVE",
"529 47 CURVE SMOOTH",
"530 8 OFFCURVE",
"579 -15 OFFCURVE",
"632 -15 CURVE SMOOTH",
"905 -15 OFFCURVE",
"1142 329 OFFCURVE",
"1142 648 CURVE SMOOTH",
"1142 888 OFFCURVE",
"984 1019 OFFCURVE",
"803 1018 CURVE SMOOTH",
"435 1016 OFFCURVE",
"118 602 OFFCURVE",
"106 235 CURVE SMOOTH",
"101 80 OFFCURVE",
"156 -18 OFFCURVE",
"247 -15 CURVE SMOOTH"
);
}
);
width = 1047;
}
);
unicode = 0044;
},
{
glyphname = Eth;
lastChange = "2021-05-01 11:01:59 +0000";
layers = (
{
layerId = "B59D2992-18BA-4B4D-949D-9ECAC08614C3";
paths = (
{
closed = 1;
nodes = (
"330 -12 OFFCURVE",
"387 35 OFFCURVE",
"493 217 CURVE SMOOTH",
"524 270 OFFCURVE",
"572 357 OFFCURVE",
"615 431 CURVE SMOOTH",
"693 565 OFFCURVE",
"763 699 OFFCURVE",
"896 777 CURVE SMOOTH",
"983 828 OFFCURVE",
"926 912 OFFCURVE",
"868 882 CURVE SMOOTH",
"839 867 OFFCURVE",
"830 861 OFFCURVE",
"770 756 CURVE SMOOTH",
"730 686 OFFCURVE",
"662 568 OFFCURVE",
"589 442 CURVE SMOOTH",
"553 380 OFFCURVE",
"505 295 OFFCURVE",
"470 238 CURVE SMOOTH",
"389 105 OFFCURVE",
"330 18 OFFCURVE",
"246 17 CURVE SMOOTH",
"181 16 OFFCURVE",
"136 100 OFFCURVE",
"139 235 CURVE SMOOTH",
"146 568 OFFCURVE",
"452 984 OFFCURVE",
"802 984 CURVE SMOOTH",
"966 984 OFFCURVE",
"1110 863 OFFCURVE",
"1110 645 CURVE SMOOTH",
"1110 347 OFFCURVE",
"884 13 OFFCURVE",
"635 13 CURVE SMOOTH",
"595 13 OFFCURVE",
"557 22 OFFCURVE",
"557 48 CURVE SMOOTH",
"557 142 OFFCURVE",
"1016 101 OFFCURVE",
"1169 270 CURVE",
"1149 290 LINE",
"993 120 OFFCURVE",
"526 181 OFFCURVE",
"529 47 CURVE SMOOTH",
"530 8 OFFCURVE",
"579 -15 OFFCURVE",
"632 -15 CURVE SMOOTH",
"905 -15 OFFCURVE",
"1142 329 OFFCURVE",
"1142 648 CURVE SMOOTH",
"1142 888 OFFCURVE",
"984 1019 OFFCURVE",
"803 1018 CURVE SMOOTH",
"435 1016 OFFCURVE",
"118 602 OFFCURVE",
"106 235 CURVE SMOOTH",
"101 80 OFFCURVE",
"156 -18 OFFCURVE",
"247 -15 CURVE SMOOTH"
);
},
{
closed = 1;
nodes = (
"330 557 LINE",
"318 592 LINE",
"50 484 LINE",
"61 448 LINE"
);
}
);
width = 1047;
},
{
associatedMasterId = "B59D2992-18BA-4B4D-949D-9ECAC08614C3";
layerId = "F7602B4E-11AA-41EE-A42C-5BCBA1313CE0";
name = "Jan 30 21, 16:11";
paths = (
{
closed = 1;
nodes = (
"557 22 OFFCURVE",
"595 13 OFFCURVE",
"635 13 CURVE SMOOTH",
"884 13 OFFCURVE",
"1114 347 OFFCURVE",
"1114 645 CURVE SMOOTH",
"1114 863 OFFCURVE",
"967 992 OFFCURVE",
"803 992 CURVE SMOOTH",
"453 992 OFFCURVE",
"144 579 OFFCURVE",
"137 235 CURVE SMOOTH",
"134 100 OFFCURVE",
"181 12 OFFCURVE",
"246 13 CURVE SMOOTH",
"330 14 OFFCURVE",
"389 103 OFFCURVE",
"470 236 CURVE SMOOTH",
"505 293 OFFCURVE",
"553 380 OFFCURVE",
"589 442 CURVE SMOOTH",
"662 568 OFFCURVE",
"730 686 OFFCURVE",
"770 756 CURVE SMOOTH",
"830 861 OFFCURVE",
"839 867 OFFCURVE",
"868 882 CURVE SMOOTH",
"926 912 OFFCURVE",
"983 828 OFFCURVE",
"896 777 CURVE SMOOTH",
"763 699 OFFCURVE",
"693 565 OFFCURVE",
"615 431 CURVE SMOOTH",
"572 357 OFFCURVE",
"524 270 OFFCURVE",
"493 217 CURVE SMOOTH",
"387 35 OFFCURVE",
"330 -12 OFFCURVE",
"247 -15 CURVE SMOOTH",
"156 -18 OFFCURVE",
"101 80 OFFCURVE",
"106 235 CURVE SMOOTH",
"118 602 OFFCURVE",
"435 1016 OFFCURVE",
"803 1018 CURVE SMOOTH",
"984 1019 OFFCURVE",
"1142 888 OFFCURVE",
"1142 648 CURVE SMOOTH",
"1142 329 OFFCURVE",
"905 -15 OFFCURVE",
"632 -15 CURVE SMOOTH",
"579 -15 OFFCURVE",
"530 8 OFFCURVE",
"529 47 CURVE SMOOTH",
"526 181 OFFCURVE",
"993 120 OFFCURVE",
"1149 290 CURVE",
"1169 270 LINE",
"1016 101 OFFCURVE",
"557 142 OFFCURVE",
"557 48 CURVE SMOOTH"
);
},
{
closed = 1;
nodes = (
"40 537 LINE",
"329 537 LINE",
"329 496 LINE",
"39 496 LINE"
);
}
);
width = 1047;
}
);
unicode = 00D0;
},
{
glyphname = E;
lastChange = "2021-05-01 11:01:59 +0000";
layers = (
{
associatedMasterId = "B59D2992-18BA-4B4D-949D-9ECAC08614C3";
layerId = "752AD96D-79A5-402D-87CD-91A61899F655";
name = "Jun 8 20, 22:29";
paths = (
{
closed = 1;
nodes = (
"598 589 LINE",
"603 578 OFFCURVE",
"630 508 OFFCURVE",
"729 511 CURVE SMOOTH",
"816 514 OFFCURVE",
"954 610 OFFCURVE",
"954 776 CURVE SMOOTH",
"954 883 OFFCURVE",
"905 1001 OFFCURVE",
"747 1001 CURVE SMOOTH",
"603 1001 OFFCURVE",
"411 871 OFFCURVE",
"411 673 CURVE SMOOTH",
"411 600 OFFCURVE",
"442 554 OFFCURVE",
"458 500 CURVE SMOOTH",
"466 473 OFFCURVE",
"461 428 OFFCURVE",
"397 428 CURVE SMOOTH",
"215 428 OFFCURVE",
"139 312 OFFCURVE",
"139 198 CURVE SMOOTH",
"139 119 OFFCURVE",
"199 18 OFFCURVE",
"355 18 CURVE SMOOTH",
"522 18 OFFCURVE",
"645 141 OFFCURVE",
"787 290 CURVE",
"807 270 LINE",
"645 106 OFFCURVE",
"546 -9 OFFCURVE",
"355 -9 CURVE SMOOTH",
"147 -9 OFFCURVE",
"110 141 OFFCURVE",
"110 194 CURVE SMOOTH",
"110 428 OFFCURVE",
"348 456 OFFCURVE",
"393 457 CURVE SMOOTH",
"422 458 OFFCURVE",
"439 465 OFFCURVE",
"430 494 CURVE SMOOTH",
"416 541 OFFCURVE",
"381 603 OFFCURVE",
"381 673 CURVE SMOOTH",
"381 880 OFFCURVE",
"572 1031 OFFCURVE",
"747 1030 CURVE SMOOTH",
"923 1029 OFFCURVE",
"982 904 OFFCURVE",
"982 779 CURVE SMOOTH",
"982 578 OFFCURVE",
"816 483 OFFCURVE",
"729 483 CURVE SMOOTH",
"608 483 OFFCURVE",
"578 561 OFFCURVE",
"567 589 CURVE"
);
},
{
closed = 1;
nodes = (
"598 589 LINE",
"567 687 OFFCURVE",
"653 711 OFFCURVE",
"681 743 CURVE SMOOTH",
"698 763 OFFCURVE",
"706 802 OFFCURVE",
"685 819 CURVE SMOOTH",
"659 840 OFFCURVE",
"630 833 OFFCURVE",
"598 798 CURVE SMOOTH",
"556 752 OFFCURVE",
"542 672 OFFCURVE",
"567 589 CURVE"
);
}
);
width = 684;
},
{
associatedMasterId = "B59D2992-18BA-4B4D-949D-9ECAC08614C3";
layerId = "CE3936D7-23F0-4788-9971-67DC4328CB59";
name = "Jun 10 20, 15:32";
paths = (
{
closed = 1;
nodes = (
"396 865 LINE",
"520 691 OFFCURVE",
"906 686 OFFCURVE",
"898 905 CURVE SMOOTH",
"893 965 OFFCURVE",
"847 1009 OFFCURVE",
"767 1009 CURVE SMOOTH",
"665 1009 OFFCURVE",
"491 911 OFFCURVE",
"491 748 CURVE SMOOTH",
"491 675 OFFCURVE",
"563 599 OFFCURVE",
"563 543 CURVE SMOOTH",
"563 454 OFFCURVE",
"138 400 OFFCURVE",
"138 170 CURVE SMOOTH",
"138 95 OFFCURVE",
"201 19 OFFCURVE",
"315 19 CURVE SMOOTH",
"445 19 OFFCURVE",
"605 141 OFFCURVE",
"747 290 CURVE",
"767 271 LINE",
"605 107 OFFCURVE",
"463 -9 OFFCURVE",
"315 -9 CURVE SMOOTH",
"166 -9 OFFCURVE",
"112 95 OFFCURVE",
"110 170 CURVE SMOOTH",
"105 409 OFFCURVE",
"532 481 OFFCURVE",
"532 545 CURVE SMOOTH",
"532 594 OFFCURVE",
"463 669 OFFCURVE",
"463 748 CURVE SMOOTH",
"463 914 OFFCURVE",
"640 1036 OFFCURVE",
"767 1033 CURVE SMOOTH",
"873 1031 OFFCURVE",
"920 975 OFFCURVE",
"924 906 CURVE SMOOTH",
"934 663 OFFCURVE",
"510 654 OFFCURVE",
"369 855 CURVE"
);
},
{
closed = 1;
nodes = (
"396 865 LINE",
"339 948 OFFCURVE",
"414 997 OFFCURVE",
"429 1037 CURVE SMOOTH",
"438 1061 OFFCURVE",
"435 1101 OFFCURVE",
"409 1111 CURVE SMOOTH",
"378 1123 OFFCURVE",
"353 1106 OFFCURVE",
"334 1063 CURVE SMOOTH",
"309 1006 OFFCURVE",
"321 926 OFFCURVE",
"369 855 CURVE"
);
}
);
width = 644;
},
{
associatedMasterId = "B59D2992-18BA-4B4D-949D-9ECAC08614C3";
layerId = "50260EBC-B8B5-4DCA-AE3B-993F5BF8D833";
name = "Jun 10 20, 15:44";
paths = (
{
closed = 1;
nodes = (
"195 610 LINE",
"277 646 OFFCURVE",
"393 660 OFFCURVE",
"528 664 CURVE SMOOTH",
"753 671 OFFCURVE",
"934 809 OFFCURVE",
"931 937 CURVE SMOOTH",
"930 986 OFFCURVE",
"907 1033 OFFCURVE",
"825 1033 CURVE SMOOTH",
"666 1033 OFFCURVE",
"474 849 OFFCURVE",
"482 665 CURVE SMOOTH",
"486 555 OFFCURVE",
"452 522 OFFCURVE",
"354 483 CURVE SMOOTH",
"240 438 OFFCURVE",
"106 357 OFFCURVE",
"110 170 CURVE SMOOTH",
"112 95 OFFCURVE",
"166 -9 OFFCURVE",
"315 -9 CURVE SMOOTH",
"463 -9 OFFCURVE",
"605 107 OFFCURVE",
"767 271 CURVE",
"747 290 LINE",
"605 141 OFFCURVE",
"445 19 OFFCURVE",
"315 19 CURVE SMOOTH",
"201 19 OFFCURVE",
"138 95 OFFCURVE",
"138 170 CURVE SMOOTH",
"138 341 OFFCURVE",
"252 412 OFFCURVE",
"373 460 CURVE SMOOTH",
"477 502 OFFCURVE",
"515 546 OFFCURVE",
"512 663 CURVE SMOOTH",
"506 850 OFFCURVE",
"685 1009 OFFCURVE",
"825 1009 CURVE SMOOTH",
"871 1009 OFFCURVE",
"904 986 OFFCURVE",
"905 936 CURVE SMOOTH",
"908 826 OFFCURVE",
"719 691 OFFCURVE",
"528 689 CURVE SMOOTH",
"388 688 OFFCURVE",
"268 669 OFFCURVE",
"180 629 CURVE"
);
}
);
width = 644;
},
{
layerId = "B59D2992-18BA-4B4D-949D-9ECAC08614C3";
paths = (
{
closed = 1;
nodes = (
"472 -9 OFFCURVE",
"606 91 OFFCURVE",
"767 271 CURVE",
"747 290 LINE",
"606 125 OFFCURVE",
"454 19 OFFCURVE",
"324 19 CURVE SMOOTH",
"227 19 OFFCURVE",
"169 72 OFFCURVE",
"169 177 CURVE SMOOTH",
"169 315 OFFCURVE",
"345 506 OFFCURVE",
"527 530 CURVE",
"565 493 OFFCURVE",
"585 480 OFFCURVE",
"607 480 CURVE SMOOTH",
"633 480 OFFCURVE",
"659 492 OFFCURVE",
"661 520 CURVE SMOOTH",
"663 545 OFFCURVE",
"646 565 OFFCURVE",
"612 568 CURVE SMOOTH",
"596 570 OFFCURVE",
"574 569 OFFCURVE",
"542 563 CURVE",
"521 596 OFFCURVE",
"510 645 OFFCURVE",
"510 676 CURVE SMOOTH",
"510 863 OFFCURVE",
"693 1007 OFFCURVE",
"833 1007 CURVE SMOOTH",
"879 1007 OFFCURVE",
"918 990 OFFCURVE",
"919 938 CURVE SMOOTH",
"921 847 OFFCURVE",
"793 752 OFFCURVE",
"652 750 CURVE SMOOTH",
"526 748 OFFCURVE",
"356 835 OFFCURVE",
"333 986 CURVE",
"306 979 LINE",
"327 836 OFFCURVE",
"484 719 OFFCURVE",
"649 723 CURVE SMOOTH",
"819 727 OFFCURVE",
"950 836 OFFCURVE",
"948 939 CURVE SMOOTH",
"947 990 OFFCURVE",
"915 1033 OFFCURVE",
"833 1033 CURVE SMOOTH",
"696 1033 OFFCURVE",
"484 891 OFFCURVE",
"484 676 CURVE SMOOTH",
"484 639 OFFCURVE",
"492 599 OFFCURVE",
"513 557 CURVE",
"291 500 OFFCURVE",
"140 321 OFFCURVE",
"140 177 CURVE SMOOTH",
"140 72 OFFCURVE",
"189 -9 OFFCURVE",
"324 -9 CURVE SMOOTH"
);
}
);
width = 644;
},
{
associatedMasterId = "B59D2992-18BA-4B4D-949D-9ECAC08614C3";
layerId = "73460E1D-C9B2-475F-9904-61896E796FC1";
name = "Jun 10 20, 15:44";
paths = (
{
closed = 1;
nodes = (
"223 789 OFFCURVE",
"283 664 OFFCURVE",
"528 664 CURVE SMOOTH",
"733 664 OFFCURVE",
"934 809 OFFCURVE",
"931 937 CURVE SMOOTH",
"930 986 OFFCURVE",
"907 1033 OFFCURVE",
"825 1033 CURVE SMOOTH",
"666 1033 OFFCURVE",
"474 849 OFFCURVE",
"482 665 CURVE SMOOTH",
"486 555 OFFCURVE",
"452 522 OFFCURVE",
"354 483 CURVE SMOOTH",
"240 438 OFFCURVE",
"106 357 OFFCURVE",
"110 170 CURVE SMOOTH",
"112 95 OFFCURVE",
"166 -9 OFFCURVE",
"315 -9 CURVE SMOOTH",
"463 -9 OFFCURVE",
"605 107 OFFCURVE",
"767 271 CURVE",
"747 290 LINE",
"605 141 OFFCURVE",
"445 19 OFFCURVE",
"315 19 CURVE SMOOTH",
"201 19 OFFCURVE",
"138 95 OFFCURVE",
"138 170 CURVE SMOOTH",
"138 341 OFFCURVE",
"252 412 OFFCURVE",
"373 460 CURVE SMOOTH",
"477 502 OFFCURVE",
"515 546 OFFCURVE",
"512 663 CURVE SMOOTH",
"506 850 OFFCURVE",
"685 1009 OFFCURVE",
"825 1009 CURVE SMOOTH",
"871 1009 OFFCURVE",
"904 986 OFFCURVE",
"905 936 CURVE SMOOTH",
"908 826 OFFCURVE",
"719 689 OFFCURVE",
"528 689 CURVE SMOOTH",
"292 689 OFFCURVE",
"255 792 OFFCURVE",
"263 878 CURVE SMOOTH",
"272 979 OFFCURVE",
"404 1016 OFFCURVE",
"440 1036 CURVE SMOOTH",
"463 1049 OFFCURVE",
"487 1081 OFFCURVE",
"474 1106 CURVE SMOOTH",
"459 1135 OFFCURVE",
"429 1138 OFFCURVE",
"386 1119 CURVE SMOOTH",
"329 1094 OFFCURVE",
"247 974 OFFCURVE",
"236 888 CURVE SMOOTH"
);
}
);
width = 644;
},
{
associatedMasterId = "B59D2992-18BA-4B4D-949D-9ECAC08614C3";
layerId = "B73474D8-DFCC-4D3C-9915-4D79BE766C4B";
name = "Jun 10 20, 15:49";
paths = (
{
closed = 1;
nodes = (
"622 760 OFFCURVE",
"622 734 CURVE SMOOTH",
"622 687 OFFCURVE",
"654 674 OFFCURVE",
"705 683 CURVE SMOOTH",
"851 709 OFFCURVE",
"934 819 OFFCURVE",
"931 937 CURVE SMOOTH",
"930 986 OFFCURVE",
"907 1033 OFFCURVE",
"825 1033 CURVE SMOOTH",
"666 1033 OFFCURVE",
"474 849 OFFCURVE",
"482 665 CURVE SMOOTH",
"486 555 OFFCURVE",
"452 522 OFFCURVE",
"354 483 CURVE SMOOTH",
"240 438 OFFCURVE",
"106 357 OFFCURVE",
"110 170 CURVE SMOOTH",
"112 95 OFFCURVE",
"166 -9 OFFCURVE",
"315 -9 CURVE SMOOTH",
"463 -9 OFFCURVE",
"605 107 OFFCURVE",
"767 271 CURVE",
"747 290 LINE",
"605 141 OFFCURVE",
"445 19 OFFCURVE",
"315 19 CURVE SMOOTH",
"201 19 OFFCURVE",
"138 95 OFFCURVE",
"138 170 CURVE SMOOTH",
"138 341 OFFCURVE",
"252 412 OFFCURVE",
"373 460 CURVE SMOOTH",
"477 502 OFFCURVE",
"515 546 OFFCURVE",
"512 663 CURVE SMOOTH",
"506 850 OFFCURVE",
"685 1009 OFFCURVE",
"825 1009 CURVE SMOOTH",
"871 1009 OFFCURVE",
"903 986 OFFCURVE",
"905 936 CURVE SMOOTH",
"908 836 OFFCURVE",
"856 762 OFFCURVE",
"715 752 CURVE SMOOTH",
"659 748 OFFCURVE"
);
}
);
width = 644;
},
{
associatedMasterId = "B59D2992-18BA-4B4D-949D-9ECAC08614C3";
layerId = "163F3594-A497-4512-BCE0-0F0C00D02064";
name = "Jun 10 20, 15:49";
paths = (
{
closed = 1;
nodes = (
"622 760 OFFCURVE",
"622 734 CURVE SMOOTH",
"622 687 OFFCURVE",
"654 674 OFFCURVE",
"705 683 CURVE SMOOTH",
"851 709 OFFCURVE",
"934 819 OFFCURVE",
"931 937 CURVE SMOOTH",
"930 986 OFFCURVE",
"907 1033 OFFCURVE",
"825 1033 CURVE SMOOTH",
"666 1033 OFFCURVE",
"474 849 OFFCURVE",
"482 665 CURVE SMOOTH",
"486 555 OFFCURVE",
"452 522 OFFCURVE",
"354 483 CURVE SMOOTH",
"240 438 OFFCURVE",
"106 357 OFFCURVE",
"110 170 CURVE SMOOTH",
"112 95 OFFCURVE",
"166 -9 OFFCURVE",
"315 -9 CURVE SMOOTH",
"463 -9 OFFCURVE",
"605 107 OFFCURVE",
"767 271 CURVE",
"747 290 LINE",
"605 141 OFFCURVE",
"445 19 OFFCURVE",
"315 19 CURVE SMOOTH",
"201 19 OFFCURVE",
"138 95 OFFCURVE",
"138 170 CURVE SMOOTH",
"138 341 OFFCURVE",
"252 412 OFFCURVE",
"373 460 CURVE SMOOTH",
"477 502 OFFCURVE",
"515 546 OFFCURVE",
"512 663 CURVE SMOOTH",
"506 850 OFFCURVE",
"685 1009 OFFCURVE",
"825 1009 CURVE SMOOTH",
"871 1009 OFFCURVE",
"903 986 OFFCURVE",
"905 936 CURVE SMOOTH",
"908 836 OFFCURVE",
"856 762 OFFCURVE",
"715 752 CURVE SMOOTH",
"659 748 OFFCURVE"
);
}
);
width = 644;
},
{
associatedMasterId = "B59D2992-18BA-4B4D-949D-9ECAC08614C3";
layerId = "BC5AE13F-BC91-465E-A81B-0E4626B6C7CD";
name = "Jun 16 20, 12:39";
paths = (
{
closed = 1;
nodes = (
"398 952 LINE",
"394 788 OFFCURVE",
"502 723 OFFCURVE",
"649 725 CURVE SMOOTH",
"819 727 OFFCURVE",
"949 836 OFFCURVE",
"947 939 CURVE SMOOTH",
"946 990 OFFCURVE",
"915 1033 OFFCURVE",
"833 1033 CURVE SMOOTH",
"696 1033 OFFCURVE",
"484 891 OFFCURVE",
"484 676 CURVE SMOOTH",
"484 639 OFFCURVE",
"492 599 OFFCURVE",
"513 557 CURVE",
"291 500 OFFCURVE",
"140 321 OFFCURVE",
"140 177 CURVE SMOOTH",
"140 72 OFFCURVE",
"189 -9 OFFCURVE",
"324 -9 CURVE SMOOTH",
"472 -9 OFFCURVE",
"606 91 OFFCURVE",
"767 271 CURVE",
"747 290 LINE",
"606 125 OFFCURVE",
"454 19 OFFCURVE",
"324 19 CURVE SMOOTH",
"227 19 OFFCURVE",
"169 72 OFFCURVE",
"169 177 CURVE SMOOTH",
"169 315 OFFCURVE",
"345 506 OFFCURVE",
"527 530 CURVE",
"565 493 OFFCURVE",
"585 480 OFFCURVE",
"607 480 CURVE SMOOTH",
"633 480 OFFCURVE",
"659 492 OFFCURVE",
"661 520 CURVE SMOOTH",
"663 545 OFFCURVE",
"646 565 OFFCURVE",
"612 568 CURVE SMOOTH",
"596 570 OFFCURVE",
"568 569 OFFCURVE",
"536 563 CURVE",
"517 596 OFFCURVE",
"510 645 OFFCURVE",
"510 676 CURVE SMOOTH",
"510 863 OFFCURVE",
"693 1009 OFFCURVE",
"833 1009 CURVE SMOOTH",
"879 1009 OFFCURVE",
"919 990 OFFCURVE",
"920 938 CURVE SMOOTH",
"922 847 OFFCURVE",
"806 753 OFFCURVE",
"647 750 CURVE SMOOTH",
"534 748 OFFCURVE",
"427 791 OFFCURVE",
"422 958 CURVE"
);
}
);
width = 644;
}
);
unicode = 0045;
},
{
glyphname = Eacute;
lastChange = "2021-05-01 11:01:59 +0000";
layers = (
{
layerId = "B59D2992-18BA-4B4D-949D-9ECAC08614C3";
paths = (
{
closed = 1;
nodes = (
"472 -9 OFFCURVE",
"606 91 OFFCURVE",
"767 271 CURVE",
"747 290 LINE",
"606 125 OFFCURVE",
"454 19 OFFCURVE",
"324 19 CURVE SMOOTH",
"227 19 OFFCURVE",
"169 72 OFFCURVE",
"169 177 CURVE SMOOTH",
"169 315 OFFCURVE",
"345 506 OFFCURVE",
"527 530 CURVE",
"565 493 OFFCURVE",
"585 480 OFFCURVE",
"607 480 CURVE SMOOTH",
"633 480 OFFCURVE",
"659 492 OFFCURVE",
"661 520 CURVE SMOOTH",
"663 545 OFFCURVE",
"646 565 OFFCURVE",
"612 568 CURVE SMOOTH",
"596 570 OFFCURVE",
"574 569 OFFCURVE",
"542 563 CURVE",
"521 596 OFFCURVE",
"510 645 OFFCURVE",
"510 676 CURVE SMOOTH",
"510 863 OFFCURVE",
"693 1007 OFFCURVE",
"833 1007 CURVE SMOOTH",
"879 1007 OFFCURVE",
"918 990 OFFCURVE",
"919 938 CURVE SMOOTH",
"921 847 OFFCURVE",
"793 752 OFFCURVE",
"652 750 CURVE SMOOTH",
"526 748 OFFCURVE",
"356 835 OFFCURVE",
"333 986 CURVE",
"306 979 LINE",
"327 836 OFFCURVE",
"484 719 OFFCURVE",
"649 723 CURVE SMOOTH",
"819 727 OFFCURVE",
"950 836 OFFCURVE",
"948 939 CURVE SMOOTH",
"947 990 OFFCURVE",
"915 1033 OFFCURVE",
"833 1033 CURVE SMOOTH",
"696 1033 OFFCURVE",
"484 891 OFFCURVE",
"484 676 CURVE SMOOTH",
"484 639 OFFCURVE",
"492 599 OFFCURVE",
"513 557 CURVE",
"291 500 OFFCURVE",
"140 321 OFFCURVE",
"140 177 CURVE SMOOTH",
"140 72 OFFCURVE",
"189 -9 OFFCURVE",
"324 -9 CURVE SMOOTH"
);
},
{
closed = 1;
nodes = (
"998 1242 LINE SMOOTH",
"1031 1262 OFFCURVE",
"1040 1292 OFFCURVE",
"1020 1316 CURVE SMOOTH",
"1001 1339 OFFCURVE",
"977 1337 OFFCURVE",
"944 1303 CURVE SMOOTH",
"767 1118 LINE",
"779 1105 LINE"
);
}
);
width = 644;
}
);
unicode = 00C9;
},
{
glyphname = Ecircumflex;
lastChange = "2021-05-01 11:01:59 +0000";
layers = (
{
layerId = "B59D2992-18BA-4B4D-949D-9ECAC08614C3";
paths = (
{
closed = 1;
nodes = (
"472 -9 OFFCURVE",
"606 91 OFFCURVE",
"767 271 CURVE",
"747 290 LINE",
"606 125 OFFCURVE",
"454 19 OFFCURVE",
"324 19 CURVE SMOOTH",
"227 19 OFFCURVE",
"169 72 OFFCURVE",
"169 177 CURVE SMOOTH",
"169 315 OFFCURVE",
"345 506 OFFCURVE",
"527 530 CURVE",
"565 493 OFFCURVE",
"585 480 OFFCURVE",
"607 480 CURVE SMOOTH",
"633 480 OFFCURVE",
"659 492 OFFCURVE",
"661 520 CURVE SMOOTH",
"663 545 OFFCURVE",
"646 565 OFFCURVE",
"612 568 CURVE SMOOTH",
"596 570 OFFCURVE",
"574 569 OFFCURVE",
"542 563 CURVE",
"521 596 OFFCURVE",
"510 645 OFFCURVE",
"510 676 CURVE SMOOTH",
"510 863 OFFCURVE",
"693 1007 OFFCURVE",
"833 1007 CURVE SMOOTH",
"879 1007 OFFCURVE",
"918 990 OFFCURVE",
"919 938 CURVE SMOOTH",
"921 847 OFFCURVE",
"793 752 OFFCURVE",
"652 750 CURVE SMOOTH",
"526 748 OFFCURVE",
"356 835 OFFCURVE",
"333 986 CURVE",
"306 979 LINE",
"327 836 OFFCURVE",
"484 719 OFFCURVE",
"649 723 CURVE SMOOTH",
"819 727 OFFCURVE",
"950 836 OFFCURVE",
"948 939 CURVE SMOOTH",
"947 990 OFFCURVE",
"915 1033 OFFCURVE",
"833 1033 CURVE SMOOTH",
"696 1033 OFFCURVE",
"484 891 OFFCURVE",
"484 676 CURVE SMOOTH",
"484 639 OFFCURVE",
"492 599 OFFCURVE",
"513 557 CURVE",
"291 500 OFFCURVE",
"140 321 OFFCURVE",
"140 177 CURVE SMOOTH",
"140 72 OFFCURVE",
"189 -9 OFFCURVE",
"324 -9 CURVE SMOOTH"
);
},
{
closed = 1;
nodes = (
"1072 1037 LINE",
"1035 1261 LINE SMOOTH",
"1031 1285 OFFCURVE",
"1019 1302 OFFCURVE",
"1005 1306 CURVE SMOOTH",
"992 1310 OFFCURVE",
"974 1315 OFFCURVE",
"952 1299 CURVE SMOOTH",
"746 1146 LINE",
"751 1130 LINE",
"966 1220 LINE",
"1055 1030 LINE"
);
}
);
width = 644;
}
);
unicode = 00CA;
},
{
glyphname = Edieresis;
lastChange = "2021-05-01 11:01:59 +0000";
layers = (
{
layerId = "B59D2992-18BA-4B4D-949D-9ECAC08614C3";
paths = (
{
closed = 1;
nodes = (
"472 -9 OFFCURVE",
"606 91 OFFCURVE",
"767 271 CURVE",
"747 290 LINE",
"606 125 OFFCURVE",
"454 19 OFFCURVE",
"324 19 CURVE SMOOTH",
"227 19 OFFCURVE",
"169 72 OFFCURVE",
"169 177 CURVE SMOOTH",
"169 315 OFFCURVE",
"345 506 OFFCURVE",
"527 530 CURVE",
"565 493 OFFCURVE",
"585 480 OFFCURVE",
"607 480 CURVE SMOOTH",
"633 480 OFFCURVE",
"659 492 OFFCURVE",
"661 520 CURVE SMOOTH",
"663 545 OFFCURVE",
"646 565 OFFCURVE",
"612 568 CURVE SMOOTH",
"596 570 OFFCURVE",
"574 569 OFFCURVE",
"542 563 CURVE",
"521 596 OFFCURVE",
"510 645 OFFCURVE",
"510 676 CURVE SMOOTH",
"510 863 OFFCURVE",
"693 1007 OFFCURVE",
"833 1007 CURVE SMOOTH",
"879 1007 OFFCURVE",
"918 990 OFFCURVE",
"919 938 CURVE SMOOTH",
"921 847 OFFCURVE",
"793 752 OFFCURVE",
"652 750 CURVE SMOOTH",
"526 748 OFFCURVE",
"356 835 OFFCURVE",
"333 986 CURVE",
"306 979 LINE",
"327 836 OFFCURVE",
"484 719 OFFCURVE",
"649 723 CURVE SMOOTH",
"819 727 OFFCURVE",
"950 836 OFFCURVE",
"948 939 CURVE SMOOTH",
"947 990 OFFCURVE",
"915 1033 OFFCURVE",
"833 1033 CURVE SMOOTH",
"696 1033 OFFCURVE",
"484 891 OFFCURVE",
"484 676 CURVE SMOOTH",
"484 639 OFFCURVE",
"492 599 OFFCURVE",
"513 557 CURVE",
"291 500 OFFCURVE",
"140 321 OFFCURVE",
"140 177 CURVE SMOOTH",
"140 72 OFFCURVE",
"189 -9 OFFCURVE",
"324 -9 CURVE SMOOTH"
);
},
{
closed = 1;
nodes = (
"817 1112 OFFCURVE",
"846 1117 OFFCURVE",
"863 1139 CURVE SMOOTH",
"880 1160 OFFCURVE",
"876 1189 OFFCURVE",
"856 1204 CURVE SMOOTH",
"835 1219 OFFCURVE",
"806 1215 OFFCURVE",
"789 1193 CURVE SMOOTH",
"773 1172 OFFCURVE",
"775 1142 OFFCURVE",
"797 1126 CURVE SMOOTH"
);
},
{
closed = 1;
nodes = (
"992 1112 OFFCURVE",
"1021 1117 OFFCURVE",
"1038 1139 CURVE SMOOTH",
"1055 1160 OFFCURVE",
"1051 1189 OFFCURVE",
"1031 1204 CURVE SMOOTH",
"1010 1219 OFFCURVE",
"981 1215 OFFCURVE",
"964 1193 CURVE SMOOTH",
"948 1172 OFFCURVE",
"950 1142 OFFCURVE",
"972 1126 CURVE SMOOTH"
);
}
);
width = 644;
}
);
unicode = 00CB;
},
{
glyphname = Egrave;
lastChange = "2021-05-01 11:01:59 +0000";
layers = (
{
layerId = "B59D2992-18BA-4B4D-949D-9ECAC08614C3";
paths = (
{
closed = 1;
nodes = (
"472 -9 OFFCURVE",
"606 91 OFFCURVE",
"767 271 CURVE",
"747 290 LINE",
"606 125 OFFCURVE",
"454 19 OFFCURVE",
"324 19 CURVE SMOOTH",
"227 19 OFFCURVE",
"169 72 OFFCURVE",
"169 177 CURVE SMOOTH",
"169 315 OFFCURVE",
"345 506 OFFCURVE",
"527 530 CURVE",
"565 493 OFFCURVE",
"585 480 OFFCURVE",
"607 480 CURVE SMOOTH",
"633 480 OFFCURVE",
"659 492 OFFCURVE",
"661 520 CURVE SMOOTH",
"663 545 OFFCURVE",
"646 565 OFFCURVE",
"612 568 CURVE SMOOTH",
"596 570 OFFCURVE",
"574 569 OFFCURVE",
"542 563 CURVE",
"521 596 OFFCURVE",
"510 645 OFFCURVE",
"510 676 CURVE SMOOTH",
"510 863 OFFCURVE",
"693 1007 OFFCURVE",
"833 1007 CURVE SMOOTH",
"879 1007 OFFCURVE",
"918 990 OFFCURVE",
"919 938 CURVE SMOOTH",
"921 847 OFFCURVE",
"793 752 OFFCURVE",
"652 750 CURVE SMOOTH",
"526 748 OFFCURVE",
"356 835 OFFCURVE",
"333 986 CURVE",
"306 979 LINE",
"327 836 OFFCURVE",
"484 719 OFFCURVE",
"649 723 CURVE SMOOTH",
"819 727 OFFCURVE",
"950 836 OFFCURVE",
"948 939 CURVE SMOOTH",
"947 990 OFFCURVE",
"915 1033 OFFCURVE",
"833 1033 CURVE SMOOTH",
"696 1033 OFFCURVE",
"484 891 OFFCURVE",
"484 676 CURVE SMOOTH",
"484 639 OFFCURVE",
"492 599 OFFCURVE",
"513 557 CURVE",
"291 500 OFFCURVE",
"140 321 OFFCURVE",
"140 177 CURVE SMOOTH",
"140 72 OFFCURVE",
"189 -9 OFFCURVE",
"324 -9 CURVE SMOOTH"
);
},
{
closed = 1;
nodes = (
"966 1098 LINE",
"851 1327 LINE SMOOTH",
"832 1365 OFFCURVE",
"803 1374 OFFCURVE",
"783 1361 CURVE SMOOTH",
"756 1344 OFFCURVE",
"759 1310 OFFCURVE",
"782 1284 CURVE SMOOTH",
"951 1089 LINE"
);
}
);
width = 644;
}
);
unicode = 00C8;
},
{
glyphname = F;
lastChange = "2021-05-01 11:01:59 +0000";
layers = (
{
guideLines = (
{
angle = 60;
position = "{665, 0}";
},
{
angle = 60;
position = "{632, 0}";
}
);
layerId = "B59D2992-18BA-4B4D-949D-9ECAC08614C3";
paths = (
{
closed = 1;
nodes = (
"571 -15 OFFCURVE",
"785 208 OFFCURVE",
"954 500 CURVE SMOOTH",
"1086 728 LINE SMOOTH",
"1213 947 OFFCURVE",
"1352 990 OFFCURVE",
"1420 990 CURVE SMOOTH",
"1442 990 OFFCURVE",
"1453 983 OFFCURVE",
"1453 971 CURVE SMOOTH",
"1453 945 OFFCURVE",
"1407 913 OFFCURVE",
"1288 913 CURVE SMOOTH",
"1068 913 OFFCURVE",
"893 1019 OFFCURVE",
"671 1018 CURVE SMOOTH",
"439 1017 OFFCURVE",
"327 864 OFFCURVE",
"326 728 CURVE SMOOTH",
"325 590 OFFCURVE",
"417 478 OFFCURVE",
"589 478 CURVE SMOOTH",
"745 478 OFFCURVE",
"856 612 OFFCURVE",
"849 738 CURVE",
"822 737 LINE",
"827 612 OFFCURVE",
"718 503 OFFCURVE",
"589 503 CURVE SMOOTH",
"432 503 OFFCURVE",
"353 602 OFFCURVE",
"353 728 CURVE SMOOTH",
"353 842 OFFCURVE",
"448 993 OFFCURVE",
"671 993 CURVE SMOOTH",
"893 993 OFFCURVE",
"1061 885 OFFCURVE",
"1288 885 CURVE SMOOTH",
"1430 885 OFFCURVE",
"1487 933 OFFCURVE",
"1487 970 CURVE SMOOTH",
"1487 999 OFFCURVE",
"1461 1019 OFFCURVE",
"1420 1019 CURVE SMOOTH",
"1352 1019 OFFCURVE",
"1203 989 OFFCURVE",
"1055 732 CURVE SMOOTH",
"921 500 LINE SMOOTH",
"755 211 OFFCURVE",
"559 19 OFFCURVE",
"341 19 CURVE SMOOTH",
"220 19 OFFCURVE",
"141 115 OFFCURVE",
"141 205 CURVE SMOOTH",
"141 309 OFFCURVE",
"201 344 OFFCURVE",
"224 345 CURVE SMOOTH",
"275 347 OFFCURVE",
"317 321 OFFCURVE",
"360 321 CURVE SMOOTH",
"399 321 OFFCURVE",
"435 347 OFFCURVE",
"435 385 CURVE SMOOTH",
"435 436 OFFCURVE",
"389 464 OFFCURVE",
"333 464 CURVE SMOOTH",
"229 464 OFFCURVE",
"110 380 OFFCURVE",
"110 206 CURVE SMOOTH",
"110 96 OFFCURVE",
"208 -7 OFFCURVE",
"341 -10 CURVE SMOOTH"
);
},
{
closed = 0;
nodes = (
"905 422 LINE"
);
},
{
closed = 1;
nodes = (
"947 489 OFFCURVE",
"1050 421 OFFCURVE",
"1081 414 CURVE SMOOTH",
"1100 410 OFFCURVE",
"1128 419 OFFCURVE",
"1133 441 CURVE SMOOTH",
"1138 465 OFFCURVE",
"1126 488 OFFCURVE",
"1090 495 CURVE SMOOTH",
"1028 507 OFFCURVE",
"954 491 OFFCURVE",
"883 422 CURVE",
"884 391 LINE"
);
}
);
width = 997;
},
{
associatedMasterId = "B59D2992-18BA-4B4D-949D-9ECAC08614C3";
guideLines = (
{
angle = 60;
position = "{425, 0}";
},
{
angle = 60;
position = "{392, 0}";
}
);
layerId = "E3BA971B-05BD-44C5-AB85-8BA57B8F34F4";
name = "Jun 4 20, 16:30";
paths = (
{
closed = 1;
nodes = (
"180 -10 OFFCURVE",
"255 9 OFFCURVE",
"318 42 CURVE SMOOTH",
"460 116 OFFCURVE",
"543 266 OFFCURVE",
"635 422 CURVE SMOOTH",
"766 644 OFFCURVE",
"897 899 OFFCURVE",
"979 969 CURVE SMOOTH",
"1093 1066 OFFCURVE",
"1209 1055 OFFCURVE",
"1209 1007 CURVE SMOOTH",
"1209 958 OFFCURVE",
"1137 935 OFFCURVE",
"1008 939 CURVE SMOOTH",
"817 945 OFFCURVE",
"641 989 OFFCURVE",
"383 989 CURVE SMOOTH",
"236 989 OFFCURVE",
"131 787 OFFCURVE",
"385 703 CURVE",
"373 679 LINE",
"88 769 OFFCURVE",
"200 1019 OFFCURVE",
"380 1020 CURVE SMOOTH",
"609 1021 OFFCURVE",
"808 973 OFFCURVE",
"1009 969 CURVE SMOOTH",
"1133 967 OFFCURVE",
"1179 985 OFFCURVE",
"1179 1000 CURVE SMOOTH",
"1179 1024 OFFCURVE",
"1088 1015 OFFCURVE",
"1012 959 CURVE SMOOTH",
"928 897 OFFCURVE",
"801 652 OFFCURVE",
"670 425 CURVE SMOOTH",
"573 257 OFFCURVE",
"478 91 OFFCURVE",
"329 15 CURVE SMOOTH",
"257 -22 OFFCURVE",
"156 -34 OFFCURVE",
"91 -5 CURVE SMOOTH",
"-7 39 OFFCURVE",
"-33 160 OFFCURVE",
"-5 229 CURVE SMOOTH",
"11 268 OFFCURVE",
"46 294 OFFCURVE",
"80 276 CURVE SMOOTH",
"107 262 OFFCURVE",
"106 222 OFFCURVE",
"94 198 CURVE SMOOTH",
"77 165 OFFCURVE",
"33 55 OFFCURVE",
"110 21 CURVE SMOOTH"
);
},
{
closed = 1;
nodes = (
"638 425 LINE",
"709 494 OFFCURVE",
"784 502 OFFCURVE",
"846 490 CURVE SMOOTH",
"882 483 OFFCURVE",
"896 465 OFFCURVE",
"891 441 CURVE SMOOTH",
"886 419 OFFCURVE",
"858 410 OFFCURVE",
"839 414 CURVE SMOOTH",
"808 421 OFFCURVE",
"710 489 OFFCURVE",
"647 391 CURVE"
);
}
);
width = 727;
},
{
associatedMasterId = "B59D2992-18BA-4B4D-949D-9ECAC08614C3";
guideLines = (
{
angle = 60;
position = "{665, 0}";
},
{
angle = 60;
position = "{632, 0}";
}
);
layerId = "6366224C-0B8F-4A03-9763-7236B94A11B5";
name = "Jun 9 20, 09:53";
paths = (
{
closed = 1;
nodes = (
"875 425 LINE",
"946 494 OFFCURVE",
"1028 507 OFFCURVE",
"1090 495 CURVE SMOOTH",
"1126 488 OFFCURVE",
"1138 465 OFFCURVE",
"1133 441 CURVE SMOOTH",
"1128 419 OFFCURVE",
"1100 410 OFFCURVE",
"1081 414 CURVE SMOOTH",
"1050 421 OFFCURVE",
"947 489 OFFCURVE",
"884 391 CURVE"
);
},
{
closed = 0;
nodes = (
"905 422 LINE"
);
},
{
closed = 1;
nodes = (
"518 679 OFFCURVE",
"474 762 OFFCURVE",
"475 854 CURVE SMOOTH",
"476 932 OFFCURVE",
"556 1018 OFFCURVE",
"650 1019 CURVE SMOOTH",
"879 1020 OFFCURVE",
"1125 965 OFFCURVE",
"1326 958 CURVE SMOOTH",
"1355 957 OFFCURVE",
"1380 972 OFFCURVE",
"1380 988 CURVE SMOOTH",
"1380 998 OFFCURVE",
"1351 1003 OFFCURVE",
"1332 1003 CURVE SMOOTH",
"1296 1003 OFFCURVE",
"1225 969 OFFCURVE",
"1151 841 CURVE SMOOTH",
"954 500 LINE SMOOTH",
"785 208 OFFCURVE",
"571 -15 OFFCURVE",
"341 -10 CURVE SMOOTH",
"208 -7 OFFCURVE",
"110 96 OFFCURVE",
"110 206 CURVE SMOOTH",
"110 380 OFFCURVE",
"229 464 OFFCURVE",
"333 464 CURVE SMOOTH",
"389 464 OFFCURVE",
"435 436 OFFCURVE",
"435 385 CURVE SMOOTH",
"435 347 OFFCURVE",
"399 321 OFFCURVE",
"360 321 CURVE SMOOTH",
"317 321 OFFCURVE",
"275 347 OFFCURVE",
"224 345 CURVE SMOOTH",
"201 344 OFFCURVE",
"141 309 OFFCURVE",
"141 205 CURVE SMOOTH",
"141 115 OFFCURVE",
"220 19 OFFCURVE",
"341 19 CURVE SMOOTH",
"559 19 OFFCURVE",
"755 211 OFFCURVE",
"921 500 CURVE SMOOTH",
"1118 842 LINE SMOOTH",
"1203 989 OFFCURVE",
"1264 1034 OFFCURVE",
"1332 1034 CURVE SMOOTH",
"1365 1034 OFFCURVE",
"1420 1020 OFFCURVE",
"1420 988 CURVE SMOOTH",
"1420 961 OFFCURVE",
"1403 927 OFFCURVE",
"1325 929 CURVE SMOOTH",
"1134 934 OFFCURVE",
"911 996 OFFCURVE",
"653 993 CURVE SMOOTH",
"567 992 OFFCURVE",
"500 916 OFFCURVE",
"500 854 CURVE SMOOTH",
"500 774 OFFCURVE",
"529 703 OFFCURVE",
"647 703 CURVE SMOOTH",
"688 703 OFFCURVE",
"734 724 OFFCURVE",
"744 753 CURVE",
"771 742 LINE",
"758 698 OFFCURVE",
"691 679 OFFCURVE",
"651 679 CURVE SMOOTH"
);
}
);
width = 997;
}
);
unicode = 0046;
},
{
glyphname = G;
lastChange = "2021-05-01 11:01:59 +0000";
layers = (
{
associatedMasterId = "B59D2992-18BA-4B4D-949D-9ECAC08614C3";
layerId = "3B90D7F1-E779-4F15-9C4F-D8A8BDB6E80B";
name = "Mar 4 20, 10:41";
paths = (
{
closed = 1;
nodes = (
"55 -354 OFFCURVE",
"124 -370 OFFCURVE",
"189 -313 CURVE SMOOTH",
"231 -277 OFFCURVE",
"258 -265 OFFCURVE",
"379 -72 CURVE",
"235 -114 LINE SMOOTH",
"96 -154 OFFCURVE",
"-2 -249 OFFCURVE",
"35 -317 CURVE SMOOTH"
);
},
{
closed = 1;
nodes = (
"592 230 LINE",
"535 175 OFFCURVE",
"423 -21 OFFCURVE",
"240 0 CURVE SMOOTH",
"35 24 OFFCURVE",
"26 330 OFFCURVE",
"138 549 CURVE SMOOTH",
"331 927 OFFCURVE",
"560 1015 OFFCURVE",
"686 1012 CURVE SMOOTH",
"801 1009 OFFCURVE",
"874 938 OFFCURVE",
"881 841 CURVE",
"853 841 LINE",
"845 920 OFFCURVE",
"783 981 OFFCURVE",
"688 985 CURVE SMOOTH",
"530 992 OFFCURVE",
"318 846 OFFCURVE",
"165 542 CURVE SMOOTH",
"86 386 OFFCURVE",
"37 53 OFFCURVE",
"248 25 CURVE SMOOTH",
"393 6 OFFCURVE",
"523 191 OFFCURVE",
"571 251 CURVE"
);
},
{
closed = 1;
nodes = (
"853 841 LINE",
"855 789 OFFCURVE",
"852 764 OFFCURVE",
"834 724 CURVE SMOOTH",
"782 608 OFFCURVE",
"665 617 OFFCURVE",
"624 611 CURVE SMOOTH",
"598 607 OFFCURVE",
"567 583 OFFCURVE",
"571 555 CURVE SMOOTH",
"576 523 OFFCURVE",
"604 508 OFFCURVE",
"651 515 CURVE SMOOTH",
"713 524 OFFCURVE",
"812 602 OFFCURVE",
"858 704 CURVE SMOOTH",
"880 753 OFFCURVE",
"883 808 OFFCURVE",
"881 841 CURVE"
);
},
{
closed = 1;
nodes = (
"606 317 LINE SMOOTH",
"637 372 OFFCURVE",
"691 434 OFFCURVE",
"718 410 CURVE SMOOTH",
"753 378 OFFCURVE",
"675 322 OFFCURVE",
"598 240 CURVE",
"439 -23 LINE",
"666 46 OFFCURVE",
"698 91 OFFCURVE",
"877 290 CURVE",
"897 271 LINE",
"699 50 OFFCURVE",
"675 16 OFFCURVE",
"420 -57 CURVE",
"334 -199 OFFCURVE",
"281 -277 OFFCURVE",
"201 -339 CURVE SMOOTH",
"117 -404 OFFCURVE",
"36 -377 OFFCURVE",
"11 -331 CURVE SMOOTH",
"-24 -266 OFFCURVE",
"22 -148 OFFCURVE",
"225 -88 CURVE SMOOTH",
"395 -38 LINE",
"428 14 OFFCURVE",
"471 83 OFFCURVE",
"518 162 CURVE"
);
}
);
width = 774;
},
{
associatedMasterId = "B59D2992-18BA-4B4D-949D-9ECAC08614C3";
layerId = "B0C0DBE1-E081-4BFF-B28C-3AB75715D4D5";
name = "Jun 8 20, 22:31";
paths = (
{
closed = 1;
nodes = (
"1106 850 LINE",
"1098 922 OFFCURVE",
"1047 994 OFFCURVE",
"952 995 CURVE SMOOTH",
"818 996 OFFCURVE",
"606 859 OFFCURVE",
"451 607 CURVE SMOOTH",
"303 366 OFFCURVE",
"290 23 OFFCURVE",
"517 19 CURVE SMOOTH",
"619 17 OFFCURVE",
"751 106 OFFCURVE",
"885 261 CURVE SMOOTH",
"889 266 OFFCURVE",
"898 275 OFFCURVE",
"930 310 CURVE SMOOTH",
"971 354 OFFCURVE",
"1023 405 OFFCURVE",
"928 271 CURVE",
"908 289 LINE",
"925 319 OFFCURVE",
"982 448 OFFCURVE",
"1015 446 CURVE SMOOTH",
"1079 442 OFFCURVE",
"952 300 OFFCURVE",
"901 240 CURVE SMOOTH",
"757 70 OFFCURVE",
"639 -9 OFFCURVE",
"516 -9 CURVE SMOOTH",
"290 -9 OFFCURVE",
"240 305 OFFCURVE",
"428 618 CURVE SMOOTH",
"598 900 OFFCURVE",
"821 1019 OFFCURVE",
"947 1021 CURVE SMOOTH",
"1062 1023 OFFCURVE",
"1124 947 OFFCURVE",
"1131 850 CURVE"
);
},
{
closed = 1;
nodes = (
"1106 850 LINE",
"1108 798 OFFCURVE",
"1102 773 OFFCURVE",
"1084 733 CURVE SMOOTH",
"1033 616 OFFCURVE",
"915 627 OFFCURVE",
"874 620 CURVE SMOOTH",
"848 616 OFFCURVE",
"817 592 OFFCURVE",
"821 564 CURVE SMOOTH",
"826 532 OFFCURVE",
"854 517 OFFCURVE",
"901 524 CURVE SMOOTH",
"963 533 OFFCURVE",
"1063 611 OFFCURVE",
"1108 713 CURVE SMOOTH",
"1129 762 OFFCURVE",
"1133 817 OFFCURVE",
"1131 850 CURVE"
);
},
{
closed = 1;
nodes = (
"202 -422 OFFCURVE",
"217 -355 OFFCURVE",
"213 -314 CURVE SMOOTH",
"209 -276 OFFCURVE",
"189 -259 OFFCURVE",
"163 -258 CURVE SMOOTH",
"139 -258 OFFCURVE",
"112 -276 OFFCURVE",
"110 -314 CURVE SMOOTH",
"105 -401 OFFCURVE",
"201 -458 OFFCURVE",
"307 -456 CURVE",
"310 -425 LINE"
);
},
{
closed = 1;
nodes = (
"310 -425 LINE",
"451 -425 OFFCURVE",
"562 -299 OFFCURVE",
"662 -133 CURVE",
"908 289 LINE",
"928 271 LINE",
"686 -146 LINE",
"577 -335 OFFCURVE",
"453 -456 OFFCURVE",
"307 -456 CURVE"
);
}
);
width = 1016;
},
{
associatedMasterId = "B59D2992-18BA-4B4D-949D-9ECAC08614C3";
layerId = "4B2126AF-FBF6-4E6C-B993-389EDB695B38";
name = "Jun 10 20, 15:05";
paths = (
{
closed = 1;
nodes = (
"149 -351 OFFCURVE",
"166 -351 CURVE SMOOTH",
"248 -351 OFFCURVE",
"329 -248 OFFCURVE",
"403 -147 CURVE",
"299 -213 OFFCURVE",
"136 -263 OFFCURVE",
"136 -326 CURVE SMOOTH",
"136 -343 OFFCURVE"
);
},
{
closed = 1;
nodes = (
"661 240 LINE",
"463 -86 LINE",
"656 37 OFFCURVE",
"785 158 OFFCURVE",
"911 290 CURVE",
"931 270 LINE",
"733 74 OFFCURVE",
"680 29 OFFCURVE",
"444 -129 CURVE",
"367 -241 OFFCURVE",
"270 -377 OFFCURVE",
"167 -377 CURVE SMOOTH",
"134 -377 OFFCURVE",
"110 -357 OFFCURVE",
"110 -326 CURVE SMOOTH",
"110 -256 OFFCURVE",
"210 -228 OFFCURVE",
"421 -107 CURVE",
"454 -55 OFFCURVE",
"590 175 OFFCURVE",
"637 254 CURVE"
);
},
{
closed = 1;
nodes = (
"934 849 LINE",
"931 940 OFFCURVE",
"877 997 OFFCURVE",
"791 997 CURVE SMOOTH",
"549 997 OFFCURVE",
"194 620 OFFCURVE",
"194 258 CURVE SMOOTH",
"194 69 OFFCURVE",
"305 16 OFFCURVE",
"374 16 CURVE SMOOTH",
"497 16 OFFCURVE",
"576 146 OFFCURVE",
"637 254 CURVE",
"661 240 LINE",
"565 97 OFFCURVE",
"508 -11 OFFCURVE",
"374 -11 CURVE SMOOTH",
"288 -11 OFFCURVE",
"165 52 OFFCURVE",
"166 254 CURVE SMOOTH",
"168 629 OFFCURVE",
"525 1021 OFFCURVE",
"788 1021 CURVE SMOOTH",
"907 1021 OFFCURVE",
"957 940 OFFCURVE",
"958 849 CURVE"
);
},
{
closed = 1;
nodes = (
"934 849 LINE",
"934 782 OFFCURVE",
"908 732 OFFCURVE",
"881 697 CURVE SMOOTH",
"803 596 OFFCURVE",
"690 638 OFFCURVE",
"649 641 CURVE SMOOTH",
"622 643 OFFCURVE",
"586 635 OFFCURVE",
"584 601 CURVE SMOOTH",
"582 569 OFFCURVE",
"603 547 OFFCURVE",
"651 542 CURVE SMOOTH",
"712 536 OFFCURVE",
"828 587 OFFCURVE",
"897 675 CURVE SMOOTH",
"930 717 OFFCURVE",
"957 772 OFFCURVE",
"958 849 CURVE"
);
}
);
width = 808;
},
{
associatedMasterId = "B59D2992-18BA-4B4D-949D-9ECAC08614C3";
layerId = "89BB1591-6B08-4808-A055-18FB6564E2B2";
name = "Jun 10 20, 15:11";
paths = (
{
closed = 1;
nodes = (
"112 -343 OFFCURVE",
"125 -351 OFFCURVE",
"142 -351 CURVE SMOOTH",
"224 -351 OFFCURVE",
"305 -248 OFFCURVE",
"379 -147 CURVE",
"275 -213 OFFCURVE",
"112 -263 OFFCURVE",
"112 -326 CURVE SMOOTH"
);
},
{
closed = 1;
nodes = (
"675 351 LINE",
"439 -86 LINE",
"632 37 OFFCURVE",
"785 158 OFFCURVE",
"911 290 CURVE",
"931 270 LINE",
"733 74 OFFCURVE",
"656 29 OFFCURVE",
"420 -129 CURVE",
"343 -241 OFFCURVE",
"246 -377 OFFCURVE",
"143 -377 CURVE SMOOTH",
"110 -377 OFFCURVE",
"86 -357 OFFCURVE",
"86 -326 CURVE SMOOTH",
"86 -256 OFFCURVE",
"186 -228 OFFCURVE",
"397 -107 CURVE",
"430 -55 OFFCURVE",
"604 286 OFFCURVE",
"651 365 CURVE"
);
},
{
closed = 1;
nodes = (
"172 57 OFFCURVE",
"215 16 OFFCURVE",
"284 16 CURVE SMOOTH",
"397 16 OFFCURVE",
"590 257 OFFCURVE",
"651 365 CURVE",
"675 351 LINE",
"579 208 OFFCURVE",
"408 -11 OFFCURVE",
"284 -11 CURVE SMOOTH",
"198 -11 OFFCURVE",
"143 40 OFFCURVE",
"144 212 CURVE SMOOTH",
"146 561 OFFCURVE",
"496 1019 OFFCURVE",
"777 1019 CURVE SMOOTH",
"878 1019 OFFCURVE",
"950 955 OFFCURVE",
"950 854 CURVE SMOOTH",
"950 682 OFFCURVE",
"754 526 OFFCURVE",
"623 529 CURVE SMOOTH",
"581 530 OFFCURVE",
"554 550 OFFCURVE",
"554 582 CURVE SMOOTH",
"554 610 OFFCURVE",
"576 635 OFFCURVE",
"617 627 CURVE SMOOTH",
"777 596 OFFCURVE",
"923 707 OFFCURVE",
"923 854 CURVE SMOOTH",
"923 938 OFFCURVE",
"865 992 OFFCURVE",
"778 993 CURVE SMOOTH",
"514 996 OFFCURVE",
"172 551 OFFCURVE",
"172 206 CURVE SMOOTH"
);
}
);
width = 808;
},
{
layerId = "B59D2992-18BA-4B4D-949D-9ECAC08614C3";
paths = (
{
closed = 1;
nodes = (
"374 -287 OFFCURVE",
"612 -194 OFFCURVE",
"825 248 CURVE",
"954 360 LINE SMOOTH",
"1004 403 OFFCURVE",
"1014 460 OFFCURVE",
"975 482 CURVE SMOOTH",
"925 510 OFFCURVE",
"886 465 OFFCURVE",
"864 414 CURVE SMOOTH",
"800 266 LINE",
"619 108 OFFCURVE",
"495 32 OFFCURVE",
"377 32 CURVE SMOOTH",
"285 32 OFFCURVE",
"244 115 OFFCURVE",
"244 222 CURVE SMOOTH",
"244 595 OFFCURVE",
"636 991 OFFCURVE",
"991 991 CURVE SMOOTH",
"1129 991 OFFCURVE",
"1183 912 OFFCURVE",
"1183 837 CURVE SMOOTH",
"1183 723 OFFCURVE",
"1046 611 OFFCURVE",
"856 589 CURVE",
"857 556 LINE",
"1067 581 OFFCURVE",
"1214 697 OFFCURVE",
"1214 839 CURVE SMOOTH",
"1214 942 OFFCURVE",
"1141 1018 OFFCURVE",
"988 1018 CURVE SMOOTH",
"614 1018 OFFCURVE",
"215 607 OFFCURVE",
"215 224 CURVE SMOOTH",
"215 90 OFFCURVE",
"269 2 OFFCURVE",
"380 2 CURVE SMOOTH",
"487 2 OFFCURVE",
"627 75 OFFCURVE",
"768 204 CURVE",
"590 -161 OFFCURVE",
"362 -257 OFFCURVE",
"239 -257 CURVE SMOOTH",
"169 -257 OFFCURVE",
"141 -220 OFFCURVE",
"141 -184 CURVE SMOOTH",
"141 -127 OFFCURVE",
"187 -103 OFFCURVE",
"288 -98 CURVE SMOOTH",
"767 -74 OFFCURVE",
"935 34 OFFCURVE",
"1147 271 CURVE",
"1127 290 LINE",
"915 55 OFFCURVE",
"760 -41 OFFCURVE",
"288 -71 CURVE SMOOTH",
"159 -79 OFFCURVE",
"110 -118 OFFCURVE",
"110 -183 CURVE SMOOTH",
"110 -244 OFFCURVE",
"162 -287 OFFCURVE",
"240 -287 CURVE SMOOTH"
);
}
);
width = 1024;
},
{
associatedMasterId = "B59D2992-18BA-4B4D-949D-9ECAC08614C3";
layerId = "64920063-476E-444F-996A-AC6EA9DFBC2D";
name = "Jun 10 20, 15:11";
paths = (
{
closed = 1;
nodes = (
"25 -266 OFFCURVE",
"71 -148 OFFCURVE",
"274 -88 CURVE SMOOTH",
"444 -38 LINE",
"477 14 OFFCURVE",
"520 83 OFFCURVE",
"567 162 CURVE",
"544 144 LINE SMOOTH",
"427 52 OFFCURVE",
"321 -15 OFFCURVE",
"208 6 CURVE SMOOTH",
"-38 52 OFFCURVE",
"-46 317 OFFCURVE",
"83 558 CURVE SMOOTH",
"315 992 OFFCURVE",
"616 1028 OFFCURVE",
"724 1016 CURVE SMOOTH",
"907 996 OFFCURVE",
"936 873 OFFCURVE",
"936 800 CURVE SMOOTH",
"936 585 OFFCURVE",
"652 461 OFFCURVE",
"575 542 CURVE",
"599 565 LINE",
"662 508 OFFCURVE",
"909 609 OFFCURVE",
"909 796 CURVE SMOOTH",
"909 835 OFFCURVE",
"896 965 OFFCURVE",
"732 988 CURVE SMOOTH",
"599 1007 OFFCURVE",
"318 932 OFFCURVE",
"110 551 CURVE SMOOTH",
"27 400 OFFCURVE",
"-58 88 OFFCURVE",
"214 35 CURVE SMOOTH",
"310 17 OFFCURVE",
"424 82 OFFCURVE",
"531 172 CURVE SMOOTH",
"554 191 OFFCURVE",
"581 215 OFFCURVE",
"609 239 CURVE",
"655 317 LINE SMOOTH",
"787 549 OFFCURVE",
"872 508 OFFCURVE",
"825 423 CURVE SMOOTH",
"787 353 OFFCURVE",
"709 280 OFFCURVE",
"635 218 CURVE",
"579 121 OFFCURVE",
"533 43 OFFCURVE",
"494 -23 CURVE",
"744 56 OFFCURVE",
"764 88 OFFCURVE",
"946 290 CURVE",
"966 271 LINE",
"787 72 OFFCURVE",
"740 19 OFFCURVE",
"472 -58 CURVE",
"386 -200 OFFCURVE",
"330 -277 OFFCURVE",
"250 -339 CURVE SMOOTH",
"166 -404 OFFCURVE",
"85 -377 OFFCURVE",
"60 -331 CURVE SMOOTH"
);
},
{
closed = 1;
nodes = (
"104 -352 OFFCURVE",
"176 -363 OFFCURVE",
"240 -310 CURVE SMOOTH",
"283 -275 OFFCURVE",
"300 -268 OFFCURVE",
"421 -75 CURVE",
"274 -114 LINE SMOOTH",
"166 -143 OFFCURVE",
"47 -247 OFFCURVE",
"84 -315 CURVE SMOOTH"
);
}
);
width = 843;
},
{
associatedMasterId = "B59D2992-18BA-4B4D-949D-9ECAC08614C3";
layerId = "CBD7E683-2E6F-4BAA-82CD-1984A37AE7A6";
name = "Jun 10 20, 15:23";
paths = (
{
closed = 1;
nodes = (
"271 -348 OFFCURVE",
"410 -156 OFFCURVE",
"587 204 CURVE",
"446 75 OFFCURVE",
"306 2 OFFCURVE",
"199 2 CURVE SMOOTH",
"88 2 OFFCURVE",
"34 90 OFFCURVE",
"34 224 CURVE SMOOTH",
"34 607 OFFCURVE",
"407 1018 OFFCURVE",
"781 1018 CURVE SMOOTH",
"938 1018 OFFCURVE",
"1033 951 OFFCURVE",
"1033 824 CURVE SMOOTH",
"1033 654 OFFCURVE",
"845 509 OFFCURVE",
"622 549 CURVE",
"627 581 LINE",
"832 541 OFFCURVE",
"1003 670 OFFCURVE",
"1003 822 CURVE SMOOTH",
"1003 925 OFFCURVE",
"928 991 OFFCURVE",
"784 991 CURVE SMOOTH",
"429 991 OFFCURVE",
"63 595 OFFCURVE",
"63 222 CURVE SMOOTH",
"63 115 OFFCURVE",
"104 32 OFFCURVE",
"196 32 CURVE SMOOTH",
"314 32 OFFCURVE",
"438 108 OFFCURVE",
"619 266 CURVE",
"679 401 LINE SMOOTH",
"705 460 OFFCURVE",
"741 510 OFFCURVE",
"794 482 CURVE SMOOTH",
"832 462 OFFCURVE",
"822 400 OFFCURVE",
"772 357 CURVE SMOOTH",
"642 245 LINE",
"409 -207 OFFCURVE",
"283 -378 OFFCURVE",
"149 -378 CURVE SMOOTH",
"93 -378 OFFCURVE",
"49 -342 OFFCURVE",
"49 -287 CURVE SMOOTH",
"49 -222 OFFCURVE",
"109 -127 OFFCURVE",
"274 -79 CURVE SMOOTH",
"653 31 OFFCURVE",
"742 62 OFFCURVE",
"946 290 CURVE",
"966 271 LINE",
"762 41 OFFCURVE",
"664 3 OFFCURVE",
"274 -105 CURVE SMOOTH",
"177 -132 OFFCURVE",
"77 -222 OFFCURVE",
"77 -288 CURVE SMOOTH",
"77 -325 OFFCURVE",
"109 -348 OFFCURVE",
"148 -348 CURVE SMOOTH"
);
}
);
width = 843;
},
{
associatedMasterId = "B59D2992-18BA-4B4D-949D-9ECAC08614C3";
layerId = "DBD66504-16A9-431A-9306-9C1B37A87852";
name = "Jun 10 20, 15:28";
paths = (
{
closed = 1;
nodes = (
"181 -257 OFFCURVE",
"409 -161 OFFCURVE",
"587 204 CURVE",
"446 75 OFFCURVE",
"306 2 OFFCURVE",
"199 2 CURVE SMOOTH",
"88 2 OFFCURVE",
"34 90 OFFCURVE",
"34 224 CURVE SMOOTH",
"34 607 OFFCURVE",
"407 1018 OFFCURVE",
"781 1018 CURVE SMOOTH",
"938 1018 OFFCURVE",
"1033 951 OFFCURVE",
"1033 824 CURVE SMOOTH",
"1033 654 OFFCURVE",
"845 509 OFFCURVE",
"622 549 CURVE",
"627 581 LINE",
"832 541 OFFCURVE",
"1003 670 OFFCURVE",
"1003 822 CURVE SMOOTH",
"1003 925 OFFCURVE",
"928 991 OFFCURVE",
"784 991 CURVE SMOOTH",
"429 991 OFFCURVE",
"63 595 OFFCURVE",
"63 222 CURVE SMOOTH",
"63 115 OFFCURVE",
"104 32 OFFCURVE",
"196 32 CURVE SMOOTH",
"314 32 OFFCURVE",
"438 108 OFFCURVE",
"619 266 CURVE",
"679 401 LINE SMOOTH",
"705 460 OFFCURVE",
"741 510 OFFCURVE",
"794 482 CURVE SMOOTH",
"832 462 OFFCURVE",
"822 400 OFFCURVE",
"772 357 CURVE SMOOTH",
"644 248 LINE",
"431 -194 OFFCURVE",
"193 -287 OFFCURVE",
"59 -287 CURVE SMOOTH",
"-19 -287 OFFCURVE",
"-71 -244 OFFCURVE",
"-71 -183 CURVE SMOOTH",
"-71 -118 OFFCURVE",
"-22 -79 OFFCURVE",
"107 -71 CURVE SMOOTH",
"579 -41 OFFCURVE",
"734 55 OFFCURVE",
"946 290 CURVE",
"966 271 LINE",
"754 34 OFFCURVE",
"586 -74 OFFCURVE",
"107 -98 CURVE SMOOTH",
"6 -103 OFFCURVE",
"-40 -127 OFFCURVE",
"-40 -184 CURVE SMOOTH",
"-40 -220 OFFCURVE",
"-12 -257 OFFCURVE",
"58 -257 CURVE SMOOTH"
);
}
);
width = 843;
}
);
unicode = 0047;
},
{
glyphname = H;
lastChange = "2021-05-01 11:01:59 +0000";
layers = (
{
associatedMasterId = "B59D2992-18BA-4B4D-949D-9ECAC08614C3";
guideLines = (
{
angle = 60;
position = "{461, 0}";
},
{
angle = 60;
position = "{428, 0}";
},
{
angle = 60;
position = "{738, -40}";
},
{
angle = 60;
position = "{705, -40}";
}
);
layerId = "4BA3129F-B66E-47F6-9485-22E2A963E9B4";
name = "May 31 20, 15:45";
paths = (
{
closed = 1;
nodes = (
"270 352 OFFCURVE",
"266 289 OFFCURVE",
"293 253 CURVE SMOOTH",
"309 232 OFFCURVE",
"345 216 OFFCURVE",
"366 232 CURVE SMOOTH",
"393 252 OFFCURVE",
"393 282 OFFCURVE",
"367 321 CURVE SMOOTH",
"332 374 OFFCURVE",
"250 391 OFFCURVE",
"166 389 CURVE SMOOTH",
"95 387 OFFCURVE",
"-10 329 OFFCURVE",
"-10 181 CURVE SMOOTH",
"-10 32 OFFCURVE",
"113 -21 OFFCURVE",
"236 -19 CURVE SMOOTH",
"392 -16 OFFCURVE",
"513 104 OFFCURVE",
"576 201 CURVE",
"605 248 OFFCURVE",
"636 304 OFFCURVE",
"705 423 CURVE SMOOTH",
"1028 980 OFFCURVE",
"1087 1045 OFFCURVE",
"989 1046 CURVE SMOOTH",
"838 1047 OFFCURVE",
"681 1035 OFFCURVE",
"597 962 CURVE SMOOTH",
"450 834 OFFCURVE",
"487 748 OFFCURVE",
"572 757 CURVE",
"559 784 LINE",
"506 784 OFFCURVE",
"539 873 OFFCURVE",
"622 941 CURVE SMOOTH",
"723 1024 OFFCURVE",
"967 1013 OFFCURVE",
"979 1012 CURVE SMOOTH",
"1027 1008 OFFCURVE",
"973 954 OFFCURVE",
"675 428 CURVE SMOOTH",
"639 364 OFFCURVE",
"596 289 OFFCURVE",
"557 224 CURVE SMOOTH",
"487 108 OFFCURVE",
"382 9 OFFCURVE",
"236 9 CURVE SMOOTH",
"127 9 OFFCURVE",
"18 63 OFFCURVE",
"18 181 CURVE SMOOTH",
"18 281 OFFCURVE",
"74 356 OFFCURVE",
"164 354 CURVE SMOOTH"
);
},
{
closed = 1;
nodes = (
"1804 1006 OFFCURVE",
"1672 1089 OFFCURVE",
"1565 1075 CURVE SMOOTH",
"1425 1056 OFFCURVE",
"1313 962 OFFCURVE",
"1180 767 CURVE SMOOTH",
"1127 690 OFFCURVE",
"1071 592 OFFCURVE",
"1008 485 CURVE SMOOTH",
"928 349 OFFCURVE",
"837 188 OFFCURVE",
"728 0 CURVE",
"761 0 LINE",
"865 183 OFFCURVE",
"958 342 OFFCURVE",
"1037 478 CURVE SMOOTH",
"1099 583 OFFCURVE",
"1151 681 OFFCURVE",
"1205 758 CURVE SMOOTH",
"1330 937 OFFCURVE",
"1439 1029 OFFCURVE",
"1566 1047 CURVE SMOOTH",
"1659 1060 OFFCURVE",
"1777 991 OFFCURVE",
"1777 908 CURVE",
"1804 914 LINE"
);
},
{
closed = 1;
nodes = (
"914 353 OFFCURVE",
"742 534 OFFCURVE",
"611 534 CURVE SMOOTH",
"533 534 OFFCURVE",
"493 473 OFFCURVE",
"493 407 CURVE SMOOTH",
"493 290 OFFCURVE",
"656 130 OFFCURVE",
"811 130 CURVE SMOOTH",
"916 130 OFFCURVE",
"989 153 OFFCURVE",
"1095 271 CURVE",
"1075 291 LINE",
"979 183 OFFCURVE",
"899 157 OFFCURVE",
"812 157 CURVE SMOOTH",
"698 157 OFFCURVE",
"524 283 OFFCURVE",
"524 407 CURVE SMOOTH",
"524 473 OFFCURVE",
"554 505 OFFCURVE",
"609 505 CURVE SMOOTH",
"701 505 OFFCURVE",
"893 357 OFFCURVE",
"779 75 CURVE",
"800 70 LINE"
);
}
);
width = 971;
},
{
guideLines = (
{
angle = 60;
position = "{671, -12}";
},
{
angle = 60;
position = "{701, -21}";
},
{
angle = 60;
position = "{968, -52}";
},
{
angle = 60;
position = "{998, -61}";
}
);
layerId = "B59D2992-18BA-4B4D-949D-9ECAC08614C3";
paths = (
{
closed = 1;
nodes = (
"647 -8 OFFCURVE",
"776 108 OFFCURVE",
"972 448 CURVE SMOOTH",
"1080 636 OFFCURVE",
"1160 772 OFFCURVE",
"1263 954 CURVE SMOOTH",
"1289 1001 OFFCURVE",
"1268 1017 OFFCURVE",
"1209 1019 CURVE SMOOTH",
"964 1028 OFFCURVE",
"864 867 OFFCURVE",
"837 790 CURVE",
"866 782 LINE",
"889 846 OFFCURVE",
"985 998 OFFCURVE",
"1206 991 CURVE SMOOTH",
"1238 990 OFFCURVE",
"1249 989 OFFCURVE",
"1236 967 CURVE SMOOTH",
"1135 791 OFFCURVE",
"1054 652 OFFCURVE",
"939 453 CURVE SMOOTH",
"775 169 OFFCURVE",
"637 19 OFFCURVE",
"361 19 CURVE SMOOTH",
"220 19 OFFCURVE",
"141 115 OFFCURVE",
"141 205 CURVE SMOOTH",
"141 309 OFFCURVE",
"201 344 OFFCURVE",
"254 345 CURVE SMOOTH",
"305 346 OFFCURVE",
"317 321 OFFCURVE",
"360 321 CURVE SMOOTH",
"399 321 OFFCURVE",
"435 347 OFFCURVE",
"435 385 CURVE SMOOTH",
"435 436 OFFCURVE",
"389 464 OFFCURVE",
"333 464 CURVE SMOOTH",
"229 464 OFFCURVE",
"110 380 OFFCURVE",
"110 206 CURVE SMOOTH",
"110 96 OFFCURVE",
"208 -11 OFFCURVE",
"361 -10 CURVE SMOOTH"
);
},
{
closed = 1;
nodes = (
"1058 79 LINE",
"1107 349 OFFCURVE",
"960 558 OFFCURVE",
"826 558 CURVE SMOOTH",
"739 558 OFFCURVE",
"700 501 OFFCURVE",
"700 435 CURVE SMOOTH",
"700 281 OFFCURVE",
"934 150 OFFCURVE",
"1111 150 CURVE SMOOTH",
"1204 150 OFFCURVE",
"1301 198 OFFCURVE",
"1374 270 CURVE",
"1354 290 LINE",
"1267 209 OFFCURVE",
"1190 180 OFFCURVE",
"1110 180 CURVE SMOOTH",
"978 180 OFFCURVE",
"733 284 OFFCURVE",
"733 435 CURVE SMOOTH",
"733 495 OFFCURVE",
"769 525 OFFCURVE",
"826 525 CURVE SMOOTH",
"958 525 OFFCURVE",
"1099 280 OFFCURVE",
"1007 16 CURVE",
"1033 0 LINE"
);
},
{
closed = 1;
nodes = (
"1137 180 OFFCURVE",
"1231 343 OFFCURVE",
"1309 478 CURVE SMOOTH",
"1370 584 OFFCURVE",
"1426 681 OFFCURVE",
"1456 733 CURVE SMOOTH",
"1577 945 OFFCURVE",
"1699 1017 OFFCURVE",
"1826 1017 CURVE SMOOTH",
"1933 1017 OFFCURVE",
"1977 950 OFFCURVE",
"1977 882 CURVE SMOOTH",
"1977 802 OFFCURVE",
"1920 751 OFFCURVE",
"1855 725 CURVE",
"1865 694 LINE",
"1942 722 OFFCURVE",
"2009 786 OFFCURVE",
"2009 884 CURVE SMOOTH",
"2009 965 OFFCURVE",
"1950 1049 OFFCURVE",
"1825 1047 CURVE SMOOTH",
"1685 1045 OFFCURVE",
"1561 968 OFFCURVE",
"1426 743 CURVE SMOOTH",
"1395 690 OFFCURVE",
"1339 592 OFFCURVE",
"1278 485 CURVE SMOOTH",
"1200 348 OFFCURVE",
"1116 204 OFFCURVE",
"1007 16 CURVE",
"1033 0 LINE"
);
}
);
width = 1231;
},
{
associatedMasterId = "B59D2992-18BA-4B4D-949D-9ECAC08614C3";
guideLines = (
{
angle = 60;
position = "{421, -12}";
},
{
angle = 60;
position = "{451, -21}";
},
{
angle = 60;
position = "{698, -52}";
},
{
angle = 60;
position = "{728, -61}";
}
);
layerId = "1851A1F9-7E1C-4923-B2A9-BDDC7769A459";
name = "Jun 4 20, 13:20";
paths = (
{
closed = 1;
nodes = (
"268 352 OFFCURVE",
"251 289 OFFCURVE",
"278 253 CURVE SMOOTH",
"294 232 OFFCURVE",
"330 216 OFFCURVE",
"351 232 CURVE SMOOTH",
"378 252 OFFCURVE",
"378 282 OFFCURVE",
"352 321 CURVE SMOOTH",
"317 374 OFFCURVE",
"251 391 OFFCURVE",
"169 389 CURVE SMOOTH",
"98 387 OFFCURVE",
"-20 329 OFFCURVE",
"-20 181 CURVE SMOOTH",
"-20 38 OFFCURVE",
"103 -21 OFFCURVE",
"226 -19 CURVE SMOOTH",
"382 -16 OFFCURVE",
"502 76 OFFCURVE",
"579 201 CURVE SMOOTH",
"608 248 OFFCURVE",
"638 304 OFFCURVE",
"707 423 CURVE SMOOTH",
"831 636 OFFCURVE",
"910 773 OFFCURVE",
"962 864 CURVE SMOOTH",
"995 922 OFFCURVE",
"1025 965 OFFCURVE",
"1021 995 CURVE SMOOTH",
"1019 1013 OFFCURVE",
"984 1019 OFFCURVE",
"919 1019 CURVE SMOOTH",
"655 1019 OFFCURVE",
"599 821 OFFCURVE",
"594 805 CURVE",
"616 782 LINE",
"626 808 OFFCURVE",
"684 987 OFFCURVE",
"912 988 CURVE SMOOTH",
"970 988 OFFCURVE",
"988 987 OFFCURVE",
"988 974 CURVE SMOOTH",
"988 969 OFFCURVE",
"966 933 OFFCURVE",
"934 877 CURVE SMOOTH",
"885 791 OFFCURVE",
"802 652 OFFCURVE",
"675 428 CURVE SMOOTH",
"639 364 OFFCURVE",
"596 289 OFFCURVE",
"557 224 CURVE SMOOTH",
"487 108 OFFCURVE",
"372 9 OFFCURVE",
"226 9 CURVE SMOOTH",
"117 9 OFFCURVE",
"9 63 OFFCURVE",
"9 181 CURVE SMOOTH",
"9 276 OFFCURVE",
"77 356 OFFCURVE",
"167 354 CURVE SMOOTH"
);
},
{
closed = 1;
nodes = (
"1819 860 OFFCURVE",
"1795 1048 OFFCURVE",
"1565 1047 CURVE SMOOTH",
"1425 1046 OFFCURVE",
"1313 962 OFFCURVE",
"1180 767 CURVE SMOOTH",
"1127 690 OFFCURVE",
"1069 592 OFFCURVE",
"1008 485 CURVE SMOOTH",
"930 348 OFFCURVE",
"837 188 OFFCURVE",
"728 0 CURVE",
"763 0 LINE",
"867 180 OFFCURVE",
"961 343 OFFCURVE",
"1039 478 CURVE SMOOTH",
"1100 584 OFFCURVE",
"1151 681 OFFCURVE",
"1205 758 CURVE SMOOTH",
"1330 937 OFFCURVE",
"1439 1019 OFFCURVE",
"1566 1019 CURVE SMOOTH",
"1782 1019 OFFCURVE",
"1792 845 OFFCURVE",
"1792 762 CURVE",
"1819 768 LINE"
);
},
{
closed = 1;
nodes = (
"871 398 OFFCURVE",
"690 461 OFFCURVE",
"614 461 CURVE SMOOTH",
"503 461 OFFCURVE",
"454 416 OFFCURVE",
"454 350 CURVE SMOOTH",
"454 213 OFFCURVE",
"660 182 OFFCURVE",
"815 186 CURVE SMOOTH",
"871 188 OFFCURVE",
"924 188 OFFCURVE",
"975 202 CURVE SMOOTH",
"1020 215 OFFCURVE",
"1058 240 OFFCURVE",
"1094 270 CURVE",
"1074 290 LINE",
"1045 266 OFFCURVE",
"1010 242 OFFCURVE",
"969 230 CURVE SMOOTH",
"917 215 OFFCURVE",
"864 216 OFFCURVE",
"816 215 CURVE SMOOTH",
"702 212 OFFCURVE",
"483 228 OFFCURVE",
"483 347 CURVE SMOOTH",
"483 409 OFFCURVE",
"528 429 OFFCURVE",
"613 431 CURVE SMOOTH",
"649 432 OFFCURVE",
"840 397 OFFCURVE",
"847 186 CURVE",
"873 186 LINE"
);
}
);
width = 971;
},
{
associatedMasterId = "B59D2992-18BA-4B4D-949D-9ECAC08614C3";
guideLines = (
{
angle = 60;
position = "{421, -12}";
},
{
angle = 60;
position = "{451, -21}";
},
{
angle = 60;
position = "{718, -52}";
},
{
angle = 60;
position = "{748, -61}";
}
);
layerId = "59300786-2C3A-4377-BC2A-C0948E00CBAC";
name = "Jun 4 20, 13:33";
paths = (
{
closed = 1;
nodes = (
"1839 860 OFFCURVE",
"1815 1049 OFFCURVE",
"1585 1047 CURVE SMOOTH",
"1445 1046 OFFCURVE",
"1334 961 OFFCURVE",
"1200 767 CURVE SMOOTH",
"1147 690 OFFCURVE",
"1089 592 OFFCURVE",
"1028 485 CURVE SMOOTH",
"950 348 OFFCURVE",
"857 188 OFFCURVE",
"748 0 CURVE",
"783 0 LINE",
"887 180 OFFCURVE",
"981 343 OFFCURVE",
"1059 478 CURVE SMOOTH",
"1120 584 OFFCURVE",
"1171 681 OFFCURVE",
"1225 758 CURVE SMOOTH",
"1350 937 OFFCURVE",
"1459 1019 OFFCURVE",
"1586 1019 CURVE SMOOTH",
"1802 1019 OFFCURVE",
"1812 845 OFFCURVE",
"1812 762 CURVE",
"1839 768 LINE"
);
},
{
closed = 1;
nodes = (
"900 219 OFFCURVE",
"749 532 OFFCURVE",
"563 532 CURVE SMOOTH",
"476 532 OFFCURVE",
"430 488 OFFCURVE",
"430 422 CURVE SMOOTH",
"430 285 OFFCURVE",
"670 173 OFFCURVE",
"815 176 CURVE SMOOTH",
"921 178 OFFCURVE",
"1036 199 OFFCURVE",
"1104 270 CURVE",
"1084 290 LINE",
"1023 224 OFFCURVE",
"914 205 OFFCURVE",
"816 204 CURVE SMOOTH",
"682 203 OFFCURVE",
"459 306 OFFCURVE",
"459 419 CURVE SMOOTH",
"459 481 OFFCURVE",
"501 502 OFFCURVE",
"562 503 CURVE SMOOTH",
"721 505 OFFCURVE",
"869 211 OFFCURVE",
"748 0 CURVE",
"778 0 LINE"
);
},
{
closed = 1;
nodes = (
"397 -8 OFFCURVE",
"526 108 OFFCURVE",
"722 448 CURVE SMOOTH",
"830 636 OFFCURVE",
"910 772 OFFCURVE",
"962 864 CURVE SMOOTH",
"995 922 OFFCURVE",
"1025 965 OFFCURVE",
"1021 995 CURVE SMOOTH",
"1019 1013 OFFCURVE",
"984 1019 OFFCURVE",
"919 1019 CURVE SMOOTH",
"655 1019 OFFCURVE",
"599 821 OFFCURVE",
"594 805 CURVE",
"616 782 LINE",
"626 808 OFFCURVE",
"684 987 OFFCURVE",
"912 988 CURVE SMOOTH",
"970 988 OFFCURVE",
"988 987 OFFCURVE",
"988 974 CURVE SMOOTH",
"988 969 OFFCURVE",
"966 933 OFFCURVE",
"934 877 CURVE SMOOTH",
"885 791 OFFCURVE",
"804 652 OFFCURVE",
"689 453 CURVE SMOOTH",
"525 169 OFFCURVE",
"387 19 OFFCURVE",
"111 19 CURVE SMOOTH",
"-30 19 OFFCURVE",
"-109 115 OFFCURVE",
"-109 205 CURVE SMOOTH",
"-109 309 OFFCURVE",
"-49 344 OFFCURVE",
"4 345 CURVE SMOOTH",
"55 346 OFFCURVE",
"67 321 OFFCURVE",
"110 321 CURVE SMOOTH",
"149 321 OFFCURVE",
"185 347 OFFCURVE",
"185 385 CURVE SMOOTH",
"185 436 OFFCURVE",
"139 464 OFFCURVE",
"83 464 CURVE SMOOTH",
"-21 464 OFFCURVE",
"-140 380 OFFCURVE",
"-140 206 CURVE SMOOTH",
"-140 96 OFFCURVE",
"-42 -11 OFFCURVE",
"111 -10 CURVE SMOOTH"
);
}
);
width = 981;
},
{
associatedMasterId = "B59D2992-18BA-4B4D-949D-9ECAC08614C3";
guideLines = (
{
angle = 60;
position = "{671, -12}";
},
{
angle = 60;
position = "{701, -21}";
},
{
angle = 60;
position = "{968, -52}";
},
{
angle = 60;
position = "{998, -61}";
}
);
layerId = "8617ED69-EBB3-4A3F-860D-DE0B8D70D14C";
name = "Jun 9 20, 10:12";
paths = (
{
closed = 1;
nodes = (
"2091 860 OFFCURVE",
"2063 1049 OFFCURVE",
"1835 1047 CURVE SMOOTH",
"1695 1046 OFFCURVE",
"1561 968 OFFCURVE",
"1426 743 CURVE SMOOTH",
"1395 690 OFFCURVE",
"1339 592 OFFCURVE",
"1278 485 CURVE SMOOTH",
"1200 348 OFFCURVE",
"1107 188 OFFCURVE",
"998 0 CURVE",
"1033 0 LINE",
"1137 180 OFFCURVE",
"1231 343 OFFCURVE",
"1309 478 CURVE SMOOTH",
"1370 584 OFFCURVE",
"1426 681 OFFCURVE",
"1456 733 CURVE SMOOTH",
"1577 945 OFFCURVE",
"1709 1017 OFFCURVE",
"1836 1017 CURVE SMOOTH",
"2045 1017 OFFCURVE",
"2062 845 OFFCURVE",
"2062 762 CURVE",
"2091 768 LINE"
);
},
{
closed = 1;
nodes = (
"647 -8 OFFCURVE",
"776 108 OFFCURVE",
"972 448 CURVE SMOOTH",
"1080 636 OFFCURVE",
"1160 772 OFFCURVE",
"1212 864 CURVE SMOOTH",
"1245 922 OFFCURVE",
"1275 965 OFFCURVE",
"1271 995 CURVE SMOOTH",
"1269 1013 OFFCURVE",
"1234 1019 OFFCURVE",
"1169 1019 CURVE SMOOTH",
"905 1019 OFFCURVE",
"849 821 OFFCURVE",
"844 805 CURVE",
"866 782 LINE",
"876 808 OFFCURVE",
"934 987 OFFCURVE",
"1162 988 CURVE SMOOTH",
"1220 988 OFFCURVE",
"1238 987 OFFCURVE",
"1238 974 CURVE SMOOTH",
"1238 969 OFFCURVE",
"1216 933 OFFCURVE",
"1184 877 CURVE SMOOTH",
"1135 791 OFFCURVE",
"1054 652 OFFCURVE",
"939 453 CURVE SMOOTH",
"775 169 OFFCURVE",
"637 19 OFFCURVE",
"361 19 CURVE SMOOTH",
"220 19 OFFCURVE",
"141 115 OFFCURVE",
"141 205 CURVE SMOOTH",
"141 309 OFFCURVE",
"201 344 OFFCURVE",
"254 345 CURVE SMOOTH",
"305 346 OFFCURVE",
"317 321 OFFCURVE",
"360 321 CURVE SMOOTH",
"399 321 OFFCURVE",
"435 347 OFFCURVE",
"435 385 CURVE SMOOTH",
"435 436 OFFCURVE",
"389 464 OFFCURVE",
"333 464 CURVE SMOOTH",
"229 464 OFFCURVE",
"110 380 OFFCURVE",
"110 206 CURVE SMOOTH",
"110 96 OFFCURVE",
"208 -11 OFFCURVE",
"361 -10 CURVE SMOOTH"
);
},
{
closed = 1;
nodes = (
"1152 286 OFFCURVE",
"975 556 OFFCURVE",
"807 556 CURVE SMOOTH",
"729 556 OFFCURVE",
"680 501 OFFCURVE",
"680 435 CURVE SMOOTH",
"680 285 OFFCURVE",
"891 150 OFFCURVE",
"1076 150 CURVE SMOOTH",
"1181 150 OFFCURVE",
"1265 170 OFFCURVE",
"1354 270 CURVE",
"1334 290 LINE",
"1248 199 OFFCURVE",
"1164 181 OFFCURVE",
"1077 181 CURVE SMOOTH",
"946 181 OFFCURVE",
"713 278 OFFCURVE",
"713 435 CURVE SMOOTH",
"713 496 OFFCURVE",
"750 525 OFFCURVE",
"805 525 CURVE SMOOTH",
"944 525 OFFCURVE",
"1122 290 OFFCURVE",
"1004 8 CURVE",
"1034 3 LINE"
);
}
);
width = 1231;
}
);
unicode = 0048;
},
{
glyphname = I;
lastChange = "2021-05-01 11:01:59 +0000";
layers = (
{
associatedMasterId = "B59D2992-18BA-4B4D-949D-9ECAC08614C3";
guideLines = (
{
angle = 60;
position = "{570, 30}";
},
{
angle = 60;
position = "{534, 30}";
}
);
layerId = "DFC7F2B3-80CE-48D9-8053-FA41AEC68705";
name = "Aug 22 20, 11:02";
paths = (
{
closed = 1;
nodes = (
"439 165 OFFCURVE",
"252 311 OFFCURVE",
"252 579 CURVE SMOOTH",
"252 913 OFFCURVE",
"597 976 OFFCURVE",
"801 977 CURVE SMOOTH",
"1013 978 OFFCURVE",
"1061 922 OFFCURVE",
"1273 922 CURVE SMOOTH",
"1327 922 OFFCURVE",
"1368 945 OFFCURVE",
"1368 971 CURVE SMOOTH",
"1368 984 OFFCURVE",
"1357 990 OFFCURVE",
"1335 990 CURVE SMOOTH",
"1267 990 OFFCURVE",
"1192 911 OFFCURVE",
"1086 728 CURVE SMOOTH",
"954 500 LINE SMOOTH",
"820 268 OFFCURVE",
"674 -15 OFFCURVE",
"484 -10 CURVE SMOOTH",
"321 -6 OFFCURVE",
"250 96 OFFCURVE",
"250 206 CURVE SMOOTH",
"250 380 OFFCURVE",
"369 464 OFFCURVE",
"473 464 CURVE SMOOTH",
"529 464 OFFCURVE",
"575 436 OFFCURVE",
"575 385 CURVE SMOOTH",
"575 347 OFFCURVE",
"539 321 OFFCURVE",
"500 321 CURVE SMOOTH",
"457 321 OFFCURVE",
"415 347 OFFCURVE",
"364 345 CURVE SMOOTH",
"341 344 OFFCURVE",
"281 309 OFFCURVE",
"281 205 CURVE SMOOTH",
"281 115 OFFCURVE",
"333 19 OFFCURVE",
"484 19 CURVE SMOOTH",
"662 19 OFFCURVE",
"789 271 OFFCURVE",
"921 500 CURVE SMOOTH",
"1055 732 LINE SMOOTH",
"1183 953 OFFCURVE",
"1267 1019 OFFCURVE",
"1335 1019 CURVE SMOOTH",
"1376 1019 OFFCURVE",
"1397 997 OFFCURVE",
"1397 971 CURVE SMOOTH",
"1397 933 OFFCURVE",
"1350 894 OFFCURVE",
"1273 894 CURVE SMOOTH",
"1054 894 OFFCURVE",
"1013 952 OFFCURVE",
"801 952 CURVE SMOOTH",
"606 952 OFFCURVE",
"279 891 OFFCURVE",
"279 579 CURVE SMOOTH",
"279 323 OFFCURVE",
"457 190 OFFCURVE",
"729 190 CURVE SMOOTH",
"807 190 OFFCURVE",
"908 204 OFFCURVE",
"994 290 CURVE",
"1014 270 LINE",
"921 185 OFFCURVE",
"834 165 OFFCURVE",
"729 165 CURVE SMOOTH"
);
}
);
width = 891;
},
{
associatedMasterId = "B59D2992-18BA-4B4D-949D-9ECAC08614C3";
guideLines = (
{
angle = 60;
position = "{570, 30}";
},
{
angle = 60;
position = "{534, 30}";
}
);
layerId = "0ECC3404-552C-4607-B956-3C8EBA9BA3FA";
name = "Aug 22 20, 11:14";
paths = (
{
closed = 1;
nodes = (
"609 583 OFFCURVE",
"546 670 OFFCURVE",
"547 788 CURVE SMOOTH",
"548 912 OFFCURVE",
"637 1017 OFFCURVE",
"801 1018 CURVE SMOOTH",
"1013 1019 OFFCURVE",
"1061 933 OFFCURVE",
"1273 933 CURVE SMOOTH",
"1327 933 OFFCURVE",
"1368 945 OFFCURVE",
"1368 971 CURVE SMOOTH",
"1368 984 OFFCURVE",
"1357 990 OFFCURVE",
"1335 990 CURVE SMOOTH",
"1267 990 OFFCURVE",
"1192 911 OFFCURVE",
"1086 728 CURVE SMOOTH",
"954 500 LINE SMOOTH",
"785 208 OFFCURVE",
"571 -15 OFFCURVE",
"341 -10 CURVE SMOOTH",
"208 -7 OFFCURVE",
"110 96 OFFCURVE",
"110 206 CURVE SMOOTH",
"110 380 OFFCURVE",
"229 464 OFFCURVE",
"333 464 CURVE SMOOTH",
"389 464 OFFCURVE",
"435 436 OFFCURVE",
"435 385 CURVE SMOOTH",
"435 347 OFFCURVE",
"399 321 OFFCURVE",
"360 321 CURVE SMOOTH",
"317 321 OFFCURVE",
"275 347 OFFCURVE",
"224 345 CURVE SMOOTH",
"201 344 OFFCURVE",
"141 309 OFFCURVE",
"141 205 CURVE SMOOTH",
"141 115 OFFCURVE",
"220 19 OFFCURVE",
"341 19 CURVE SMOOTH",
"559 19 OFFCURVE",
"755 211 OFFCURVE",
"921 500 CURVE SMOOTH",
"1055 732 LINE SMOOTH",
"1183 953 OFFCURVE",
"1267 1019 OFFCURVE",
"1335 1019 CURVE SMOOTH",
"1376 1019 OFFCURVE",
"1397 997 OFFCURVE",
"1397 971 CURVE SMOOTH",
"1397 933 OFFCURVE",
"1350 905 OFFCURVE",
"1273 905 CURVE SMOOTH",
"1054 905 OFFCURVE",
"1013 993 OFFCURVE",
"801 993 CURVE SMOOTH",
"646 993 OFFCURVE",
"574 890 OFFCURVE",
"574 788 CURVE SMOOTH",
"574 682 OFFCURVE",
"627 608 OFFCURVE",
"764 608 CURVE SMOOTH",
"873 608 OFFCURVE",
"938 701 OFFCURVE",
"933 797 CURVE",
"960 798 LINE",
"964 701 OFFCURVE",
"900 583 OFFCURVE",
"764 583 CURVE SMOOTH"
);
}
);
width = 891;
},
{
guideLines = (
{
angle = 60;
position = "{570, 30}";
},
{
angle = 60;
position = "{534, 30}";
}
);
layerId = "B59D2992-18BA-4B4D-949D-9ECAC08614C3";
paths = (
{
closed = 1;
nodes = (
"573 -15 OFFCURVE",
"785 208 OFFCURVE",
"954 500 CURVE SMOOTH",
"1048 662 LINE SMOOTH",
"1178 887 OFFCURVE",
"1267 990 OFFCURVE",
"1335 990 CURVE SMOOTH",
"1354 990 OFFCURVE",
"1365 985 OFFCURVE",
"1365 973 CURVE SMOOTH",
"1365 948 OFFCURVE",
"1332 933 OFFCURVE",
"1273 933 CURVE SMOOTH",
"1053 933 OFFCURVE",
"963 1019 OFFCURVE",
"761 1018 CURVE SMOOTH",
"559 1017 OFFCURVE",
"477 904 OFFCURVE",
"476 788 CURVE SMOOTH",
"475 670 OFFCURVE",
"567 578 OFFCURVE",
"739 578 CURVE",
"739 603 LINE",
"582 603 OFFCURVE",
"503 682 OFFCURVE",
"503 788 CURVE SMOOTH",
"503 882 OFFCURVE",
"568 993 OFFCURVE",
"761 993 CURVE SMOOTH",
"963 993 OFFCURVE",
"1046 905 OFFCURVE",
"1273 905 CURVE SMOOTH",
"1355 905 OFFCURVE",
"1397 940 OFFCURVE",
"1397 973 CURVE SMOOTH",
"1397 1001 OFFCURVE",
"1376 1019 OFFCURVE",
"1335 1019 CURVE SMOOTH",
"1267 1019 OFFCURVE",
"1169 928 OFFCURVE",
"1017 666 CURVE SMOOTH",
"921 500 LINE SMOOTH",
"755 211 OFFCURVE",
"559 19 OFFCURVE",
"341 19 CURVE SMOOTH",
"220 19 OFFCURVE",
"141 115 OFFCURVE",
"141 205 CURVE SMOOTH",
"141 309 OFFCURVE",
"201 344 OFFCURVE",
"224 345 CURVE SMOOTH",
"275 347 OFFCURVE",
"317 321 OFFCURVE",
"360 321 CURVE SMOOTH",
"399 321 OFFCURVE",
"435 347 OFFCURVE",
"435 385 CURVE SMOOTH",
"435 436 OFFCURVE",
"389 464 OFFCURVE",
"333 464 CURVE SMOOTH",
"229 464 OFFCURVE",
"110 380 OFFCURVE",
"110 206 CURVE SMOOTH",
"110 96 OFFCURVE",
"208 -7 OFFCURVE",
"341 -10 CURVE SMOOTH"
);
}
);
width = 851;
}
);
unicode = 0049;
},
{
glyphname = Iacute;
lastChange = "2021-05-01 11:01:59 +0000";
layers = (
{
layerId = "B59D2992-18BA-4B4D-949D-9ECAC08614C3";
paths = (
{
closed = 1;
nodes = (
"573 -15 OFFCURVE",
"785 208 OFFCURVE",
"954 500 CURVE SMOOTH",
"1048 662 LINE SMOOTH",
"1178 887 OFFCURVE",
"1267 990 OFFCURVE",
"1335 990 CURVE SMOOTH",
"1354 990 OFFCURVE",
"1365 985 OFFCURVE",
"1365 973 CURVE SMOOTH",
"1365 948 OFFCURVE",
"1332 933 OFFCURVE",
"1273 933 CURVE SMOOTH",
"1053 933 OFFCURVE",
"963 1019 OFFCURVE",
"761 1018 CURVE SMOOTH",
"559 1017 OFFCURVE",
"477 904 OFFCURVE",
"476 788 CURVE SMOOTH",
"475 670 OFFCURVE",
"567 578 OFFCURVE",
"739 578 CURVE",
"739 603 LINE",
"582 603 OFFCURVE",
"503 682 OFFCURVE",
"503 788 CURVE SMOOTH",
"503 882 OFFCURVE",
"568 993 OFFCURVE",
"761 993 CURVE SMOOTH",
"963 993 OFFCURVE",
"1046 905 OFFCURVE",
"1273 905 CURVE SMOOTH",
"1355 905 OFFCURVE",
"1397 940 OFFCURVE",
"1397 973 CURVE SMOOTH",
"1397 1001 OFFCURVE",
"1376 1019 OFFCURVE",
"1335 1019 CURVE SMOOTH",
"1267 1019 OFFCURVE",
"1169 928 OFFCURVE",
"1017 666 CURVE SMOOTH",
"921 500 LINE SMOOTH",
"755 211 OFFCURVE",
"559 19 OFFCURVE",
"341 19 CURVE SMOOTH",
"220 19 OFFCURVE",
"141 115 OFFCURVE",
"141 205 CURVE SMOOTH",
"141 309 OFFCURVE",
"201 344 OFFCURVE",
"224 345 CURVE SMOOTH",
"275 347 OFFCURVE",
"317 321 OFFCURVE",
"360 321 CURVE SMOOTH",
"399 321 OFFCURVE",
"435 347 OFFCURVE",
"435 385 CURVE SMOOTH",
"435 436 OFFCURVE",
"389 464 OFFCURVE",
"333 464 CURVE SMOOTH",
"229 464 OFFCURVE",
"110 380 OFFCURVE",
"110 206 CURVE SMOOTH",
"110 96 OFFCURVE",
"208 -7 OFFCURVE",
"341 -10 CURVE SMOOTH"
);
},
{
closed = 1;
nodes = (
"1336 1238 LINE SMOOTH",
"1369 1258 OFFCURVE",
"1378 1288 OFFCURVE",
"1358 1312 CURVE SMOOTH",
"1339 1335 OFFCURVE",
"1315 1333 OFFCURVE",
"1282 1299 CURVE SMOOTH",
"1105 1114 LINE",
"1117 1101 LINE"
);
}
);
width = 851;
}
);
unicode = 00CD;
},
{
glyphname = Icircumflex;
lastChange = "2021-05-01 11:01:59 +0000";
layers = (
{
layerId = "B59D2992-18BA-4B4D-949D-9ECAC08614C3";
paths = (
{
closed = 1;
nodes = (
"573 -15 OFFCURVE",
"785 208 OFFCURVE",
"954 500 CURVE SMOOTH",
"1048 662 LINE SMOOTH",
"1178 887 OFFCURVE",
"1267 990 OFFCURVE",
"1335 990 CURVE SMOOTH",
"1354 990 OFFCURVE",
"1365 985 OFFCURVE",
"1365 973 CURVE SMOOTH",
"1365 948 OFFCURVE",
"1332 933 OFFCURVE",
"1273 933 CURVE SMOOTH",
"1053 933 OFFCURVE",
"963 1019 OFFCURVE",
"761 1018 CURVE SMOOTH",
"559 1017 OFFCURVE",
"477 904 OFFCURVE",
"476 788 CURVE SMOOTH",
"475 670 OFFCURVE",
"567 578 OFFCURVE",
"739 578 CURVE",
"739 603 LINE",
"582 603 OFFCURVE",
"503 682 OFFCURVE",
"503 788 CURVE SMOOTH",
"503 882 OFFCURVE",
"568 993 OFFCURVE",
"761 993 CURVE SMOOTH",
"963 993 OFFCURVE",
"1046 905 OFFCURVE",
"1273 905 CURVE SMOOTH",
"1355 905 OFFCURVE",
"1397 940 OFFCURVE",
"1397 973 CURVE SMOOTH",
"1397 1001 OFFCURVE",
"1376 1019 OFFCURVE",
"1335 1019 CURVE SMOOTH",
"1267 1019 OFFCURVE",
"1169 928 OFFCURVE",
"1017 666 CURVE SMOOTH",
"921 500 LINE SMOOTH",
"755 211 OFFCURVE",
"559 19 OFFCURVE",
"341 19 CURVE SMOOTH",
"220 19 OFFCURVE",
"141 115 OFFCURVE",
"141 205 CURVE SMOOTH",
"141 309 OFFCURVE",
"201 344 OFFCURVE",
"224 345 CURVE SMOOTH",
"275 347 OFFCURVE",
"317 321 OFFCURVE",
"360 321 CURVE SMOOTH",
"399 321 OFFCURVE",
"435 347 OFFCURVE",
"435 385 CURVE SMOOTH",
"435 436 OFFCURVE",
"389 464 OFFCURVE",
"333 464 CURVE SMOOTH",
"229 464 OFFCURVE",
"110 380 OFFCURVE",
"110 206 CURVE SMOOTH",
"110 96 OFFCURVE",
"208 -7 OFFCURVE",
"341 -10 CURVE SMOOTH"
);
},
{
closed = 1;
nodes = (
"1216 1067 LINE",
"1179 1291 LINE SMOOTH",
"1175 1315 OFFCURVE",
"1163 1332 OFFCURVE",
"1149 1336 CURVE SMOOTH",
"1136 1340 OFFCURVE",
"1118 1345 OFFCURVE",
"1096 1329 CURVE SMOOTH",
"890 1176 LINE",
"895 1160 LINE",
"1110 1250 LINE",
"1199 1060 LINE"
);
}
);
width = 851;
}
);
unicode = 00CE;
},
{
glyphname = Idieresis;
lastChange = "2021-05-01 11:01:59 +0000";
layers = (
{
layerId = "B59D2992-18BA-4B4D-949D-9ECAC08614C3";
paths = (
{
closed = 1;
nodes = (
"573 -15 OFFCURVE",
"785 208 OFFCURVE",
"954 500 CURVE SMOOTH",
"1048 662 LINE SMOOTH",
"1178 887 OFFCURVE",
"1267 990 OFFCURVE",
"1335 990 CURVE SMOOTH",
"1354 990 OFFCURVE",
"1365 985 OFFCURVE",
"1365 973 CURVE SMOOTH",
"1365 948 OFFCURVE",
"1332 933 OFFCURVE",
"1273 933 CURVE SMOOTH",
"1053 933 OFFCURVE",
"963 1019 OFFCURVE",
"761 1018 CURVE SMOOTH",
"559 1017 OFFCURVE",
"477 904 OFFCURVE",
"476 788 CURVE SMOOTH",
"475 670 OFFCURVE",
"567 578 OFFCURVE",
"739 578 CURVE",
"739 603 LINE",
"582 603 OFFCURVE",
"503 682 OFFCURVE",
"503 788 CURVE SMOOTH",
"503 882 OFFCURVE",
"568 993 OFFCURVE",
"761 993 CURVE SMOOTH",
"963 993 OFFCURVE",
"1046 905 OFFCURVE",
"1273 905 CURVE SMOOTH",
"1355 905 OFFCURVE",
"1397 940 OFFCURVE",
"1397 973 CURVE SMOOTH",
"1397 1001 OFFCURVE",
"1376 1019 OFFCURVE",
"1335 1019 CURVE SMOOTH",
"1267 1019 OFFCURVE",
"1169 928 OFFCURVE",
"1017 666 CURVE SMOOTH",
"921 500 LINE SMOOTH",
"755 211 OFFCURVE",
"559 19 OFFCURVE",
"341 19 CURVE SMOOTH",
"220 19 OFFCURVE",
"141 115 OFFCURVE",
"141 205 CURVE SMOOTH",
"141 309 OFFCURVE",
"201 344 OFFCURVE",
"224 345 CURVE SMOOTH",
"275 347 OFFCURVE",
"317 321 OFFCURVE",
"360 321 CURVE SMOOTH",
"399 321 OFFCURVE",
"435 347 OFFCURVE",
"435 385 CURVE SMOOTH",
"435 436 OFFCURVE",
"389 464 OFFCURVE",
"333 464 CURVE SMOOTH",
"229 464 OFFCURVE",
"110 380 OFFCURVE",
"110 206 CURVE SMOOTH",
"110 96 OFFCURVE",
"208 -7 OFFCURVE",
"341 -10 CURVE SMOOTH"
);
},
{
closed = 1;
nodes = (
"951 1112 OFFCURVE",
"980 1117 OFFCURVE",
"997 1139 CURVE SMOOTH",
"1014 1160 OFFCURVE",
"1010 1189 OFFCURVE",
"990 1204 CURVE SMOOTH",
"969 1219 OFFCURVE",
"940 1215 OFFCURVE",
"923 1193 CURVE SMOOTH",
"907 1172 OFFCURVE",
"909 1142 OFFCURVE",
"931 1126 CURVE SMOOTH"
);
},
{
closed = 1;
nodes = (
"1126 1112 OFFCURVE",
"1155 1117 OFFCURVE",
"1172 1139 CURVE SMOOTH",
"1189 1160 OFFCURVE",
"1185 1189 OFFCURVE",
"1165 1204 CURVE SMOOTH",
"1144 1219 OFFCURVE",
"1115 1215 OFFCURVE",
"1098 1193 CURVE SMOOTH",
"1082 1172 OFFCURVE",
"1084 1142 OFFCURVE",
"1106 1126 CURVE SMOOTH"
);
}
);
width = 851;
}
);
unicode = 00CF;
},
{
glyphname = Igrave;
lastChange = "2021-05-01 11:01:59 +0000";
layers = (
{
layerId = "B59D2992-18BA-4B4D-949D-9ECAC08614C3";
paths = (
{
closed = 1;
nodes = (
"573 -15 OFFCURVE",
"785 208 OFFCURVE",
"954 500 CURVE SMOOTH",
"1048 662 LINE SMOOTH",
"1178 887 OFFCURVE",
"1267 990 OFFCURVE",
"1335 990 CURVE SMOOTH",
"1354 990 OFFCURVE",
"1365 985 OFFCURVE",
"1365 973 CURVE SMOOTH",
"1365 948 OFFCURVE",
"1332 933 OFFCURVE",
"1273 933 CURVE SMOOTH",
"1053 933 OFFCURVE",
"963 1019 OFFCURVE",
"761 1018 CURVE SMOOTH",
"559 1017 OFFCURVE",
"477 904 OFFCURVE",
"476 788 CURVE SMOOTH",
"475 670 OFFCURVE",
"567 578 OFFCURVE",
"739 578 CURVE",
"739 603 LINE",
"582 603 OFFCURVE",
"503 682 OFFCURVE",
"503 788 CURVE SMOOTH",
"503 882 OFFCURVE",
"568 993 OFFCURVE",
"761 993 CURVE SMOOTH",
"963 993 OFFCURVE",
"1046 905 OFFCURVE",
"1273 905 CURVE SMOOTH",
"1355 905 OFFCURVE",
"1397 940 OFFCURVE",
"1397 973 CURVE SMOOTH",
"1397 1001 OFFCURVE",
"1376 1019 OFFCURVE",
"1335 1019 CURVE SMOOTH",
"1267 1019 OFFCURVE",
"1169 928 OFFCURVE",
"1017 666 CURVE SMOOTH",
"921 500 LINE SMOOTH",
"755 211 OFFCURVE",
"559 19 OFFCURVE",
"341 19 CURVE SMOOTH",
"220 19 OFFCURVE",
"141 115 OFFCURVE",
"141 205 CURVE SMOOTH",
"141 309 OFFCURVE",
"201 344 OFFCURVE",
"224 345 CURVE SMOOTH",
"275 347 OFFCURVE",
"317 321 OFFCURVE",
"360 321 CURVE SMOOTH",
"399 321 OFFCURVE",
"435 347 OFFCURVE",
"435 385 CURVE SMOOTH",
"435 436 OFFCURVE",
"389 464 OFFCURVE",
"333 464 CURVE SMOOTH",
"229 464 OFFCURVE",
"110 380 OFFCURVE",
"110 206 CURVE SMOOTH",
"110 96 OFFCURVE",
"208 -7 OFFCURVE",
"341 -10 CURVE SMOOTH"
);
},
{
closed = 1;
nodes = (
"1142 1087 LINE",
"1027 1316 LINE SMOOTH",
"1008 1354 OFFCURVE",
"979 1363 OFFCURVE",
"959 1350 CURVE SMOOTH",
"932 1333 OFFCURVE",
"935 1299 OFFCURVE",
"958 1273 CURVE SMOOTH",
"1127 1078 LINE"
);
}
);
width = 851;
}
);
unicode = 00CC;
},
{
glyphname = J;
lastChange = "2021-05-01 11:01:59 +0000";
layers = (
{
associatedMasterId = "B59D2992-18BA-4B4D-949D-9ECAC08614C3";
guideLines = (
{
angle = 60;
position = "{565, 0}";
},
{
angle = 60;
position = "{532, 0}";
},
{
position = "{174, -290}";
}
);
layerId = "2C1F693A-4A35-4335-9646-EF91C4F557D5";
name = "Jun 17 20, 00:36";
paths = (
{
closed = 1;
nodes = (
"111 -225 OFFCURVE",
"130 -260 OFFCURVE",
"211 -260 CURVE SMOOTH",
"399 -260 OFFCURVE",
"579 78 OFFCURVE",
"694 278 CURVE SMOOTH",
"917 666 LINE SMOOTH",
"1069 928 OFFCURVE",
"1178 1019 OFFCURVE",
"1246 1019 CURVE SMOOTH",
"1287 1019 OFFCURVE",
"1313 1001 OFFCURVE",
"1313 972 CURVE SMOOTH",
"1313 938 OFFCURVE",
"1253 891 OFFCURVE",
"1171 891 CURVE SMOOTH",
"944 891 OFFCURVE",
"886 993 OFFCURVE",
"684 993 CURVE SMOOTH",
"487 993 OFFCURVE",
"418 882 OFFCURVE",
"422 788 CURVE SMOOTH",
"427 682 OFFCURVE",
"492 598 OFFCURVE",
"618 633 CURVE",
"618 608 LINE",
"475 571 OFFCURVE",
"399 670 OFFCURVE",
"395 788 CURVE SMOOTH",
"391 904 OFFCURVE",
"478 1017 OFFCURVE",
"684 1018 CURVE SMOOTH",
"886 1019 OFFCURVE",
"951 919 OFFCURVE",
"1171 919 CURVE SMOOTH",
"1230 919 OFFCURVE",
"1279 957 OFFCURVE",
"1279 973 CURVE SMOOTH",
"1279 985 OFFCURVE",
"1268 990 OFFCURVE",
"1246 990 CURVE SMOOTH",
"1178 990 OFFCURVE",
"1078 887 OFFCURVE",
"948 662 CURVE SMOOTH",
"726 279 LINE SMOOTH",
"614 86 OFFCURVE",
"431 -291 OFFCURVE",
"211 -290 CURVE SMOOTH",
"108 -290 OFFCURVE",
"80 -244 OFFCURVE",
"80 -194 CURVE SMOOTH",
"80 -54 OFFCURVE",
"432 49 OFFCURVE",
"534 75 CURVE SMOOTH",
"608 94 OFFCURVE",
"823 167 OFFCURVE",
"916 290 CURVE",
"936 270 LINE",
"815 134 OFFCURVE",
"603 63 OFFCURVE",
"548 48 CURVE SMOOTH",
"465 25 OFFCURVE",
"111 -81 OFFCURVE",
"111 -195 CURVE SMOOTH"
);
}
);
width = 813;
},
{
guideLines = (
{
angle = 60;
position = "{565, 0}";
},
{
angle = 60;
position = "{532, 0}";
},
{
position = "{174, -290}";
}
);
layerId = "B59D2992-18BA-4B4D-949D-9ECAC08614C3";
paths = (
{
closed = 1;
nodes = (
"264 -297 OFFCURVE",
"356 -274 OFFCURVE",
"428 -206 CURVE SMOOTH",
"473 -163 OFFCURVE",
"509 -100 OFFCURVE",
"560 -10 CURVE SMOOTH",
"909 595 LINE SMOOTH",
"983 724 OFFCURVE",
"1042 813 OFFCURVE",
"1094 876 CURVE",
"1277 940 OFFCURVE",
"1319 990 OFFCURVE",
"1294 1033 CURVE SMOOTH",
"1269 1077 OFFCURVE",
"1211 1059 OFFCURVE",
"1177 1017 CURVE SMOOTH",
"1085 906 LINE",
"930 931 OFFCURVE",
"844 1019 OFFCURVE",
"671 1018 CURVE SMOOTH",
"469 1017 OFFCURVE",
"387 905 OFFCURVE",
"386 777 CURVE SMOOTH",
"385 659 OFFCURVE",
"477 558 OFFCURVE",
"649 558 CURVE",
"649 583 LINE",
"492 583 OFFCURVE",
"413 671 OFFCURVE",
"413 777 CURVE SMOOTH",
"413 883 OFFCURVE",
"478 993 OFFCURVE",
"671 993 CURVE SMOOTH",
"837 993 OFFCURVE",
"919 910 OFFCURVE",
"1065 881 CURVE",
"1013 816 OFFCURVE",
"952 725 OFFCURVE",
"879 598 CURVE SMOOTH",
"694 278 LINE SMOOTH",
"662 223 OFFCURVE",
"607 124 OFFCURVE",
"528 -8 CURVE SMOOTH",
"509 -41 OFFCURVE",
"456 -133 OFFCURVE",
"410 -181 CURVE SMOOTH",
"353 -240 OFFCURVE",
"250 -267 OFFCURVE",
"193 -267 CURVE SMOOTH",
"133 -267 OFFCURVE",
"67 -252 OFFCURVE",
"67 -205 CURVE SMOOTH",
"67 -127 OFFCURVE",
"185 -91 OFFCURVE",
"279 -71 CURVE SMOOTH",
"334 -60 OFFCURVE",
"435 -31 OFFCURVE",
"501 -9 CURVE SMOOTH",
"559 10 OFFCURVE",
"646 46 OFFCURVE",
"685 65 CURVE SMOOTH",
"732 88 OFFCURVE",
"822 146 OFFCURVE",
"898 229 CURVE SMOOTH",
"936 270 LINE",
"916 290 LINE",
"871 241 LINE SMOOTH",
"784 146 OFFCURVE",
"693 97 OFFCURVE",
"671 88 CURVE SMOOTH",
"625 69 OFFCURVE",
"537 32 OFFCURVE",
"488 17 CURVE SMOOTH",
"423 -3 OFFCURVE",
"328 -29 OFFCURVE",
"271 -42 CURVE SMOOTH",
"166 -66 OFFCURVE",
"37 -110 OFFCURVE",
"37 -205 CURVE SMOOTH",
"37 -276 OFFCURVE",
"113 -297 OFFCURVE",
"196 -297 CURVE SMOOTH"
);
},
{
closed = 0;
nodes = (
"565 0 LINE"
);
}
);
width = 813;
},
{
associatedMasterId = "B59D2992-18BA-4B4D-949D-9ECAC08614C3";
guideLines = (
{
angle = 60;
position = "{565, 0}";
},
{
angle = 60;
position = "{532, 0}";
},
{
position = "{174, -290}";
}
);
layerId = "12D7ED20-8FF5-4126-BEB9-40A3FBB4CE00";
name = "Aug 15 20, 11:23";
paths = (
{
closed = 1;
nodes = (
"109 -214 OFFCURVE",
"130 -261 OFFCURVE",
"211 -261 CURVE SMOOTH",
"379 -261 OFFCURVE",
"507 -48 OFFCURVE",
"694 278 CURVE SMOOTH",
"917 666 LINE SMOOTH",
"1069 928 OFFCURVE",
"1178 1019 OFFCURVE",
"1246 1019 CURVE SMOOTH",
"1287 1019 OFFCURVE",
"1309 1002 OFFCURVE",
"1309 974 CURVE SMOOTH",
"1309 928 OFFCURVE",
"1230 892 OFFCURVE",
"1142 892 CURVE SMOOTH",
"932 892 OFFCURVE",
"886 991 OFFCURVE",
"684 993 CURVE SMOOTH",
"487 995 OFFCURVE",
"420 853 OFFCURVE",
"422 759 CURVE SMOOTH",
"425 639 OFFCURVE",
"532 518 OFFCURVE",
"658 553 CURVE",
"658 528 LINE",
"515 491 OFFCURVE",
"397 627 OFFCURVE",
"395 759 CURVE SMOOTH",
"393 875 OFFCURVE",
"478 1017 OFFCURVE",
"684 1018 CURVE SMOOTH",
"886 1019 OFFCURVE",
"949 919 OFFCURVE",
"1142 919 CURVE SMOOTH",
"1218 919 OFFCURVE",
"1279 944 OFFCURVE",
"1279 974 CURVE SMOOTH",
"1279 986 OFFCURVE",
"1264 990 OFFCURVE",
"1246 990 CURVE SMOOTH",
"1178 990 OFFCURVE",
"1078 887 OFFCURVE",
"948 662 CURVE SMOOTH",
"726 279 LINE SMOOTH",
"538 -45 OFFCURVE",
"397 -292 OFFCURVE",
"211 -290 CURVE SMOOTH",
"119 -289 OFFCURVE",
"80 -231 OFFCURVE",
"80 -174 CURVE SMOOTH",
"80 -30 OFFCURVE",
"353 -11 OFFCURVE",
"539 39 CURVE SMOOTH",
"678 76 OFFCURVE",
"808 170 OFFCURVE",
"887 257 CURVE SMOOTH",
"897 268 OFFCURVE",
"905 277 OFFCURVE",
"916 290 CURVE",
"936 270 LINE",
"922 255 OFFCURVE",
"910 242 OFFCURVE",
"897 227 CURVE SMOOTH",
"813 134 OFFCURVE",
"673 51 OFFCURVE",
"541 13 CURVE SMOOTH",
"359 -39 OFFCURVE",
"109 -47 OFFCURVE",
"109 -175 CURVE SMOOTH"
);
}
);
width = 813;
},
{
associatedMasterId = "B59D2992-18BA-4B4D-949D-9ECAC08614C3";
guideLines = (
{
angle = 60;
position = "{565, 0}";
},
{
angle = 60;
position = "{532, 0}";
},
{
position = "{174, -290}";
}
);
layerId = "B58FD184-B7A4-4B1D-A90C-A17A55B432FE";
name = "Aug 22 20, 11:16";
paths = (
{
closed = 1;
nodes = (
"160 -94 OFFCURVE",
"424 -21 OFFCURVE",
"546 24 CURVE",
"625.237 156.494 OFFCURVE",
"662.117 222.551 OFFCURVE",
"694 278 CURVE SMOOTH",
"879 598 LINE SMOOTH",
"952.074 724.917 OFFCURVE",
"1012.574 816.483 OFFCURVE",
"1064.598 881.116 CURVE",
"918.953 910.371 OFFCURVE",
"850.241 993 OFFCURVE",
"684 993 CURVE SMOOTH",
"487 993 OFFCURVE",
"418 882 OFFCURVE",
"422 788 CURVE SMOOTH",
"427 682 OFFCURVE",
"492 598 OFFCURVE",
"618 633 CURVE",
"618 608 LINE",
"475 571 OFFCURVE",
"399 670 OFFCURVE",
"395 788 CURVE SMOOTH",
"391 904 OFFCURVE",
"478 1017 OFFCURVE",
"684 1018 CURVE SMOOTH",
"857.043 1018.857 OFFCURVE",
"929.549 930.918 OFFCURVE",
"1085.083 905.688 CURVE",
"1158.124 990.072 OFFCURVE",
"1214.128 1019 OFFCURVE",
"1266 1019 CURVE SMOOTH",
"1307 1019 OFFCURVE",
"1333 1006 OFFCURVE",
"1333 974 CURVE SMOOTH",
"1333 924 OFFCURVE",
"1253 871 OFFCURVE",
"1171 871 CURVE SMOOTH",
"1142.955 871 OFFCURVE",
"1117.49 872.862 OFFCURVE",
"1094.014 876.126 CURVE",
"1042.394 813.547 OFFCURVE",
"982.624 722.208 OFFCURVE",
"909 595 CURVE SMOOTH",
"726 279 LINE SMOOTH",
"697.457 229.814 OFFCURVE",
"664.302 168.677 OFFCURVE",
"588 39 CURVE",
"730 109 OFFCURVE",
"833 197 OFFCURVE",
"916 290 CURVE",
"936 270 LINE",
"841.477 163.76 OFFCURVE",
"711 63 OFFCURVE",
"565 0 CURVE",
"498.408 -109.506 OFFCURVE",
"394 -290 OFFCURVE",
"261 -290 CURVE SMOOTH",
"198 -290 OFFCURVE",
"160 -260 OFFCURVE",
"160 -214 CURVE SMOOTH"
);
},
{
closed = 1;
nodes = (
"191 -243 OFFCURVE",
"220 -260 OFFCURVE",
"261 -260 CURVE SMOOTH",
"367 -260 OFFCURVE",
"461 -108 OFFCURVE",
"524 -14 CURVE",
"434 -49 OFFCURVE",
"191 -121 OFFCURVE",
"191 -215 CURVE SMOOTH"
);
}
);
width = 813;
},
{
associatedMasterId = "B59D2992-18BA-4B4D-949D-9ECAC08614C3";
guideLines = (
{
angle = 60;
position = "{565, 0}";
},
{
angle = 60;
position = "{532, 0}";
},
{
position = "{174, -290}";
}
);
layerId = "5416A478-EBB3-4D6E-8BC6-8DFE682F325A";
name = "Aug 22 20, 11:22";
paths = (
{
closed = 1;
nodes = (
"191 -243 OFFCURVE",
"220 -260 OFFCURVE",
"261 -260 CURVE SMOOTH",
"367 -260 OFFCURVE",
"461 -108 OFFCURVE",
"524 -14 CURVE",
"434 -49 OFFCURVE",
"191 -121 OFFCURVE",
"191 -215 CURVE SMOOTH"
);
},
{
closed = 1;
nodes = (
"448 993 OFFCURVE",
"353 835 OFFCURVE",
"353 718 CURVE SMOOTH",
"353 592 OFFCURVE",
"432 493 OFFCURVE",
"589 493 CURVE SMOOTH",
"718 493 OFFCURVE",
"827 600 OFFCURVE",
"822 737 CURVE",
"849 738 LINE",
"856 602 OFFCURVE",
"745 468 OFFCURVE",
"589 468 CURVE SMOOTH",
"417 468 OFFCURVE",
"325 580 OFFCURVE",
"326 718 CURVE SMOOTH",
"327 857 OFFCURVE",
"439 1017 OFFCURVE",
"671 1018 CURVE SMOOTH",
"844 1019 OFFCURVE",
"930 931 OFFCURVE",
"1085 906 CURVE",
"1183 1014 LINE SMOOTH",
"1219 1054 OFFCURVE",
"1274 1069 OFFCURVE",
"1303 1029 CURVE SMOOTH",
"1330 992 OFFCURVE",
"1292 947 OFFCURVE",
"1230 925 CURVE SMOOTH",
"1094 876 LINE",
"1042 813 OFFCURVE",
"983 722 OFFCURVE",
"909 595 CURVE SMOOTH",
"726 279 LINE SMOOTH",
"697 230 OFFCURVE",
"664 169 OFFCURVE",
"588 39 CURVE",
"730 109 OFFCURVE",
"833 197 OFFCURVE",
"916 290 CURVE",
"936 270 LINE",
"841 164 OFFCURVE",
"711 63 OFFCURVE",
"565 0 CURVE",
"498 -110 OFFCURVE",
"394 -290 OFFCURVE",
"261 -290 CURVE SMOOTH",
"198 -290 OFFCURVE",
"160 -260 OFFCURVE",
"160 -214 CURVE SMOOTH",
"160 -94 OFFCURVE",
"424 -21 OFFCURVE",
"546 24 CURVE",
"625 156 OFFCURVE",
"662 223 OFFCURVE",
"694 278 CURVE SMOOTH",
"879 598 LINE SMOOTH",
"952 725 OFFCURVE",
"1013 816 OFFCURVE",
"1065 881 CURVE",
"919 910 OFFCURVE",
"837 993 OFFCURVE",
"671 993 CURVE SMOOTH"
);
}
);
width = 813;
},
{
associatedMasterId = "B59D2992-18BA-4B4D-949D-9ECAC08614C3";
guideLines = (
{
angle = 60;
position = "{565, 0}";
},
{
angle = 60;
position = "{532, 0}";
},
{
position = "{174, -290}";
}
);
layerId = "EB9B7E9B-3FCE-4471-90F6-832942870652";
name = "Aug 22 20, 11:26";
paths = (
{
closed = 1;
nodes = (
"191 -243 OFFCURVE",
"220 -260 OFFCURVE",
"261 -260 CURVE SMOOTH",
"367 -260 OFFCURVE",
"461 -108 OFFCURVE",
"524 -14 CURVE",
"434 -49 OFFCURVE",
"191 -121 OFFCURVE",
"191 -215 CURVE SMOOTH"
);
},
{
closed = 1;
nodes = (
"478 993 OFFCURVE",
"413 883 OFFCURVE",
"413 777 CURVE SMOOTH",
"413 671 OFFCURVE",
"492 583 OFFCURVE",
"649 583 CURVE",
"649 558 LINE",
"477 558 OFFCURVE",
"385 659 OFFCURVE",
"386 777 CURVE SMOOTH",
"387 905 OFFCURVE",
"469 1017 OFFCURVE",
"671 1018 CURVE SMOOTH",
"844 1019 OFFCURVE",
"930 931 OFFCURVE",
"1085 906 CURVE",
"1177 1017 LINE SMOOTH",
"1211 1059 OFFCURVE",
"1269 1077 OFFCURVE",
"1294 1033 CURVE SMOOTH",
"1319 990 OFFCURVE",
"1277 940 OFFCURVE",
"1094 876 CURVE",
"1042 813 OFFCURVE",
"983 722 OFFCURVE",
"909 595 CURVE SMOOTH",
"726 279 LINE SMOOTH",
"697 230 OFFCURVE",
"664 169 OFFCURVE",
"588 39 CURVE",
"730 109 OFFCURVE",
"833 197 OFFCURVE",
"916 290 CURVE",
"936 270 LINE",
"841 164 OFFCURVE",
"711 63 OFFCURVE",
"565 0 CURVE",
"498 -110 OFFCURVE",
"394 -290 OFFCURVE",
"261 -290 CURVE SMOOTH",
"198 -290 OFFCURVE",
"160 -260 OFFCURVE",
"160 -214 CURVE SMOOTH",
"160 -94 OFFCURVE",
"424 -21 OFFCURVE",
"546 24 CURVE",
"625 156 OFFCURVE",
"662 223 OFFCURVE",
"694 278 CURVE SMOOTH",
"879 598 LINE SMOOTH",
"952 725 OFFCURVE",
"1013 816 OFFCURVE",
"1065 881 CURVE",
"919 910 OFFCURVE",
"837 993 OFFCURVE",
"671 993 CURVE SMOOTH"
);
}
);
width = 813;
}
);
unicode = 004A;
},
{
glyphname = K;
lastChange = "2021-05-01 11:01:59 +0000";
layers = (
{
guideLines = (
{
angle = 60;
position = "{988, -78}";
},
{
angle = 60;
position = "{960, -66}";
},
{
angle = 60;
position = "{1461, 0}";
},
{
angle = 60;
position = "{1428, 0}";
}
);
layerId = "B59D2992-18BA-4B4D-949D-9ECAC08614C3";
paths = (
{
closed = 1;
nodes = (
"1217 -8 OFFCURVE",
"1405 242 OFFCURVE",
"1434 270 CURVE",
"1414 290 LINE",
"1341 211 OFFCURVE",
"1199 19 OFFCURVE",
"1114 19 CURVE SMOOTH",
"1049 19 OFFCURVE",
"1069 115 OFFCURVE",
"1086 279 CURVE SMOOTH",
"1106 466 OFFCURVE",
"967 527 OFFCURVE",
"898 523 CURVE SMOOTH",
"851 520 OFFCURVE",
"828 501 OFFCURVE",
"830 465 CURVE SMOOTH",
"833 408 OFFCURVE",
"908 376 OFFCURVE",
"962 377 CURVE SMOOTH",
"1100 380 OFFCURVE",
"1264 441 OFFCURVE",
"1456 733 CURVE SMOOTH",
"1592 939 OFFCURVE",
"1699 1017 OFFCURVE",
"1826 1017 CURVE SMOOTH",
"1933 1017 OFFCURVE",
"1977 950 OFFCURVE",
"1977 882 CURVE SMOOTH",
"1977 787 OFFCURVE",
"1871 732 OFFCURVE",
"1800 726 CURVE",
"1803 698 LINE",
"1889 698 OFFCURVE",
"2009 768 OFFCURVE",
"2009 884 CURVE SMOOTH",
"2009 965 OFFCURVE",
"1950 1049 OFFCURVE",
"1825 1047 CURVE SMOOTH",
"1685 1045 OFFCURVE",
"1570 961 OFFCURVE",
"1426 743 CURVE SMOOTH",
"1213 421 OFFCURVE",
"1037 403 OFFCURVE",
"964 403 CURVE SMOOTH",
"914 403 OFFCURVE",
"859 434 OFFCURVE",
"859 466 CURVE SMOOTH",
"859 484 OFFCURVE",
"866 498 OFFCURVE",
"905 498 CURVE SMOOTH",
"993 498 OFFCURVE",
"1068 404 OFFCURVE",
"1058 304 CURVE SMOOTH",
"1047 192 OFFCURVE",
"992 -12 OFFCURVE",
"1113 -10 CURVE SMOOTH"
);
},
{
closed = 1;
nodes = (
"647 -8 OFFCURVE",
"776 108 OFFCURVE",
"972 448 CURVE SMOOTH",
"1080 636 OFFCURVE",
"1160 772 OFFCURVE",
"1263 954 CURVE SMOOTH",
"1289 1001 OFFCURVE",
"1268 1017 OFFCURVE",
"1209 1019 CURVE SMOOTH",
"964 1028 OFFCURVE",
"864 867 OFFCURVE",
"837 790 CURVE",
"866 782 LINE",
"889 846 OFFCURVE",
"985 998 OFFCURVE",
"1206 991 CURVE SMOOTH",
"1238 990 OFFCURVE",
"1249 989 OFFCURVE",
"1236 967 CURVE SMOOTH",
"1135 791 OFFCURVE",
"1054 652 OFFCURVE",
"939 453 CURVE SMOOTH",
"775 169 OFFCURVE",
"637 19 OFFCURVE",
"361 19 CURVE SMOOTH",
"220 19 OFFCURVE",
"141 115 OFFCURVE",
"141 205 CURVE SMOOTH",
"141 309 OFFCURVE",
"201 344 OFFCURVE",
"254 345 CURVE SMOOTH",
"305 346 OFFCURVE",
"317 321 OFFCURVE",
"360 321 CURVE SMOOTH",
"399 321 OFFCURVE",
"435 347 OFFCURVE",
"435 385 CURVE SMOOTH",
"435 436 OFFCURVE",
"389 464 OFFCURVE",
"333 464 CURVE SMOOTH",
"229 464 OFFCURVE",
"110 380 OFFCURVE",
"110 206 CURVE SMOOTH",
"110 96 OFFCURVE",
"208 -11 OFFCURVE",
"361 -10 CURVE SMOOTH"
);
}
);
width = 1311;
},
{
associatedMasterId = "B59D2992-18BA-4B4D-949D-9ECAC08614C3";
guideLines = (
{
angle = 60;
position = "{300, 0}";
},
{
angle = 60;
position = "{267, 0}";
},
{
angle = 60;
position = "{547, 0}";
},
{
angle = 60;
position = "{514, 0}";
}
);
layerId = "7DEE053E-E514-42B1-996A-9B51DB08F710";
name = "Apr 18 20, 20:15";
paths = (
{
closed = 1;
nodes = (
"389 935 LINE",
"284 806 OFFCURVE",
"325 649 OFFCURVE",
"388 583 CURVE SMOOTH",
"422 547 OFFCURVE",
"451 540 OFFCURVE",
"474 561 CURVE SMOOTH",
"496 581 OFFCURVE",
"489 619 OFFCURVE",
"471 638 CURVE SMOOTH",
"441 669 OFFCURVE",
"310 789 OFFCURVE",
"413 929 CURVE"
);
},
{
closed = 1;
nodes = (
"198 263 LINE",
"9 200 OFFCURVE",
"-21 89 OFFCURVE",
"12 27 CURVE SMOOTH",
"37 -19 OFFCURVE",
"117 -39 OFFCURVE",
"205 19 CURVE SMOOTH",
"336 105 OFFCURVE",
"421 230 OFFCURVE",
"662 660 CURVE",
"716 759 OFFCURVE",
"772 868 OFFCURVE",
"701 973 CURVE SMOOTH",
"657 1038 OFFCURVE",
"511 1070 OFFCURVE",
"389 935 CURVE",
"413 929 LINE",
"489 1019 OFFCURVE",
"617 1035 OFFCURVE",
"676 966 CURVE SMOOTH",
"753 876 OFFCURVE",
"686 747 OFFCURVE",
"640 673 CURVE",
"330 130 OFFCURVE",
"294 113 OFFCURVE",
"201 46 CURVE SMOOTH",
"134 -2 OFFCURVE",
"56 0 OFFCURVE",
"36 41 CURVE SMOOTH",
"4 107 OFFCURVE",
"77 206 OFFCURVE",
"208 236 CURVE"
);
},
{
closed = 1;
nodes = (
"622 568 OFFCURVE",
"673 577 OFFCURVE",
"687 544 CURVE",
"668 530 OFFCURVE",
"626 534 OFFCURVE",
"624 551 CURVE SMOOTH"
);
},
{
closed = 1;
nodes = (
"552 38 OFFCURVE",
"594 -18 OFFCURVE",
"650 -18 CURVE SMOOTH",
"690 -18 OFFCURVE",
"748 -4 OFFCURVE",
"794 46 CURVE SMOOTH",
"997 271 LINE",
"977 290 LINE",
"793 85 LINE SMOOTH",
"742 28 OFFCURVE",
"696 2 OFFCURVE",
"655 5 CURVE SMOOTH",
"606 8 OFFCURVE",
"588 48 OFFCURVE",
"603 99 CURVE",
"705 387 LINE SMOOTH",
"719 427 OFFCURVE",
"729 483 OFFCURVE",
"718 524 CURVE",
"812 568 OFFCURVE",
"935 687 OFFCURVE",
"1049 880 CURVE",
"1042 906 LINE",
"1055 927 OFFCURVE",
"1066 940 OFFCURVE",
"1077 953 CURVE SMOOTH",
"1120 1003 OFFCURVE",
"1161 1021 OFFCURVE",
"1214 1021 CURVE SMOOTH",
"1263 1021 OFFCURVE",
"1280 1000 OFFCURVE",
"1279 970 CURVE SMOOTH",
"1278 939 OFFCURVE",
"1238 928 OFFCURVE",
"1208 928 CURVE SMOOTH",
"1123 928 OFFCURVE",
"1098 954 OFFCURVE",
"1049 880 CURVE",
"1042 906 LINE",
"887 660 OFFCURVE",
"772 575 OFFCURVE",
"712 552 CURVE",
"683 615 OFFCURVE",
"579 595 OFFCURVE",
"599 537 CURVE SMOOTH",
"610 504 OFFCURVE",
"666 506 OFFCURVE",
"696 517 CURVE",
"701 490 OFFCURVE",
"706 475 OFFCURVE",
"684 394 CURVE SMOOTH",
"669 338 OFFCURVE",
"590 131 OFFCURVE",
"588 126 CURVE SMOOTH"
);
}
);
width = 874;
},
{
associatedMasterId = "B59D2992-18BA-4B4D-949D-9ECAC08614C3";
guideLines = (
{
angle = 60;
position = "{802, 0}";
},
{
angle = 60;
position = "{769, 0}";
},
{
angle = 60;
position = "{1049, 0}";
},
{
angle = 60;
position = "{1016, 0}";
}
);
layerId = "83ADA473-566C-45A2-AC23-46EF11E2BCF0";
name = "Jun 8 20, 22:33";
paths = (
{
closed = 1;
nodes = (
"720 567 OFFCURVE",
"787 627 OFFCURVE",
"811 685 CURVE SMOOTH",
"829 728 OFFCURVE",
"823 758 OFFCURVE",
"792 772 CURVE SMOOTH",
"768 783 OFFCURVE",
"736 760 OFFCURVE",
"725 736 CURVE SMOOTH",
"707 697 OFFCURVE",
"724 609 OFFCURVE",
"622 594 CURVE",
"635 567 LINE"
);
},
{
closed = 1;
nodes = (
"150 233 OFFCURVE",
"643 403 OFFCURVE",
"814 490 CURVE",
"778 430 LINE SMOOTH",
"717 328 OFFCURVE",
"528 7 OFFCURVE",
"239 7 CURVE SMOOTH",
"183 7 OFFCURVE",
"136 37 OFFCURVE",
"140 92 CURVE SMOOTH"
);
},
{
closed = 1;
nodes = (
"1321 970 OFFCURVE",
"1547 1042 OFFCURVE",
"1601 1042 CURVE SMOOTH",
"1637 1042 OFFCURVE",
"1647 1034 OFFCURVE",
"1647 1010 CURVE SMOOTH",
"1647 932 OFFCURVE",
"1441 786 OFFCURVE",
"1154 670 CURVE"
);
},
{
closed = 1;
nodes = (
"1336 290 LINE",
"1239 183 OFFCURVE",
"1101 20 OFFCURVE",
"1001 20 CURVE SMOOTH",
"945 20 OFFCURVE",
"912 54 OFFCURVE",
"913 92 CURVE SMOOTH",
"916 197 OFFCURVE",
"1023 242 OFFCURVE",
"1030 374 CURVE SMOOTH",
"1036 494 OFFCURVE",
"951 502 OFFCURVE",
"925 502 CURVE SMOOTH",
"893 502 OFFCURVE",
"859 479 OFFCURVE",
"859 446 CURVE SMOOTH",
"859 411 OFFCURVE",
"891 395 OFFCURVE",
"928 398 CURVE SMOOTH",
"1028 406 OFFCURVE",
"1083 500 OFFCURVE",
"1146 637 CURVE",
"1441 765 OFFCURVE",
"1673 897 OFFCURVE",
"1673 1013 CURVE SMOOTH",
"1673 1044 OFFCURVE",
"1654 1067 OFFCURVE",
"1604 1067 CURVE SMOOTH",
"1532 1067 OFFCURVE",
"1291 978 OFFCURVE",
"1120 654 CURVE",
"871 542 LINE",
"1135 1029 OFFCURVE",
"1228 1025 OFFCURVE",
"1135 1046 CURVE SMOOTH",
"1107 1052 OFFCURVE",
"672 1055 OFFCURVE",
"499 826 CURVE SMOOTH",
"425 728 OFFCURVE",
"450 558 OFFCURVE",
"635 567 CURVE",
"622 594 LINE",
"469 594 OFFCURVE",
"465 737 OFFCURVE",
"517 808 CURVE SMOOTH",
"683 1034 OFFCURVE",
"1107 1020 OFFCURVE",
"1119 1019 CURVE SMOOTH",
"1165 1016 OFFCURVE",
"1093 1006 OFFCURVE",
"836 529 CURVE",
"461 346 OFFCURVE",
"126 246 OFFCURVE",
"111 90 CURVE SMOOTH",
"104 19 OFFCURVE",
"170 -21 OFFCURVE",
"234 -21 CURVE SMOOTH",
"547 -21 OFFCURVE",
"754 339 OFFCURVE",
"803 423 CURVE SMOOTH",
"851 505 LINE",
"1107 620 LINE",
"1068 522 OFFCURVE",
"1003 420 OFFCURVE",
"927 420 CURVE SMOOTH",
"916 420 OFFCURVE",
"887 423 OFFCURVE",
"886 446 CURVE SMOOTH",
"885 469 OFFCURVE",
"911 476 OFFCURVE",
"925 476 CURVE SMOOTH",
"964 476 OFFCURVE",
"1012 450 OFFCURVE",
"1005 374 CURVE SMOOTH",
"993 243 OFFCURVE",
"884 221 OFFCURVE",
"884 92 CURVE SMOOTH",
"884 26 OFFCURVE",
"937 -9 OFFCURVE",
"1003 -9 CURVE SMOOTH",
"1119 -9 OFFCURVE",
"1281 192 OFFCURVE",
"1356 270 CURVE"
);
}
);
width = 1233;
},
{
associatedMasterId = "B59D2992-18BA-4B4D-949D-9ECAC08614C3";
guideLines = (
{
angle = 60;
position = "{1214, 0}";
},
{
angle = 60;
position = "{1181, 0}";
},
{
angle = 60;
position = "{1461, 0}";
},
{
angle = 60;
position = "{1428, 0}";
}
);
layerId = "5EE4D00F-22B0-486E-8C40-9FC946B5EFC5";
name = "Jun 17 20, 00:37";
paths = (
{
closed = 1;
nodes = (
"720 567 OFFCURVE",
"787 627 OFFCURVE",
"811 685 CURVE SMOOTH",
"829 728 OFFCURVE",
"823 758 OFFCURVE",
"792 772 CURVE SMOOTH",
"768 783 OFFCURVE",
"736 760 OFFCURVE",
"725 736 CURVE SMOOTH",
"707 697 OFFCURVE",
"724 609 OFFCURVE",
"622 594 CURVE",
"635 567 LINE"
);
},
{
closed = 1;
nodes = (
"150 233 OFFCURVE",
"643 403 OFFCURVE",
"814 490 CURVE",
"778 430 LINE SMOOTH",
"717 328 OFFCURVE",
"528 7 OFFCURVE",
"239 7 CURVE SMOOTH",
"183 7 OFFCURVE",
"136 37 OFFCURVE",
"140 92 CURVE SMOOTH"
);
},
{
closed = 1;
nodes = (
"1326 953 OFFCURVE",
"1547 1042 OFFCURVE",
"1601 1042 CURVE SMOOTH",
"1635 1042 OFFCURVE",
"1646 1034 OFFCURVE",
"1646 1010 CURVE SMOOTH",
"1646 932 OFFCURVE",
"1443 787 OFFCURVE",
"1156 671 CURVE"
);
},
{
closed = 1;
nodes = (
"104 19 OFFCURVE",
"170 -21 OFFCURVE",
"234 -21 CURVE SMOOTH",
"547 -21 OFFCURVE",
"754 339 OFFCURVE",
"803 423 CURVE SMOOTH",
"851 505 LINE",
"1107 620 LINE",
"1082 556 OFFCURVE",
"1045 482 OFFCURVE",
"1001 427 CURVE",
"982 442 OFFCURVE",
"963 444 OFFCURVE",
"944 444 CURVE SMOOTH",
"894 444 OFFCURVE",
"844 403 OFFCURVE",
"844 374 CURVE SMOOTH",
"844 353 OFFCURVE",
"866 339 OFFCURVE",
"894 339 CURVE SMOOTH",
"933 339 OFFCURVE",
"973 359 OFFCURVE",
"1000 388 CURVE",
"1005 388 OFFCURVE",
"1018 374 OFFCURVE",
"1018 354 CURVE SMOOTH",
"1018 237 OFFCURVE",
"884 221 OFFCURVE",
"884 92 CURVE SMOOTH",
"884 26 OFFCURVE",
"937 -9 OFFCURVE",
"1003 -9 CURVE SMOOTH",
"1119 -9 OFFCURVE",
"1281 192 OFFCURVE",
"1356 270 CURVE",
"1336 290 LINE",
"1239 183 OFFCURVE",
"1101 19 OFFCURVE",
"1001 19 CURVE SMOOTH",
"945 19 OFFCURVE",
"910 53 OFFCURVE",
"910 91 CURVE SMOOTH",
"911 216 OFFCURVE",
"1042 226 OFFCURVE",
"1042 353 CURVE SMOOTH",
"1042 380 OFFCURVE",
"1029 398 OFFCURVE",
"1020 411 CURVE",
"1068 469 OFFCURVE",
"1107 552 OFFCURVE",
"1146 637 CURVE",
"1441 765 OFFCURVE",
"1673 897 OFFCURVE",
"1673 1013 CURVE SMOOTH",
"1673 1044 OFFCURVE",
"1654 1067 OFFCURVE",
"1604 1067 CURVE SMOOTH",
"1532 1067 OFFCURVE",
"1294 960 OFFCURVE",
"1120 654 CURVE",
"871 542 LINE",
"1135 1029 OFFCURVE",
"1228 1025 OFFCURVE",
"1135 1046 CURVE SMOOTH",
"1107 1052 OFFCURVE",
"672 1055 OFFCURVE",
"499 826 CURVE SMOOTH",
"425 728 OFFCURVE",
"450 558 OFFCURVE",
"635 567 CURVE",
"622 594 LINE",
"469 594 OFFCURVE",
"465 737 OFFCURVE",
"517 808 CURVE SMOOTH",
"683 1034 OFFCURVE",
"1107 1020 OFFCURVE",
"1119 1019 CURVE SMOOTH",
"1165 1016 OFFCURVE",
"1093 1006 OFFCURVE",
"836 529 CURVE",
"461 346 OFFCURVE",
"126 246 OFFCURVE",
"111 90 CURVE SMOOTH"
);
}
);
width = 1233;
}
);
unicode = 004B;
},
{
glyphname = L;
lastChange = "2021-05-01 11:01:59 +0000";
layers = (
{
associatedMasterId = "B59D2992-18BA-4B4D-949D-9ECAC08614C3";
guideLines = (
{
angle = 60;
position = "{-34, 0}";
},
{
angle = 60;
position = "{-67, 0}";
}
);
layerId = "1779C15C-B531-49E7-9226-9C6A5C1737DB";
name = "Apr 18 20, 20:17";
paths = (
{
closed = 1;
nodes = (
"-159 290 OFFCURVE",
"-63 392 OFFCURVE",
"68 402 CURVE SMOOTH",
"176 410 OFFCURVE",
"272 354 OFFCURVE",
"271 261 CURVE",
"231 345 OFFCURVE",
"47 336 OFFCURVE",
"47 200 CURVE SMOOTH",
"47 142 OFFCURVE",
"122 95 OFFCURVE",
"199 127 CURVE SMOOTH",
"247 147 OFFCURVE",
"277 195 OFFCURVE",
"280 210 CURVE",
"297 187 OFFCURVE",
"310 156 OFFCURVE",
"341 114 CURVE",
"283 43 OFFCURVE",
"176 0 OFFCURVE",
"45 2 CURVE SMOOTH",
"-74 4 OFFCURVE",
"-157 89 OFFCURVE",
"-158 173 CURVE SMOOTH"
);
},
{
closed = 1;
nodes = (
"128 108 OFFCURVE",
"68 162 OFFCURVE",
"68 204 CURVE SMOOTH",
"68 303 OFFCURVE",
"212 325 OFFCURVE",
"265 233 CURVE",
"262 211 OFFCURVE",
"235 172 OFFCURVE",
"208 156 CURVE SMOOTH"
);
},
{
closed = 1;
nodes = (
"428 550 OFFCURVE",
"397 572 CURVE SMOOTH",
"374 588 OFFCURVE",
"352 690 OFFCURVE",
"479 714 CURVE",
"487 690 OFFCURVE",
"490 671 OFFCURVE",
"490 650 CURVE SMOOTH",
"490 561 OFFCURVE"
);
},
{
closed = 1;
nodes = (
"815 877 OFFCURVE",
"918 967 OFFCURVE",
"1021 983 CURVE SMOOTH",
"1092 994 OFFCURVE",
"1179 979 OFFCURVE",
"1190 880 CURVE SMOOTH",
"1202 768 OFFCURVE",
"1062 603 OFFCURVE",
"858 629 CURVE SMOOTH",
"827 633 OFFCURVE",
"749 650 OFFCURVE",
"686 681 CURVE"
);
},
{
closed = 1;
nodes = (
"-169 72 OFFCURVE",
"-112 -15 OFFCURVE",
"50 -20 CURVE SMOOTH",
"121 -22 OFFCURVE",
"267 -9 OFFCURVE",
"356 90 CURVE",
"425 10 OFFCURVE",
"487 -6 OFFCURVE",
"533 -11 CURVE SMOOTH",
"660 -25 OFFCURVE",
"787 21 OFFCURVE",
"924 174 CURVE SMOOTH",
"1010 270 LINE",
"990 290 LINE",
"915 207 LINE SMOOTH",
"786 64 OFFCURVE",
"669 3 OFFCURVE",
"552 11 CURVE SMOOTH",
"493 15 OFFCURVE",
"430 37 OFFCURVE",
"374 109 CURVE",
"387 126 OFFCURVE",
"455 241 OFFCURVE",
"464 258 CURVE SMOOTH",
"674 660 LINE",
"742 625 OFFCURVE",
"812 610 OFFCURVE",
"851 605 CURVE SMOOTH",
"1112 572 OFFCURVE",
"1241 785 OFFCURVE",
"1216 900 CURVE SMOOTH",
"1192 1011 OFFCURVE",
"1096 1017 OFFCURVE",
"1032 1011 CURVE SMOOTH",
"887 997 OFFCURVE",
"763 841 OFFCURVE",
"666 693 CURVE",
"644 705 OFFCURVE",
"576 744 OFFCURVE",
"496 742 CURVE",
"451 865 OFFCURVE",
"322 906 OFFCURVE",
"220 828 CURVE SMOOTH",
"144 770 OFFCURVE",
"124 676 OFFCURVE",
"143 618 CURVE SMOOTH",
"158 573 OFFCURVE",
"184 555 OFFCURVE",
"216 565 CURVE SMOOTH",
"242 573 OFFCURVE",
"250 613 OFFCURVE",
"241 638 CURVE SMOOTH",
"200 754 OFFCURVE",
"240 834 OFFCURVE",
"323 844 CURVE SMOOTH",
"387 852 OFFCURVE",
"454 789 OFFCURVE",
"468 737 CURVE",
"345 709 OFFCURVE",
"327 595 OFFCURVE",
"387 551 CURVE SMOOTH",
"419 527 OFFCURVE",
"505 531 OFFCURVE",
"513 642 CURVE SMOOTH",
"515 663 OFFCURVE",
"513 691 OFFCURVE",
"505 719 CURVE",
"584 716 OFFCURVE",
"620 687 OFFCURVE",
"652 670 CURVE",
"504 401 OFFCURVE",
"424 224 OFFCURVE",
"358 128 CURVE",
"323 172 OFFCURVE",
"310 204 OFFCURVE",
"291 236 CURVE",
"310 333 OFFCURVE",
"220 435 OFFCURVE",
"80 427 CURVE SMOOTH",
"-112 416 OFFCURVE",
"-188 259 OFFCURVE",
"-179 172 CURVE SMOOTH"
);
}
);
width = 887;
},
{
associatedMasterId = "B59D2992-18BA-4B4D-949D-9ECAC08614C3";
guideLines = (
{
angle = 60;
position = "{180, -12}";
},
{
angle = 60;
position = "{210, -21}";
}
);
layerId = "1F0FCEC3-81ED-482F-90F8-A2ABDEBBE008";
name = "May 31 20, 16:09";
paths = (
{
closed = 1;
nodes = (
"554 -21 OFFCURVE",
"600 30 OFFCURVE",
"749 197 CURVE SMOOTH",
"815 271 LINE",
"795 291 LINE",
"726 215 LINE SMOOTH",
"608 85 OFFCURVE",
"548 8 OFFCURVE",
"452 7 CURVE SMOOTH",
"402 6 OFFCURVE",
"347 37 OFFCURVE",
"263 71 CURVE",
"319 167 OFFCURVE",
"325 178 OFFCURVE",
"619 687 CURVE SMOOTH",
"684 800 OFFCURVE",
"753 880 OFFCURVE",
"819 927 CURVE SMOOTH",
"878 969 OFFCURVE",
"936 984 OFFCURVE",
"977 985 CURVE SMOOTH",
"1102 988 OFFCURVE",
"1151 925 OFFCURVE",
"1151 834 CURVE SMOOTH",
"1151 738 OFFCURVE",
"1053 716 OFFCURVE",
"1009 719 CURVE SMOOTH",
"983 721 OFFCURVE",
"946 709 OFFCURVE",
"945 677 CURVE SMOOTH",
"944 645 OFFCURVE",
"971 632 OFFCURVE",
"1013 632 CURVE SMOOTH",
"1078 632 OFFCURVE",
"1181 710 OFFCURVE",
"1181 840 CURVE SMOOTH",
"1181 964 OFFCURVE",
"1098 1022 OFFCURVE",
"977 1019 CURVE SMOOTH",
"925 1018 OFFCURVE",
"866 1002 OFFCURVE",
"802 955 CURVE SMOOTH",
"736 908 OFFCURVE",
"665 828 OFFCURVE",
"590 698 CURVE SMOOTH",
"261 129 OFFCURVE",
"249 107 OFFCURVE",
"236 85 CURVE",
"191 105 OFFCURVE",
"149 128 OFFCURVE",
"89 128 CURVE SMOOTH",
"32 128 OFFCURVE",
"-10 91 OFFCURVE",
"-10 55 CURVE SMOOTH",
"-10 12 OFFCURVE",
"45 -22 OFFCURVE",
"111 -22 CURVE SMOOTH",
"181 -22 OFFCURVE",
"218 12 OFFCURVE",
"249 45 CURVE",
"337 8 OFFCURVE",
"386 -21 OFFCURVE",
"449 -21 CURVE SMOOTH"
);
},
{
closed = 1;
nodes = (
"58 8 OFFCURVE",
"17 27 OFFCURVE",
"17 55 CURVE SMOOTH",
"17 74 OFFCURVE",
"37 100 OFFCURVE",
"89 101 CURVE SMOOTH",
"130 102 OFFCURVE",
"181 80 OFFCURVE",
"222 61 CURVE",
"186 19 OFFCURVE",
"157 8 OFFCURVE",
"105 8 CURVE SMOOTH"
);
}
);
width = 691;
},
{
associatedMasterId = "B59D2992-18BA-4B4D-949D-9ECAC08614C3";
guideLines = (
{
angle = 60;
position = "{336, -12}";
},
{
angle = 60;
position = "{366, -21}";
},
{
position = "{424, -11}";
},
{
position = "{428, 17}";
}
);
layerId = "DD7CB54B-CA71-4080-AEDB-82A583757C55";
name = "Jun 16 20, 12:41";
paths = (
{
closed = 1;
nodes = (
"762 -11 OFFCURVE",
"882 32 OFFCURVE",
"1033 197 CURVE SMOOTH",
"1100 270 LINE",
"1080 290 LINE",
"1012 215 LINE SMOOTH",
"875 64 OFFCURVE",
"754 18 OFFCURVE",
"637 17 CURVE SMOOTH",
"551 16 OFFCURVE",
"304 113 OFFCURVE",
"201 111 CURVE SMOOTH",
"152 110 OFFCURVE",
"79 97 OFFCURVE",
"79 52 CURVE SMOOTH",
"79 22 OFFCURVE",
"111 -11 OFFCURVE",
"209 -11 CURVE SMOOTH",
"337 -11 OFFCURVE",
"450 130 OFFCURVE",
"527 257 CURVE SMOOTH",
"540 278 OFFCURVE",
"710 574 OFFCURVE",
"775 687 CURVE SMOOTH",
"858 832 OFFCURVE",
"968 999 OFFCURVE",
"1114 1002 CURVE SMOOTH",
"1239 1005 OFFCURVE",
"1292 933 OFFCURVE",
"1292 859 CURVE SMOOTH",
"1292 730 OFFCURVE",
"1183 738 OFFCURVE",
"1139 741 CURVE SMOOTH",
"1113 743 OFFCURVE",
"1076 730 OFFCURVE",
"1075 698 CURVE SMOOTH",
"1074 666 OFFCURVE",
"1101 643 OFFCURVE",
"1143 643 CURVE SMOOTH",
"1206 643 OFFCURVE",
"1322 700 OFFCURVE",
"1322 860 CURVE SMOOTH",
"1322 972 OFFCURVE",
"1235 1036 OFFCURVE",
"1114 1035 CURVE SMOOTH",
"946 1034 OFFCURVE",
"839 860 OFFCURVE",
"746 698 CURVE SMOOTH",
"671 568 OFFCURVE",
"518 300 OFFCURVE",
"499 269 CURVE SMOOTH",
"426 151 OFFCURVE",
"319 17 OFFCURVE",
"206 17 CURVE SMOOTH",
"135 17 OFFCURVE",
"108 36 OFFCURVE",
"108 52 CURVE SMOOTH",
"108 72 OFFCURVE",
"162 82 OFFCURVE",
"203 83 CURVE SMOOTH",
"300 85 OFFCURVE",
"532 -11 OFFCURVE",
"635 -11 CURVE SMOOTH"
);
}
);
width = 977;
},
{
associatedMasterId = "B59D2992-18BA-4B4D-949D-9ECAC08614C3";
guideLines = (
{
angle = 60;
position = "{316, -12}";
},
{
angle = 60;
position = "{346, -21}";
},
{
position = "{404, -21}";
},
{
position = "{408, 7}";
}
);
layerId = "2570C1FF-6D6F-4BAB-93D3-EF3B5AE1F1E4";
name = "Jun 16 20, 12:41";
paths = (
{
closed = 1;
nodes = (
"349 807 OFFCURVE",
"469 594 OFFCURVE",
"675 594 CURVE SMOOTH",
"791 594 OFFCURVE",
"876 631 OFFCURVE",
"999 692 CURVE SMOOTH",
"1122 753 OFFCURVE",
"1222 841 OFFCURVE",
"1222 931 CURVE SMOOTH",
"1222 972 OFFCURVE",
"1204 1005 OFFCURVE",
"1124 1002 CURVE SMOOTH",
"963 996 OFFCURVE",
"814 790 OFFCURVE",
"700 593 CURVE SMOOTH",
"635 480 OFFCURVE",
"494 236 OFFCURVE",
"481 215 CURVE SMOOTH",
"409 102 OFFCURVE",
"273 -21 OFFCURVE",
"145 -21 CURVE SMOOTH",
"78 -21 OFFCURVE",
"26 7 OFFCURVE",
"26 35 CURVE SMOOTH",
"26 76 OFFCURVE",
"112 89 OFFCURVE",
"141 90 CURVE SMOOTH",
"227 93 OFFCURVE",
"522 6 OFFCURVE",
"608 7 CURVE SMOOTH",
"733 8 OFFCURVE",
"815 64 OFFCURVE",
"952 215 CURVE SMOOTH",
"1020 290 LINE",
"1040 270 LINE",
"973 197 LINE SMOOTH",
"822 32 OFFCURVE",
"741 -21 OFFCURVE",
"606 -21 CURVE SMOOTH",
"503 -21 OFFCURVE",
"225 63 OFFCURVE",
"143 59 CURVE SMOOTH",
"122 58 OFFCURVE",
"55 51 OFFCURVE",
"55 35 CURVE SMOOTH",
"55 19 OFFCURVE",
"102 7 OFFCURVE",
"142 7 CURVE SMOOTH",
"255 7 OFFCURVE",
"385 123 OFFCURVE",
"453 227 CURVE SMOOTH",
"472 257 OFFCURVE",
"596 474 OFFCURVE",
"671 604 CURVE SMOOTH",
"795 818 OFFCURVE",
"941 1031 OFFCURVE",
"1124 1033 CURVE SMOOTH",
"1226 1034 OFFCURVE",
"1251 995 OFFCURVE",
"1251 932 CURVE SMOOTH",
"1251 816 OFFCURVE",
"1141 725 OFFCURVE",
"1009 661 CURVE SMOOTH",
"875 597 OFFCURVE",
"779 561 OFFCURVE",
"670 561 CURVE SMOOTH",
"453 561 OFFCURVE",
"295 814 OFFCURVE",
"282 889 CURVE",
"323 890 LINE"
);
}
);
width = 917;
},
{
associatedMasterId = "B59D2992-18BA-4B4D-949D-9ECAC08614C3";
guideLines = (
{
angle = 60;
position = "{386, -12}";
},
{
angle = 60;
position = "{416, -21}";
},
{
position = "{474, -21}";
},
{
position = "{478, 7}";
}
);
layerId = "5DAE8BF1-303C-4147-B0B4-89800F813E91";
name = "Jun 16 20, 12:47";
paths = (
{
closed = 1;
nodes = (
"677 909 OFFCURVE",
"614 840 OFFCURVE",
"608 742 CURVE SMOOTH",
"604 672 OFFCURVE",
"645 574 OFFCURVE",
"815 574 CURVE SMOOTH",
"1042 574 OFFCURVE",
"1332 783 OFFCURVE",
"1332 931 CURVE SMOOTH",
"1332 972 OFFCURVE",
"1294 1005 OFFCURVE",
"1244 1002 CURVE SMOOTH",
"1083 992 OFFCURVE",
"910 767 OFFCURVE",
"733 459 CURVE SMOOTH",
"594 217 OFFCURVE",
"406 -21 OFFCURVE",
"205 -21 CURVE SMOOTH",
"108 -21 OFFCURVE",
"66 27 OFFCURVE",
"66 55 CURVE SMOOTH",
"66 96 OFFCURVE",
"142 138 OFFCURVE",
"221 139 CURVE SMOOTH",
"367 141 OFFCURVE",
"542 6 OFFCURVE",
"708 7 CURVE SMOOTH",
"833 8 OFFCURVE",
"885 64 OFFCURVE",
"1022 215 CURVE SMOOTH",
"1090 290 LINE",
"1110 270 LINE",
"1043 197 LINE SMOOTH",
"892 32 OFFCURVE",
"841 -21 OFFCURVE",
"706 -21 CURVE SMOOTH",
"523 -21 OFFCURVE",
"365 110 OFFCURVE",
"223 108 CURVE SMOOTH",
"152 107 OFFCURVE",
"95 81 OFFCURVE",
"95 55 CURVE SMOOTH",
"95 29 OFFCURVE",
"122 7 OFFCURVE",
"202 7 CURVE SMOOTH",
"396 7 OFFCURVE",
"569 234 OFFCURVE",
"702 469 CURVE SMOOTH",
"880 783 OFFCURVE",
"1061 1030 OFFCURVE",
"1244 1033 CURVE SMOOTH",
"1316 1034 OFFCURVE",
"1361 995 OFFCURVE",
"1361 932 CURVE SMOOTH",
"1361 762 OFFCURVE",
"1073 541 OFFCURVE",
"818 541 CURVE SMOOTH",
"629 541 OFFCURVE",
"577 654 OFFCURVE",
"577 743 CURVE SMOOTH",
"577 841 OFFCURVE",
"655 934 OFFCURVE",
"705 958 CURVE",
"723 920 LINE"
);
}
);
width = 987;
},
{
associatedMasterId = "B59D2992-18BA-4B4D-949D-9ECAC08614C3";
guideLines = (
{
angle = 60;
position = "{386, -12}";
},
{
angle = 60;
position = "{416, -21}";
},
{
position = "{474, -21}";
},
{
position = "{478, 7}";
}
);
layerId = "D86CFF0C-B97E-454E-AB6B-619FF1A6B2B2";
name = "Jun 16 20, 12:54";
paths = (
{
closed = 1;
nodes = (
"619 461 LINE",
"899 531 OFFCURVE",
"1330 783 OFFCURVE",
"1330 931 CURVE SMOOTH",
"1330 972 OFFCURVE",
"1298 1007 OFFCURVE",
"1249 1004 CURVE SMOOTH",
"1090 995 OFFCURVE",
"914 774 OFFCURVE",
"733 459 CURVE SMOOTH",
"594 217 OFFCURVE",
"411 -21 OFFCURVE",
"205 -21 CURVE SMOOTH",
"101 -21 OFFCURVE",
"66 34 OFFCURVE",
"66 71 CURVE SMOOTH",
"66 119 OFFCURVE",
"116 151 OFFCURVE",
"180 152 CURVE SMOOTH",
"351 154 OFFCURVE",
"542 6 OFFCURVE",
"708 7 CURVE SMOOTH",
"833 8 OFFCURVE",
"885 64 OFFCURVE",
"1022 215 CURVE SMOOTH",
"1090 290 LINE",
"1110 270 LINE",
"1043 197 LINE SMOOTH",
"892 32 OFFCURVE",
"841 -21 OFFCURVE",
"706 -21 CURVE SMOOTH",
"523 -21 OFFCURVE",
"346 125 OFFCURVE",
"182 123 CURVE SMOOTH",
"126 122 OFFCURVE",
"95 104 OFFCURVE",
"95 71 CURVE SMOOTH",
"95 45 OFFCURVE",
"122 7 OFFCURVE",
"202 7 CURVE SMOOTH",
"392 7 OFFCURVE",
"569 234 OFFCURVE",
"702 469 CURVE SMOOTH",
"880 783 OFFCURVE",
"1072 1030 OFFCURVE",
"1249 1033 CURVE SMOOTH",
"1318 1034 OFFCURVE",
"1361 994 OFFCURVE",
"1361 932 CURVE SMOOTH",
"1361 762 OFFCURVE",
"930 501 OFFCURVE",
"631 431 CURVE"
);
}
);
width = 987;
},
{
guideLines = (
{
angle = 60;
position = "{499, -12}";
},
{
angle = 60;
position = "{529, -21}";
},
{
position = "{557, -21}";
},
{
position = "{561, 7}";
}
);
layerId = "B59D2992-18BA-4B4D-949D-9ECAC08614C3";
paths = (
{
closed = 1;
nodes = (
"588 91 OFFCURVE",
"724 316 OFFCURVE",
"806 459 CURVE SMOOTH",
"987 774 OFFCURVE",
"1161 994 OFFCURVE",
"1322 1004 CURVE SMOOTH",
"1371 1007 OFFCURVE",
"1403 972 OFFCURVE",
"1403 931 CURVE SMOOTH",
"1403 781 OFFCURVE",
"1174 574 OFFCURVE",
"924 564 CURVE",
"924 531 LINE",
"1193 541 OFFCURVE",
"1434 762 OFFCURVE",
"1434 932 CURVE SMOOTH",
"1434 994 OFFCURVE",
"1391 1034 OFFCURVE",
"1322 1033 CURVE SMOOTH",
"1145 1030 OFFCURVE",
"956 784 OFFCURVE",
"775 469 CURVE SMOOTH",
"691 323 OFFCURVE",
"552 88 OFFCURVE",
"371 51 CURVE",
"432 41 LINE"
);
},
{
closed = 1;
nodes = (
"639 -4 LINE SMOOTH",
"838 -3 OFFCURVE",
"990 49 OFFCURVE",
"1126 197 CURVE SMOOTH",
"1193 270 LINE",
"1173 290 LINE",
"1105 215 LINE SMOOTH",
"973 69 OFFCURVE",
"787 4 OFFCURVE",
"526 51 CURVE SMOOTH",
"195 111 LINE SMOOTH",
"145 120 OFFCURVE",
"110 94 OFFCURVE",
"110 58 CURVE SMOOTH",
"110 23 OFFCURVE",
"137 -7 OFFCURVE",
"179 -7 CURVE SMOOTH"
);
}
);
width = 1070;
},
{
associatedMasterId = "B59D2992-18BA-4B4D-949D-9ECAC08614C3";
guideLines = (
{
angle = 60;
position = "{386, -12}";
},
{
angle = 60;
position = "{416, -21}";
},
{
position = "{474, -21}";
},
{
position = "{478, 7}";
}
);
layerId = "F3C41792-2E21-4CE8-973C-68F5434F1814";
name = "Jun 16 20, 12:55";
paths = (
{
closed = 1;
nodes = (
"643 876 OFFCURVE",
"579 801 OFFCURVE",
"579 711 CURVE SMOOTH",
"579 647 OFFCURVE",
"631 543 OFFCURVE",
"801 543 CURVE SMOOTH",
"1051 543 OFFCURVE",
"1330 783 OFFCURVE",
"1330 931 CURVE SMOOTH",
"1330 972 OFFCURVE",
"1298 1007 OFFCURVE",
"1249 1004 CURVE SMOOTH",
"1090 995 OFFCURVE",
"914 774 OFFCURVE",
"733 459 CURVE SMOOTH",
"594 217 OFFCURVE",
"411 -21 OFFCURVE",
"205 -21 CURVE SMOOTH",
"101 -21 OFFCURVE",
"66 34 OFFCURVE",
"66 71 CURVE SMOOTH",
"66 119 OFFCURVE",
"116 151 OFFCURVE",
"180 152 CURVE SMOOTH",
"351 154 OFFCURVE",
"542 6 OFFCURVE",
"708 7 CURVE SMOOTH",
"833 8 OFFCURVE",
"885 64 OFFCURVE",
"1022 215 CURVE SMOOTH",
"1090 290 LINE",
"1110 270 LINE",
"1043 197 LINE SMOOTH",
"892 32 OFFCURVE",
"841 -21 OFFCURVE",
"706 -21 CURVE SMOOTH",
"523 -21 OFFCURVE",
"346 125 OFFCURVE",
"182 123 CURVE SMOOTH",
"126 122 OFFCURVE",
"95 104 OFFCURVE",
"95 71 CURVE SMOOTH",
"95 45 OFFCURVE",
"122 7 OFFCURVE",
"202 7 CURVE SMOOTH",
"392 7 OFFCURVE",
"569 234 OFFCURVE",
"702 469 CURVE SMOOTH",
"880 783 OFFCURVE",
"1072 1030 OFFCURVE",
"1249 1033 CURVE SMOOTH",
"1318 1034 OFFCURVE",
"1361 994 OFFCURVE",
"1361 932 CURVE SMOOTH",
"1361 762 OFFCURVE",
"1070 511 OFFCURVE",
"801 511 CURVE SMOOTH",
"603 511 OFFCURVE",
"545 631 OFFCURVE",
"545 712 CURVE SMOOTH",
"545 821 OFFCURVE",
"622 901 OFFCURVE",
"685 928 CURVE",
"701 900 LINE"
);
}
);
width = 987;
},
{
associatedMasterId = "B59D2992-18BA-4B4D-949D-9ECAC08614C3";
guideLines = (
{
angle = 60;
position = "{386, -12}";
},
{
angle = 60;
position = "{416, -21}";
},
{
position = "{474, -21}";
},
{
position = "{478, 7}";
}
);
layerId = "A6E114FC-7CAE-477F-83BF-EFD4976609D8";
name = "Jun 16 20, 13:01";
paths = (
{
closed = 1;
nodes = (
"298 51 LINE",
"479 88 OFFCURVE",
"620 323 OFFCURVE",
"702 469 CURVE SMOOTH",
"880 783 OFFCURVE",
"1072 1030 OFFCURVE",
"1249 1033 CURVE SMOOTH",
"1318 1034 OFFCURVE",
"1361 994 OFFCURVE",
"1361 932 CURVE SMOOTH",
"1361 762 OFFCURVE",
"1070 511 OFFCURVE",
"801 511 CURVE SMOOTH",
"603 511 OFFCURVE",
"545 631 OFFCURVE",
"545 712 CURVE SMOOTH",
"545 821 OFFCURVE",
"622 901 OFFCURVE",
"685 928 CURVE",
"701 900 LINE",
"643 876 OFFCURVE",
"579 801 OFFCURVE",
"579 711 CURVE SMOOTH",
"579 647 OFFCURVE",
"631 543 OFFCURVE",
"801 543 CURVE SMOOTH",
"1051 543 OFFCURVE",
"1330 783 OFFCURVE",
"1330 931 CURVE SMOOTH",
"1330 972 OFFCURVE",
"1298 1007 OFFCURVE",
"1249 1004 CURVE SMOOTH",
"1090 995 OFFCURVE",
"914 774 OFFCURVE",
"733 459 CURVE SMOOTH",
"651 316 OFFCURVE",
"515 91 OFFCURVE",
"359 41 CURVE"
);
},
{
closed = 1;
nodes = (
"443 39 LINE SMOOTH",
"705 6 OFFCURVE",
"890 69 OFFCURVE",
"1022 215 CURVE SMOOTH",
"1090 290 LINE",
"1110 270 LINE",
"1043 197 LINE SMOOTH",
"907 49 OFFCURVE",
"742 -3 OFFCURVE",
"556 -4 CURVE SMOOTH",
"126 -7 LINE SMOOTH",
"75 -7 OFFCURVE",
"54 2 OFFCURVE",
"54 37 CURVE SMOOTH",
"54 73 OFFCURVE",
"84 84 OFFCURVE",
"127 79 CURVE SMOOTH"
);
}
);
width = 987;
},
{
associatedMasterId = "B59D2992-18BA-4B4D-949D-9ECAC08614C3";
guideLines = (
{
angle = 60;
position = "{386, -12}";
},
{
angle = 60;
position = "{416, -21}";
},
{
position = "{474, -21}";
},
{
position = "{478, 7}";
}
);
layerId = "4C75A37E-BEB5-42B4-8A2F-8778AC327D28";
name = "Jun 16 20, 13:04";
paths = (
{
closed = 1;
nodes = (
"298 51 LINE",
"479 88 OFFCURVE",
"620 323 OFFCURVE",
"702 469 CURVE SMOOTH",
"880 783 OFFCURVE",
"1072 1030 OFFCURVE",
"1249 1033 CURVE SMOOTH",
"1318 1034 OFFCURVE",
"1361 994 OFFCURVE",
"1361 932 CURVE SMOOTH",
"1361 762 OFFCURVE",
"1120 541 OFFCURVE",
"851 531 CURVE",
"851 563 LINE",
"1101 573 OFFCURVE",
"1330 783 OFFCURVE",
"1330 931 CURVE SMOOTH",
"1330 972 OFFCURVE",
"1298 1007 OFFCURVE",
"1249 1004 CURVE SMOOTH",
"1090 995 OFFCURVE",
"914 774 OFFCURVE",
"733 459 CURVE SMOOTH",
"651 316 OFFCURVE",
"515 91 OFFCURVE",
"359 41 CURVE"
);
},
{
closed = 1;
nodes = (
"443 39 LINE SMOOTH",
"705 6 OFFCURVE",
"890 69 OFFCURVE",
"1022 215 CURVE SMOOTH",
"1090 290 LINE",
"1110 270 LINE",
"1043 197 LINE SMOOTH",
"907 49 OFFCURVE",
"742 -3 OFFCURVE",
"556 -4 CURVE SMOOTH",
"126 -7 LINE SMOOTH",
"75 -7 OFFCURVE",
"54 2 OFFCURVE",
"54 37 CURVE SMOOTH",
"54 73 OFFCURVE",
"84 84 OFFCURVE",
"127 79 CURVE SMOOTH"
);
}
);
width = 987;
}
);
unicode = 004C;
},
{
glyphname = Lslash;
lastChange = "2021-05-01 11:01:59 +0000";
layers = (
{
layerId = "B59D2992-18BA-4B4D-949D-9ECAC08614C3";
paths = (
{
closed = 1;
nodes = (
"588 91 OFFCURVE",
"724 316 OFFCURVE",
"806 459 CURVE SMOOTH",
"987 774 OFFCURVE",
"1161 994 OFFCURVE",
"1322 1004 CURVE SMOOTH",
"1371 1007 OFFCURVE",
"1403 972 OFFCURVE",
"1403 931 CURVE SMOOTH",
"1403 781 OFFCURVE",
"1174 574 OFFCURVE",
"924 564 CURVE",
"924 531 LINE",
"1193 541 OFFCURVE",
"1434 762 OFFCURVE",
"1434 932 CURVE SMOOTH",
"1434 994 OFFCURVE",
"1391 1034 OFFCURVE",
"1322 1033 CURVE SMOOTH",
"1145 1030 OFFCURVE",
"956 784 OFFCURVE",
"775 469 CURVE SMOOTH",
"691 323 OFFCURVE",
"552 88 OFFCURVE",
"371 51 CURVE",
"432 41 LINE"
);
},
{
closed = 1;
nodes = (
"639 -4 LINE SMOOTH",
"838 -3 OFFCURVE",
"990 49 OFFCURVE",
"1126 197 CURVE SMOOTH",
"1193 270 LINE",
"1173 290 LINE",
"1105 215 LINE SMOOTH",
"973 69 OFFCURVE",
"787 4 OFFCURVE",
"526 51 CURVE SMOOTH",
"195 111 LINE SMOOTH",
"145 120 OFFCURVE",
"110 94 OFFCURVE",
"110 58 CURVE SMOOTH",
"110 23 OFFCURVE",
"137 -7 OFFCURVE",
"179 -7 CURVE SMOOTH"
);
},
{
closed = 1;
nodes = (
"895 417 LINE",
"880 455 LINE",
"612 347 LINE",
"626 308 LINE"
);
}
);
width = 1070;
}
);
unicode = 0141;
},
{
glyphname = M;
lastChange = "2021-05-01 11:01:59 +0000";
layers = (
{
guideLines = (
{
angle = 60;
position = "{1506, -9}";
},
{
angle = 60;
position = "{1536, -18}";
},
{
angle = 50;
position = "{870, -43}";
},
{
angle = 50;
position = "{921, -29}";
}
);
layerId = "B59D2992-18BA-4B4D-949D-9ECAC08614C3";
paths = (
{
closed = 1;
nodes = (
"622 -17 OFFCURVE",
"799 185 OFFCURVE",
"982 477 CURVE SMOOTH",
"1244 894 LINE",
"1119 604 OFFCURVE",
"957 249 OFFCURVE",
"917 82 CURVE SMOOTH",
"904 27 OFFCURVE",
"923 0 OFFCURVE",
"945 0 CURVE SMOOTH",
"964 0 OFFCURVE",
"980 19 OFFCURVE",
"1003 51 CURVE SMOOTH",
"1197 322 OFFCURVE",
"1433 638 OFFCURVE",
"1642 894 CURVE",
"1348 343 LINE SMOOTH",
"1200 65 OFFCURVE",
"1218 -9 OFFCURVE",
"1311 -9 CURVE SMOOTH",
"1396 -9 OFFCURVE",
"1490 85 OFFCURVE",
"1588 193 CURVE SMOOTH",
"1658 270 LINE",
"1638 290 LINE",
"1567 211 LINE SMOOTH",
"1482 116 OFFCURVE",
"1388 22 OFFCURVE",
"1311 22 CURVE SMOOTH",
"1229 22 OFFCURVE",
"1273 136 OFFCURVE",
"1384 342 CURVE SMOOTH",
"1744 1012 LINE",
"1713 1028 LINE",
"1412 663 OFFCURVE",
"1175 341 OFFCURVE",
"974 62 CURVE SMOOTH",
"962 46 OFFCURVE",
"954 33 OFFCURVE",
"948 33 CURVE SMOOTH",
"942 33 OFFCURVE",
"938 40 OFFCURVE",
"947 75 CURVE SMOOTH",
"986 227 OFFCURVE",
"1145 602 OFFCURVE",
"1330 1016 CURVE",
"1295 1028 LINE",
"947 476 LINE SMOOTH",
"715 109 OFFCURVE",
"550 18 OFFCURVE",
"396 18 CURVE SMOOTH",
"275 18 OFFCURVE",
"195 115 OFFCURVE",
"195 205 CURVE SMOOTH",
"195 309 OFFCURVE",
"256 344 OFFCURVE",
"309 345 CURVE SMOOTH",
"360 346 OFFCURVE",
"372 321 OFFCURVE",
"415 321 CURVE SMOOTH",
"454 321 OFFCURVE",
"490 347 OFFCURVE",
"490 385 CURVE SMOOTH",
"490 436 OFFCURVE",
"444 464 OFFCURVE",
"388 464 CURVE SMOOTH",
"284 464 OFFCURVE",
"165 380 OFFCURVE",
"165 206 CURVE SMOOTH",
"165 96 OFFCURVE",
"263 -6 OFFCURVE",
"396 -10 CURVE SMOOTH"
);
}
);
width = 1535;
},
{
associatedMasterId = "B59D2992-18BA-4B4D-949D-9ECAC08614C3";
guideLines = (
{
angle = 60;
position = "{-42, 0}";
},
{
angle = 60;
position = "{-78, 0}";
},
{
angle = 60;
position = "{455, 30}";
},
{
angle = 60;
position = "{419, 30}";
}
);
layerId = "251C292C-895E-4F6C-AF49-DBA23FCD7D96";
name = "Apr 18 20, 20:55";
paths = (
{
closed = 1;
nodes = (
"-45 -61 OFFCURVE",
"195 58 OFFCURVE",
"267 301 CURVE SMOOTH",
"275 328 OFFCURVE",
"278 397 OFFCURVE",
"224 397 CURVE SMOOTH",
"174 397 OFFCURVE",
"162 335 OFFCURVE",
"159 317 CURVE SMOOTH",
"153 279 OFFCURVE",
"159 231 OFFCURVE",
"138 172 CURVE SMOOTH",
"100 66 OFFCURVE",
"-47 -8 OFFCURVE",
"-121 56 CURVE SMOOTH",
"-255 172 OFFCURVE",
"-23 559 OFFCURVE",
"132 716 CURVE SMOOTH",
"409 995 OFFCURVE",
"529 1006 OFFCURVE",
"598 985 CURVE SMOOTH",
"647 970 OFFCURVE",
"675 901 OFFCURVE",
"634 783 CURVE SMOOTH",
"622 749 OFFCURVE",
"604 711 OFFCURVE",
"580 669 CURVE SMOOTH",
"261 120 LINE SMOOTH",
"231 69 OFFCURVE",
"196 0 OFFCURVE",
"209 -3 CURVE SMOOTH",
"213 -4 OFFCURVE",
"224 -4 OFFCURVE",
"236 14 CURVE",
"609 650 LINE SMOOTH",
"731 858 OFFCURVE",
"843 989 OFFCURVE",
"935 992 CURVE SMOOTH",
"988 994 OFFCURVE",
"1007 888 OFFCURVE",
"898 722 CURVE",
"544 123 LINE SMOOTH",
"514 72 OFFCURVE",
"479 3 OFFCURVE",
"492 0 CURVE SMOOTH",
"496 -1 OFFCURVE",
"507 -1 OFFCURVE",
"519 17 CURVE",
"922 700 LINE",
"1044 886 OFFCURVE",
"1142 995 OFFCURVE",
"1218 995 CURVE SMOOTH",
"1314 995 OFFCURVE",
"1272 833 OFFCURVE",
"1021 458 CURVE",
"1017 451 OFFCURVE",
"975 382 OFFCURVE",
"895 236 CURVE SMOOTH",
"800 63 OFFCURVE",
"857 -8 OFFCURVE",
"922 -8 CURVE SMOOTH",
"1011 -8 OFFCURVE",
"1121 135 OFFCURVE",
"1189 210 CURVE SMOOTH",
"1243 270 LINE",
"1223 290 LINE",
"1168 228 LINE SMOOTH",
"1116 170 OFFCURVE",
"1010 27 OFFCURVE",
"925 27 CURVE SMOOTH",
"864 27 OFFCURVE",
"860 111 OFFCURVE",
"922 230 CURVE SMOOTH",
"957 297 OFFCURVE",
"1056 452 OFFCURVE",
"1060 458 CURVE SMOOTH",
"1352 897 OFFCURVE",
"1336 1022 OFFCURVE",
"1224 1031 CURVE SMOOTH",
"1158 1036 OFFCURVE",
"1067 947 OFFCURVE",
"997 861 CURVE",
"1026 975 OFFCURVE",
"1000 1023 OFFCURVE",
"941 1028 CURVE SMOOTH",
"862 1034 OFFCURVE",
"762 944 OFFCURVE",
"684 832 CURVE",
"687 858 LINE SMOOTH",
"694 941 OFFCURVE",
"666 1004 OFFCURVE",
"612 1019 CURVE SMOOTH",
"561 1033 OFFCURVE",
"443 1058 OFFCURVE",
"125 746 CURVE SMOOTH",
"-99 527 OFFCURVE",
"-265 159 OFFCURVE",
"-149 43 CURVE SMOOTH"
);
}
);
width = 1120;
},
{
associatedMasterId = "B59D2992-18BA-4B4D-949D-9ECAC08614C3";
guideLines = (
{
angle = 60;
position = "{305, -12}";
},
{
angle = 60;
position = "{335, -21}";
},
{
angle = 60;
position = "{683, -47}";
},
{
angle = 60;
position = "{713, -56}";
}
);
layerId = "AED31B9B-40F8-41D9-8DCE-4018305E361D";
name = "Jun 2 20, 18:30";
paths = (
{
closed = 1;
nodes = (
"1298 1017 LINE",
"1272 974 OFFCURVE",
"1058 600 OFFCURVE",
"908 343 CURVE SMOOTH",
"749 70 OFFCURVE",
"836 -9 OFFCURVE",
"921 -9 CURVE SMOOTH",
"1026 -9 OFFCURVE",
"1137 118 OFFCURVE",
"1205 193 CURVE SMOOTH",
"1275 270 LINE",
"1255 290 LINE",
"1184 211 LINE SMOOTH",
"1129 150 OFFCURVE",
"1018 22 OFFCURVE",
"921 22 CURVE SMOOTH",
"829 22 OFFCURVE",
"826 140 OFFCURVE",
"943 342 CURVE SMOOTH",
"1065 552 OFFCURVE",
"1260 890 OFFCURVE",
"1333 1017 CURVE"
);
},
{
closed = 1;
nodes = (
"540 -4 LINE",
"702 355 OFFCURVE",
"1174 843 OFFCURVE",
"1334 1019 CURVE",
"1298 1019 LINE",
"1114 821 OFFCURVE",
"678 380 OFFCURVE",
"512 -4 CURVE"
);
},
{
closed = 1;
nodes = (
"540 -4 LINE",
"556 171 OFFCURVE",
"693 500 OFFCURVE",
"932 1016 CURVE",
"899 1016 LINE",
"746 669 OFFCURVE",
"523 227 OFFCURVE",
"512 -4 CURVE"
);
},
{
closed = 1;
nodes = (
"-133 18 OFFCURVE",
"-213 115 OFFCURVE",
"-213 205 CURVE SMOOTH",
"-213 309 OFFCURVE",
"-152 344 OFFCURVE",
"-99 345 CURVE SMOOTH",
"-48 346 OFFCURVE",
"-36 321 OFFCURVE",
"7 321 CURVE SMOOTH",
"46 321 OFFCURVE",
"82 347 OFFCURVE",
"82 385 CURVE SMOOTH",
"82 436 OFFCURVE",
"36 464 OFFCURVE",
"-20 464 CURVE SMOOTH",
"-124 464 OFFCURVE",
"-243 380 OFFCURVE",
"-243 206 CURVE SMOOTH",
"-243 96 OFFCURVE",
"-145 -7 OFFCURVE",
"-12 -10 CURVE SMOOTH",
"244 -14 OFFCURVE",
"449 178 OFFCURVE",
"622 477 CURVE SMOOTH",
"757 711 OFFCURVE",
"854 879 OFFCURVE",
"935 1019 CURVE",
"900 1019 LINE",
"587 476 LINE SMOOTH",
"370 99 OFFCURVE",
"132 14 OFFCURVE",
"-12 18 CURVE SMOOTH"
);
}
);
width = 1152;
},
{
associatedMasterId = "B59D2992-18BA-4B4D-949D-9ECAC08614C3";
guideLines = (
{
angle = 60;
position = "{538, -12}";
},
{
angle = 60;
position = "{568, -21}";
},
{
angle = 60;
position = "{1416, -9}";
},
{
angle = 60;
position = "{1446, -18}";
},
{
angle = 50;
position = "{700, -43}";
},
{
angle = 50;
position = "{751, -29}";
}
);
layerId = "D9793EF1-1E5C-4716-83F6-79DE0209D628";
name = "Jun 2 20, 18:43";
paths = (
{
closed = 1;
nodes = (
"1594 1017 LINE",
"1568 974 OFFCURVE",
"1351 600 OFFCURVE",
"1201 343 CURVE SMOOTH",
"1042 70 OFFCURVE",
"1129 -9 OFFCURVE",
"1214 -9 CURVE SMOOTH",
"1319 -9 OFFCURVE",
"1430 118 OFFCURVE",
"1498 193 CURVE SMOOTH",
"1568 270 LINE",
"1548 290 LINE",
"1477 211 LINE SMOOTH",
"1422 150 OFFCURVE",
"1311 22 OFFCURVE",
"1214 22 CURVE SMOOTH",
"1122 22 OFFCURVE",
"1119 140 OFFCURVE",
"1236 342 CURVE SMOOTH",
"1358 552 OFFCURVE",
"1556 890 OFFCURVE",
"1629 1017 CURVE"
);
},
{
closed = 1;
nodes = (
"775 0 LINE",
"1630 1019 LINE",
"1594 1019 LINE",
"736 0 LINE"
);
},
{
closed = 1;
nodes = (
"766 0 LINE",
"782 175 OFFCURVE",
"929 503 OFFCURVE",
"1168 1019 CURVE",
"1137 1019 LINE",
"984 672 OFFCURVE",
"747 231 OFFCURVE",
"736 0 CURVE"
);
},
{
closed = 1;
nodes = (
"100 18 OFFCURVE",
"20 115 OFFCURVE",
"20 205 CURVE SMOOTH",
"20 309 OFFCURVE",
"81 344 OFFCURVE",
"134 345 CURVE SMOOTH",
"185 346 OFFCURVE",
"197 321 OFFCURVE",
"240 321 CURVE SMOOTH",
"279 321 OFFCURVE",
"315 347 OFFCURVE",
"315 385 CURVE SMOOTH",
"315 436 OFFCURVE",
"269 464 OFFCURVE",
"213 464 CURVE SMOOTH",
"109 464 OFFCURVE",
"-10 380 OFFCURVE",
"-10 206 CURVE SMOOTH",
"-10 96 OFFCURVE",
"88 -7 OFFCURVE",
"221 -10 CURVE SMOOTH",
"477 -14 OFFCURVE",
"682 178 OFFCURVE",
"855 477 CURVE SMOOTH",
"990 711 OFFCURVE",
"1087 879 OFFCURVE",
"1168 1019 CURVE",
"1133 1019 LINE",
"820 476 LINE SMOOTH",
"603 99 OFFCURVE",
"365 14 OFFCURVE",
"221 18 CURVE SMOOTH"
);
}
);
width = 1445;
},
{
associatedMasterId = "B59D2992-18BA-4B4D-949D-9ECAC08614C3";
guideLines = (
{
angle = 60;
position = "{628, -12}";
},
{
angle = 60;
position = "{658, -21}";
},
{
angle = 60;
position = "{1506, -9}";
},
{
angle = 60;
position = "{1536, -18}";
},
{
angle = 50;
position = "{790, -43}";
},
{
angle = 50;
position = "{841, -29}";
}
);
layerId = "5D83BB06-96EB-42D7-B842-E847792C2495";
name = "Jun 16 20, 12:10";
paths = (
{
closed = 1;
nodes = (
"1684 1017 LINE",
"1658 974 OFFCURVE",
"1441 600 OFFCURVE",
"1291 343 CURVE SMOOTH",
"1132 70 OFFCURVE",
"1219 -9 OFFCURVE",
"1304 -9 CURVE SMOOTH",
"1409 -9 OFFCURVE",
"1520 118 OFFCURVE",
"1588 193 CURVE SMOOTH",
"1658 270 LINE",
"1638 290 LINE",
"1567 211 LINE SMOOTH",
"1512 150 OFFCURVE",
"1401 22 OFFCURVE",
"1304 22 CURVE SMOOTH",
"1212 22 OFFCURVE",
"1209 140 OFFCURVE",
"1326 342 CURVE SMOOTH",
"1448 552 OFFCURVE",
"1646 890 OFFCURVE",
"1719 1017 CURVE"
);
},
{
closed = 1;
nodes = (
"865 0 LINE",
"1720 1019 LINE",
"1684 1019 LINE",
"826 0 LINE"
);
},
{
closed = 1;
nodes = (
"856 0 LINE",
"872 175 OFFCURVE",
"1019 503 OFFCURVE",
"1258 1019 CURVE",
"1227 1019 LINE",
"1074 672 OFFCURVE",
"837 231 OFFCURVE",
"826 0 CURVE"
);
},
{
closed = 1;
nodes = (
"220 18 OFFCURVE",
"140 115 OFFCURVE",
"140 205 CURVE SMOOTH",
"140 309 OFFCURVE",
"201 344 OFFCURVE",
"254 345 CURVE SMOOTH",
"305 346 OFFCURVE",
"317 321 OFFCURVE",
"360 321 CURVE SMOOTH",
"399 321 OFFCURVE",
"435 347 OFFCURVE",
"435 385 CURVE SMOOTH",
"435 436 OFFCURVE",
"389 464 OFFCURVE",
"333 464 CURVE SMOOTH",
"229 464 OFFCURVE",
"110 380 OFFCURVE",
"110 206 CURVE SMOOTH",
"110 96 OFFCURVE",
"208 -7 OFFCURVE",
"341 -10 CURVE SMOOTH",
"597 -16 OFFCURVE",
"772 178 OFFCURVE",
"945 477 CURVE SMOOTH",
"1080 711 OFFCURVE",
"1177 879 OFFCURVE",
"1258 1019 CURVE",
"1223 1019 LINE",
"910 476 LINE SMOOTH",
"693 99 OFFCURVE",
"485 18 OFFCURVE",
"341 18 CURVE SMOOTH"
);
}
);
width = 1535;
}
);
unicode = 004D;
},
{
glyphname = N;
lastChange = "2021-05-01 11:01:59 +0000";
layers = (
{
associatedMasterId = "B59D2992-18BA-4B4D-949D-9ECAC08614C3";
guideLines = (
{
angle = 60;
position = "{382, 0}";
},
{
angle = 60;
position = "{346, 0}";
},
{
position = "{902, 1019}";
},
{
angle = 60;
position = "{756, 0}";
},
{
angle = 60;
position = "{723, 0}";
}
);
layerId = "DDA6DDF4-B002-46DF-A2E3-3228FE0EDF5A";
name = "Jun 2 20, 18:45";
paths = (
{
closed = 1;
nodes = (
"959 1015 LINE",
"647 475 LINE",
"429 97 OFFCURVE",
"182 15 OFFCURVE",
"31 17 CURVE SMOOTH",
"-100 19 OFFCURVE",
"-180 108 OFFCURVE",
"-180 194 CURVE SMOOTH",
"-180 339 OFFCURVE",
"-60 354 OFFCURVE",
"-11 321 CURVE SMOOTH",
"33 292 OFFCURVE",
"108 306 OFFCURVE",
"118 360 CURVE SMOOTH",
"130 424 OFFCURVE",
"66 447 OFFCURVE",
"27 447 CURVE SMOOTH",
"-88 447 OFFCURVE",
"-211 363 OFFCURVE",
"-210 195 CURVE SMOOTH",
"-209 73 OFFCURVE",
"-100 -10 OFFCURVE",
"31 -11 CURVE SMOOTH",
"294 -13 OFFCURVE",
"507 177 OFFCURVE",
"680 476 CURVE SMOOTH",
"803 688 OFFCURVE",
"924 875 OFFCURVE",
"991 1015 CURVE"
);
},
{
closed = 1;
nodes = (
"744 -1 LINE",
"860 383 OFFCURVE",
"772 520 OFFCURVE",
"991 1015 CURVE",
"959 1015 LINE",
"761 626 OFFCURVE",
"790 195 OFFCURVE",
"708 -1 CURVE"
);
},
{
closed = 1;
nodes = (
"1750 928 LINE",
"1746 851 OFFCURVE",
"1658 848 OFFCURVE",
"1629 815 CURVE SMOOTH",
"1611 795 OFFCURVE",
"1601 769 OFFCURVE",
"1617 746 CURVE SMOOTH",
"1633 723 OFFCURVE",
"1671 723 OFFCURVE",
"1708 750 CURVE SMOOTH",
"1755 784 OFFCURVE",
"1781 864 OFFCURVE",
"1776 938 CURVE"
);
},
{
closed = 1;
nodes = (
"744 -1 LINE",
"1126 661 OFFCURVE",
"1320 1017 OFFCURVE",
"1570 1053 CURVE SMOOTH",
"1681 1069 OFFCURVE",
"1755 1010 OFFCURVE",
"1750 928 CURVE",
"1776 938 LINE",
"1776 1025 OFFCURVE",
"1698 1099 OFFCURVE",
"1569 1081 CURVE SMOOTH",
"1302 1044 OFFCURVE",
"1111 706 OFFCURVE",
"708 -1 CURVE"
);
}
);
width = 922;
},
{
associatedMasterId = "B59D2992-18BA-4B4D-949D-9ECAC08614C3";
guideLines = (
{
angle = 60;
position = "{589, 0}";
},
{
angle = 60;
position = "{553, 0}";
},
{
position = "{1082, 1019}";
},
{
angle = 60;
position = "{936, 0}";
},
{
angle = 60;
position = "{903, 0}";
}
);
layerId = "FA0845AE-8230-420D-B72B-9A19B7D0F2BE";
name = "Jun 2 20, 18:50";
paths = (
{
closed = 1;
nodes = (
"936 0 LINE",
"989 206 OFFCURVE",
"959 525 OFFCURVE",
"1178 1020 CURVE",
"1142 1020 LINE",
"949 580 OFFCURVE",
"951 196 OFFCURVE",
"903 0 CURVE"
);
},
{
closed = 1;
nodes = (
"1940 901 OFFCURVE",
"1918 886 OFFCURVE",
"1908 864 CURVE SMOOTH",
"1899 843 OFFCURVE",
"1903 817 OFFCURVE",
"1924 808 CURVE SMOOTH",
"1950 797 OFFCURVE",
"1966 822 OFFCURVE",
"1971 848 CURVE SMOOTH",
"1976 874 OFFCURVE",
"1965 907 OFFCURVE",
"1956 938 CURVE SMOOTH",
"1928 1035 OFFCURVE",
"1871 1081 OFFCURVE",
"1759 1081 CURVE SMOOTH",
"1492 1081 OFFCURVE",
"1306 707 OFFCURVE",
"903 0 CURVE",
"936 0 LINE",
"1318 662 OFFCURVE",
"1510 1054 OFFCURVE",
"1760 1053 CURVE SMOOTH",
"1863 1053 OFFCURVE",
"1903 1013 OFFCURVE",
"1931 928 CURVE SMOOTH"
);
},
{
closed = 1;
nodes = (
"484 -12 OFFCURVE",
"690 177 OFFCURVE",
"863 476 CURVE SMOOTH",
"986 688 OFFCURVE",
"1097 880 OFFCURVE",
"1178 1020 CURVE",
"1142 1020 LINE",
"827 475 LINE SMOOTH",
"609 97 OFFCURVE",
"372 18 OFFCURVE",
"221 20 CURVE SMOOTH",
"100 20 OFFCURVE",
"21 115 OFFCURVE",
"21 205 CURVE SMOOTH",
"21 309 OFFCURVE",
"81 344 OFFCURVE",
"134 345 CURVE SMOOTH",
"185 345 OFFCURVE",
"197 321 OFFCURVE",
"240 321 CURVE SMOOTH",
"279 321 OFFCURVE",
"315 347 OFFCURVE",
"315 385 CURVE SMOOTH",
"315 436 OFFCURVE",
"269 464 OFFCURVE",
"213 464 CURVE SMOOTH",
"109 464 OFFCURVE",
"-10 380 OFFCURVE",
"-10 206 CURVE SMOOTH",
"-10 96 OFFCURVE",
"88 -7 OFFCURVE",
"221 -10 CURVE SMOOTH"
);
}
);
width = 1102;
},
{
associatedMasterId = "B59D2992-18BA-4B4D-949D-9ECAC08614C3";
guideLines = (
{
angle = 60;
position = "{669, 0}";
},
{
angle = 60;
position = "{633, 0}";
},
{
position = "{1162, 1019}";
},
{
angle = 60;
position = "{1016, 0}";
},
{
angle = 60;
position = "{983, 0}";
}
);
layerId = "BF19BA0F-9EC8-45F8-91D3-60F9D03ECC97";
name = "Jun 16 20, 12:24";
paths = (
{
closed = 1;
nodes = (
"1016 0 LINE",
"1070 210 OFFCURVE",
"1045 525 OFFCURVE",
"1258 1020 CURVE",
"1222 1020 LINE",
"1031 580 OFFCURVE",
"1032 196 OFFCURVE",
"983 0 CURVE"
);
},
{
closed = 1;
nodes = (
"604 -16 OFFCURVE",
"770 177 OFFCURVE",
"957 500 CURVE SMOOTH",
"1066 688 OFFCURVE",
"1177 880 OFFCURVE",
"1258 1020 CURVE",
"1222 1020 LINE",
"921 499 LINE SMOOTH",
"689 97 OFFCURVE",
"492 18 OFFCURVE",
"341 20 CURVE SMOOTH",
"220 22 OFFCURVE",
"141 115 OFFCURVE",
"141 205 CURVE SMOOTH",
"141 309 OFFCURVE",
"201 344 OFFCURVE",
"254 345 CURVE SMOOTH",
"305 346 OFFCURVE",
"317 321 OFFCURVE",
"360 321 CURVE SMOOTH",
"399 321 OFFCURVE",
"435 347 OFFCURVE",
"435 385 CURVE SMOOTH",
"435 436 OFFCURVE",
"389 464 OFFCURVE",
"333 464 CURVE SMOOTH",
"229 464 OFFCURVE",
"110 380 OFFCURVE",
"110 206 CURVE SMOOTH",
"110 96 OFFCURVE",
"208 -7 OFFCURVE",
"341 -10 CURVE SMOOTH"
);
},
{
closed = 1;
nodes = (
"1561 938 OFFCURVE",
"1673 1017 OFFCURVE",
"1811 1017 CURVE SMOOTH",
"1940 1017 OFFCURVE",
"1996 937 OFFCURVE",
"1996 849 CURVE SMOOTH",
"1996 724 OFFCURVE",
"1879 650 OFFCURVE",
"1776 644 CURVE",
"1779 616 LINE",
"1897 616 OFFCURVE",
"2028 705 OFFCURVE",
"2028 851 CURVE SMOOTH",
"2028 952 OFFCURVE",
"1957 1049 OFFCURVE",
"1810 1047 CURVE SMOOTH",
"1659 1045 OFFCURVE",
"1540 965 OFFCURVE",
"1412 743 CURVE SMOOTH",
"983 0 LINE",
"1016 0 LINE",
"1442 733 LINE SMOOTH"
);
}
);
width = 1182;
},
{
associatedMasterId = "B59D2992-18BA-4B4D-949D-9ECAC08614C3";
guideLines = (
{
angle = 60;
position = "{669, 0}";
},
{
angle = 60;
position = "{633, 0}";
},
{
position = "{1162, 1019}";
},
{
angle = 60;
position = "{1016, 0}";
},
{
angle = 60;
position = "{983, 0}";
}
);
layerId = "19710CFA-68ED-4890-8FA7-C47DFBA58549";
name = "Jun 16 20, 12:25";
paths = (
{
closed = 1;
nodes = (
"1016 0 LINE",
"1070 210 OFFCURVE",
"1045 525 OFFCURVE",
"1258 1020 CURVE",
"1222 1020 LINE",
"1031 580 OFFCURVE",
"1032 196 OFFCURVE",
"983 0 CURVE"
);
},
{
closed = 1;
nodes = (
"604 -16 OFFCURVE",
"770 177 OFFCURVE",
"957 500 CURVE SMOOTH",
"1066 688 OFFCURVE",
"1177 880 OFFCURVE",
"1258 1020 CURVE",
"1222 1020 LINE",
"921 499 LINE SMOOTH",
"689 97 OFFCURVE",
"492 18 OFFCURVE",
"341 20 CURVE SMOOTH",
"220 22 OFFCURVE",
"141 115 OFFCURVE",
"141 205 CURVE SMOOTH",
"141 309 OFFCURVE",
"201 344 OFFCURVE",
"254 345 CURVE SMOOTH",
"305 346 OFFCURVE",
"317 321 OFFCURVE",
"360 321 CURVE SMOOTH",
"399 321 OFFCURVE",
"435 347 OFFCURVE",
"435 385 CURVE SMOOTH",
"435 436 OFFCURVE",
"389 464 OFFCURVE",
"333 464 CURVE SMOOTH",
"229 464 OFFCURVE",
"110 380 OFFCURVE",
"110 206 CURVE SMOOTH",
"110 96 OFFCURVE",
"208 -7 OFFCURVE",
"341 -10 CURVE SMOOTH"
);
},
{
closed = 1;
nodes = (
"1563 945 OFFCURVE",
"1685 1017 OFFCURVE",
"1812 1017 CURVE SMOOTH",
"1919 1017 OFFCURVE",
"1963 950 OFFCURVE",
"1963 882 CURVE SMOOTH",
"1963 767 OFFCURVE",
"1847 712 OFFCURVE",
"1756 706 CURVE",
"1759 678 LINE",
"1865 678 OFFCURVE",
"1995 748 OFFCURVE",
"1995 884 CURVE SMOOTH",
"1995 965 OFFCURVE",
"1936 1049 OFFCURVE",
"1811 1047 CURVE SMOOTH",
"1671 1045 OFFCURVE",
"1547 968 OFFCURVE",
"1412 743 CURVE SMOOTH",
"983 0 LINE",
"1016 0 LINE",
"1442 733 LINE SMOOTH"
);
}
);
width = 1182;
},
{
guideLines = (
{
angle = 60;
position = "{659, 0}";
},
{
angle = 60;
position = "{623, 0}";
},
{
position = "{1152, 1019}";
},
{
angle = 60;
position = "{1006, 0}";
},
{
angle = 60;
position = "{973, 0}";
}
);
layerId = "B59D2992-18BA-4B4D-949D-9ECAC08614C3";
paths = (
{
closed = 1;
nodes = (
"594 -16 OFFCURVE",
"760 177 OFFCURVE",
"947 500 CURVE SMOOTH",
"1019 624 OFFCURVE",
"1094 755 OFFCURVE",
"1157 866 CURVE",
"1041 528 OFFCURVE",
"1005 262 OFFCURVE",
"973 1 CURVE",
"1003 -5 LINE",
"1287 486 LINE SMOOTH",
"1499 853 OFFCURVE",
"1695 1051 OFFCURVE",
"1896 1051 CURVE SMOOTH",
"1993 1051 OFFCURVE",
"2044 990 OFFCURVE",
"2039 919 CURVE",
"2065 917 LINE",
"2073 997 OFFCURVE",
"2015 1081 OFFCURVE",
"1896 1081 CURVE SMOOTH",
"1674 1081 OFFCURVE",
"1469 859 OFFCURVE",
"1252 486 CURVE SMOOTH",
"1013 75 LINE",
"1038 279 OFFCURVE",
"1080 574 OFFCURVE",
"1245 1019 CURVE",
"1217 1030 LINE",
"911 499 LINE SMOOTH",
"680 97 OFFCURVE",
"513 19 OFFCURVE",
"332 21 CURVE SMOOTH",
"215 22 OFFCURVE",
"131 115 OFFCURVE",
"131 205 CURVE SMOOTH",
"131 309 OFFCURVE",
"191 344 OFFCURVE",
"244 345 CURVE SMOOTH",
"295 346 OFFCURVE",
"307 321 OFFCURVE",
"350 321 CURVE SMOOTH",
"389 321 OFFCURVE",
"425 347 OFFCURVE",
"425 385 CURVE SMOOTH",
"425 436 OFFCURVE",
"379 464 OFFCURVE",
"323 464 CURVE SMOOTH",
"219 464 OFFCURVE",
"100 380 OFFCURVE",
"100 206 CURVE SMOOTH",
"100 96 OFFCURVE",
"194 -7 OFFCURVE",
"331 -10 CURVE SMOOTH"
);
}
);
width = 1190;
},
{
associatedMasterId = "B59D2992-18BA-4B4D-949D-9ECAC08614C3";
guideLines = (
{
angle = 60;
position = "{669, 0}";
},
{
angle = 60;
position = "{633, 0}";
},
{
position = "{1162, 1019}";
},
{
angle = 60;
position = "{1016, 0}";
},
{
angle = 60;
position = "{983, 0}";
}
);
layerId = "84FAB2FA-0743-4376-86AA-3AF2D25CF4F5";
name = "Jun 16 20, 12:25";
paths = (
{
closed = 1;
nodes = (
"1016 0 LINE",
"1070 210 OFFCURVE",
"1045 525 OFFCURVE",
"1258 1020 CURVE",
"1222 1020 LINE",
"1031 580 OFFCURVE",
"1032 196 OFFCURVE",
"983 0 CURVE"
);
},
{
closed = 1;
nodes = (
"1016 0 LINE",
"1297 486 LINE SMOOTH",
"1507 844 OFFCURVE",
"1657 1051 OFFCURVE",
"1878 1051 CURVE SMOOTH",
"2005 1051 OFFCURVE",
"2057 990 OFFCURVE",
"2080 908 CURVE",
"2108 918 LINE",
"2084 1005 OFFCURVE",
"2027 1081 OFFCURVE",
"1878 1081 CURVE SMOOTH",
"1643 1081 OFFCURVE",
"1477 851 OFFCURVE",
"1261 482 CURVE SMOOTH",
"983 0 LINE"
);
},
{
closed = 1;
nodes = (
"604 -16 OFFCURVE",
"770 177 OFFCURVE",
"957 500 CURVE SMOOTH",
"1066 688 OFFCURVE",
"1177 880 OFFCURVE",
"1258 1020 CURVE",
"1222 1020 LINE",
"921 499 LINE SMOOTH",
"689 97 OFFCURVE",
"492 18 OFFCURVE",
"341 20 CURVE SMOOTH",
"220 22 OFFCURVE",
"141 115 OFFCURVE",
"141 205 CURVE SMOOTH",
"141 309 OFFCURVE",
"201 344 OFFCURVE",
"254 345 CURVE SMOOTH",
"305 346 OFFCURVE",
"317 321 OFFCURVE",
"360 321 CURVE SMOOTH",
"399 321 OFFCURVE",
"435 347 OFFCURVE",
"435 385 CURVE SMOOTH",
"435 436 OFFCURVE",
"389 464 OFFCURVE",
"333 464 CURVE SMOOTH",
"229 464 OFFCURVE",
"110 380 OFFCURVE",
"110 206 CURVE SMOOTH",
"110 96 OFFCURVE",
"208 -7 OFFCURVE",
"341 -10 CURVE SMOOTH"
);
}
);
width = 1182;
},
{
associatedMasterId = "B59D2992-18BA-4B4D-949D-9ECAC08614C3";
guideLines = (
{
angle = 60;
position = "{669, 0}";
},
{
angle = 60;
position = "{633, 0}";
},
{
position = "{1162, 1019}";
},
{
angle = 60;
position = "{1016, 0}";
},
{
angle = 60;
position = "{983, 0}";
}
);
layerId = "28A4067F-998E-403C-99FD-D5E5AF399DCD";
name = "Jun 16 20, 12:33";
paths = (
{
closed = 1;
nodes = (
"110 96 OFFCURVE",
"208 -7 OFFCURVE",
"341 -10 CURVE SMOOTH",
"604 -16 OFFCURVE",
"770 177 OFFCURVE",
"957 500 CURVE SMOOTH",
"1029 624 OFFCURVE",
"1102 754 OFFCURVE",
"1165 865 CURVE",
"1037 483 OFFCURVE",
"1026 171 OFFCURVE",
"983 0 CURVE",
"1016 0 LINE",
"1297 486 LINE SMOOTH",
"1509 853 OFFCURVE",
"1705 1051 OFFCURVE",
"1906 1051 CURVE SMOOTH",
"2013 1051 OFFCURVE",
"2059 984 OFFCURVE",
"2039 902 CURVE",
"2072 902 LINE",
"2093 989 OFFCURVE",
"2035 1081 OFFCURVE",
"1906 1081 CURVE SMOOTH",
"1691 1081 OFFCURVE",
"1479 860 OFFCURVE",
"1261 482 CURVE SMOOTH",
"1034 88 LINE",
"1067 292 OFFCURVE",
"1078 572 OFFCURVE",
"1255 1019 CURVE",
"1227 1030 LINE",
"921 499 LINE SMOOTH",
"690 97 OFFCURVE",
"522 18 OFFCURVE",
"341 20 CURVE SMOOTH",
"220 21 OFFCURVE",
"141 115 OFFCURVE",
"141 205 CURVE SMOOTH",
"141 309 OFFCURVE",
"201 344 OFFCURVE",
"254 345 CURVE SMOOTH",
"305 346 OFFCURVE",
"317 321 OFFCURVE",
"360 321 CURVE SMOOTH",
"399 321 OFFCURVE",
"435 347 OFFCURVE",
"435 385 CURVE SMOOTH",
"435 436 OFFCURVE",
"389 464 OFFCURVE",
"333 464 CURVE SMOOTH",
"229 464 OFFCURVE",
"110 380 OFFCURVE",
"110 206 CURVE SMOOTH"
);
}
);
width = 1200;
}
);
unicode = 004E;
},
{
glyphname = Ntilde;
lastChange = "2021-05-01 11:01:59 +0000";
layers = (
{
layerId = "B59D2992-18BA-4B4D-949D-9ECAC08614C3";
paths = (
{
closed = 1;
nodes = (
"594 -16 OFFCURVE",
"760 177 OFFCURVE",
"947 500 CURVE SMOOTH",
"1019 624 OFFCURVE",
"1094 755 OFFCURVE",
"1157 866 CURVE",
"1041 528 OFFCURVE",
"1005 262 OFFCURVE",
"973 1 CURVE",
"1003 -5 LINE",
"1287 486 LINE SMOOTH",
"1499 853 OFFCURVE",
"1695 1051 OFFCURVE",
"1896 1051 CURVE SMOOTH",
"2003 1051 OFFCURVE",
"2049 984 OFFCURVE",
"2029 902 CURVE",
"2062 902 LINE",
"2083 989 OFFCURVE",
"2025 1081 OFFCURVE",
"1896 1081 CURVE SMOOTH",
"1674 1081 OFFCURVE",
"1469 859 OFFCURVE",
"1252 486 CURVE SMOOTH",
"1013 75 LINE",
"1038 279 OFFCURVE",
"1080 574 OFFCURVE",
"1245 1019 CURVE",
"1217 1030 LINE",
"911 499 LINE SMOOTH",
"680 97 OFFCURVE",
"513 19 OFFCURVE",
"332 21 CURVE SMOOTH",
"215 22 OFFCURVE",
"131 115 OFFCURVE",
"131 205 CURVE SMOOTH",
"131 309 OFFCURVE",
"191 344 OFFCURVE",
"244 345 CURVE SMOOTH",
"295 346 OFFCURVE",
"307 321 OFFCURVE",
"350 321 CURVE SMOOTH",
"389 321 OFFCURVE",
"425 347 OFFCURVE",
"425 385 CURVE SMOOTH",
"425 436 OFFCURVE",
"379 464 OFFCURVE",
"323 464 CURVE SMOOTH",
"219 464 OFFCURVE",
"100 380 OFFCURVE",
"100 206 CURVE SMOOTH",
"100 96 OFFCURVE",
"194 -7 OFFCURVE",
"331 -10 CURVE SMOOTH"
);
},
{
closed = 1;
nodes = (
"1635 1076 OFFCURVE",
"1678 1132 OFFCURVE",
"1703 1161 CURVE",
"1684 1177 LINE",
"1679 1174 OFFCURVE",
"1634 1104 OFFCURVE",
"1584 1104 CURVE SMOOTH",
"1525 1104 OFFCURVE",
"1515 1185 OFFCURVE",
"1441 1185 CURVE SMOOTH",
"1389 1185 OFFCURVE",
"1340 1128 OFFCURVE",
"1326 1109 CURVE",
"1345 1091 LINE",
"1350 1094 OFFCURVE",
"1395 1157 OFFCURVE",
"1442 1157 CURVE SMOOTH",
"1502 1157 OFFCURVE",
"1509 1076 OFFCURVE",
"1583 1076 CURVE SMOOTH"
);
}
);
width = 1190;
}
);
unicode = 00D1;
},
{
glyphname = O;
lastChange = "2021-05-01 11:01:59 +0000";
layers = (
{
layerId = "B59D2992-18BA-4B4D-949D-9ECAC08614C3";
paths = (
{
closed = 1;
nodes = (
"578 -9 OFFCURVE",
"811 243 OFFCURVE",
"811 547 CURVE SMOOTH",
"811 717 OFFCURVE",
"734 827 OFFCURVE",
"624 824 CURVE SMOOTH",
"486 820 OFFCURVE",
"421 668 OFFCURVE",
"421 500 CURVE SMOOTH",
"421 313 OFFCURVE",
"556 162 OFFCURVE",
"700 162 CURVE SMOOTH",
"793 162 OFFCURVE",
"868 196 OFFCURVE",
"949 270 CURVE",
"929 290 LINE",
"857 225 OFFCURVE",
"799 190 OFFCURVE",
"700 190 CURVE SMOOTH",
"580 190 OFFCURVE",
"446 323 OFFCURVE",
"447 500 CURVE SMOOTH",
"448 683 OFFCURVE",
"534 797 OFFCURVE",
"624 797 CURVE SMOOTH",
"716 797 OFFCURVE",
"784 699 OFFCURVE",
"784 547 CURVE SMOOTH",
"784 248 OFFCURVE",
"542 17 OFFCURVE",
"319 19 CURVE SMOOTH",
"191 20 OFFCURVE",
"133 108 OFFCURVE",
"133 239 CURVE SMOOTH",
"133 549 OFFCURVE",
"453 995 OFFCURVE",
"717 992 CURVE SMOOTH",
"804 991 OFFCURVE",
"856 942 OFFCURVE",
"856 863 CURVE SMOOTH",
"856 728 OFFCURVE",
"736 636 OFFCURVE",
"576 667 CURVE SMOOTH",
"535 675 OFFCURVE",
"513 650 OFFCURVE",
"513 622 CURVE SMOOTH",
"513 590 OFFCURVE",
"540 570 OFFCURVE",
"582 569 CURVE SMOOTH",
"713 566 OFFCURVE",
"884 703 OFFCURVE",
"884 863 CURVE SMOOTH",
"884 959 OFFCURVE",
"817 1019 OFFCURVE",
"716 1019 CURVE SMOOTH",
"435 1019 OFFCURVE",
"105 564 OFFCURVE",
"105 245 CURVE SMOOTH",
"105 78 OFFCURVE",
"171 -9 OFFCURVE",
"318 -9 CURVE SMOOTH"
);
}
);
width = 825;
},
{
associatedMasterId = "B59D2992-18BA-4B4D-949D-9ECAC08614C3";
layerId = "2255266B-69FF-43D9-BACE-0FFB26631E4A";
name = "Apr 18 20, 20:57";
paths = (
{
closed = 1;
nodes = (
"266 912 OFFCURVE",
"497 1016 OFFCURVE",
"623 1013 CURVE SMOOTH",
"728 1010 OFFCURVE",
"798 951 OFFCURVE",
"815 867 CURVE",
"826 834 OFFCURVE",
"830 784 OFFCURVE",
"817 708 CURVE SMOOTH",
"794 570 OFFCURVE",
"679 372 OFFCURVE",
"576 246 CURVE",
"619 230 OFFCURVE",
"689 245 OFFCURVE",
"734 290 CURVE",
"754 271 LINE",
"694 208 OFFCURVE",
"608 193 OFFCURVE",
"554 219 CURVE",
"420 62 OFFCURVE",
"289 -19 OFFCURVE",
"163 0 CURVE SMOOTH",
"-33 30 OFFCURVE",
"-40 332 OFFCURVE",
"75 550 CURVE SMOOTH"
);
},
{
closed = 1;
nodes = (
"30 405 OFFCURVE",
"-44 66 OFFCURVE",
"172 30 CURVE SMOOTH",
"297 9 OFFCURVE",
"427 122 OFFCURVE",
"529 237 CURVE",
"486 273 OFFCURVE",
"456 343 OFFCURVE",
"451 427 CURVE SMOOTH",
"438 648 OFFCURVE",
"589 877 OFFCURVE",
"707 918 CURVE SMOOTH",
"721 923 OFFCURVE",
"740 927 OFFCURVE",
"758 923 CURVE",
"729 960 OFFCURVE",
"687 981 OFFCURVE",
"629 983 CURVE SMOOTH",
"471 990 OFFCURVE",
"253 833 OFFCURVE",
"102 543 CURVE SMOOTH"
);
},
{
closed = 1;
nodes = (
"484 354 OFFCURVE",
"511 292 OFFCURVE",
"549 261 CURVE",
"652 389 OFFCURVE",
"757 556 OFFCURVE",
"783 700 CURVE SMOOTH",
"819 901 OFFCURVE",
"739 890 OFFCURVE",
"721 887 CURVE SMOOTH",
"622 872 OFFCURVE",
"465 645 OFFCURVE",
"479 434 CURVE SMOOTH"
);
}
);
width = 631;
},
{
associatedMasterId = "B59D2992-18BA-4B4D-949D-9ECAC08614C3";
layerId = "069A0C74-43C3-403F-BF2E-CC09D4D5C6BA";
name = "Aug 15 20, 11:36";
paths = (
{
closed = 1;
nodes = (
"753 687 OFFCURVE",
"654 606 OFFCURVE",
"599 586 CURVE SMOOTH",
"553 569 OFFCURVE",
"529 574 OFFCURVE",
"513 602 CURVE SMOOTH",
"499 627 OFFCURVE",
"519 661 OFFCURVE",
"544 670 CURVE SMOOTH",
"611 694 OFFCURVE",
"715 705 OFFCURVE",
"726 817 CURVE SMOOTH",
"734 896 OFFCURVE",
"699 1001 OFFCURVE",
"584 1001 CURVE SMOOTH",
"351 1001 OFFCURVE",
"135 603 OFFCURVE",
"140 295 CURVE SMOOTH",
"142 161 OFFCURVE",
"226 17 OFFCURVE",
"380 16 CURVE SMOOTH",
"613 14 OFFCURVE",
"843 359 OFFCURVE",
"843 658 CURVE SMOOTH",
"843 740 OFFCURVE",
"814 914 OFFCURVE",
"691 914 CURVE SMOOTH",
"531 914 OFFCURVE",
"363 732 OFFCURVE",
"361 499 CURVE SMOOTH",
"359 264 OFFCURVE",
"529 181 OFFCURVE",
"651 181 CURVE SMOOTH",
"750 181 OFFCURVE",
"815 225 OFFCURVE",
"887 290 CURVE",
"907 270 LINE",
"829 196 OFFCURVE",
"744 151 OFFCURVE",
"651 153 CURVE SMOOTH",
"497 156 OFFCURVE",
"331 252 OFFCURVE",
"331 495 CURVE SMOOTH",
"331 713 OFFCURVE",
"483 940 OFFCURVE",
"691 941 CURVE SMOOTH",
"834 942 OFFCURVE",
"872 763 OFFCURVE",
"872 663 CURVE SMOOTH",
"872 359 OFFCURVE",
"640 -15 OFFCURVE",
"380 -14 CURVE SMOOTH",
"203 -13 OFFCURVE",
"114 139 OFFCURVE",
"110 290 CURVE SMOOTH",
"101 616 OFFCURVE",
"335 1030 OFFCURVE",
"583 1030 CURVE SMOOTH",
"724 1030 OFFCURVE",
"764 896 OFFCURVE",
"759 804 CURVE SMOOTH"
);
}
);
width = 784;
},
{
associatedMasterId = "B59D2992-18BA-4B4D-949D-9ECAC08614C3";
layerId = "9ABB5862-DE1E-4282-9F30-B092CC6DC1B3";
name = "Aug 24 20, 21:09";
paths = (
{
closed = 1;
nodes = (
"127 -9 OFFCURVE",
"63 85 OFFCURVE",
"63 245 CURVE SMOOTH",
"63 564 OFFCURVE",
"393 1019 OFFCURVE",
"674 1019 CURVE SMOOTH",
"775 1019 OFFCURVE",
"842 959 OFFCURVE",
"842 863 CURVE SMOOTH",
"842 703 OFFCURVE",
"671 566 OFFCURVE",
"540 569 CURVE SMOOTH",
"498 570 OFFCURVE",
"471 590 OFFCURVE",
"471 622 CURVE SMOOTH",
"471 650 OFFCURVE",
"493 675 OFFCURVE",
"534 667 CURVE SMOOTH",
"694 636 OFFCURVE",
"815 728 OFFCURVE",
"815 863 CURVE SMOOTH",
"815 942 OFFCURVE",
"762 992 OFFCURVE",
"675 993 CURVE SMOOTH",
"411 996 OFFCURVE",
"91 554 OFFCURVE",
"91 239 CURVE SMOOTH",
"91 104 OFFCURVE",
"138 20 OFFCURVE",
"270 19 CURVE SMOOTH",
"513 17 OFFCURVE",
"843 378 OFFCURVE",
"843 677 CURVE SMOOTH",
"843 829 OFFCURVE",
"763 917 OFFCURVE",
"655 917 CURVE SMOOTH",
"515 917 OFFCURVE",
"382 765 OFFCURVE",
"391 502 CURVE SMOOTH",
"397 325 OFFCURVE",
"511 190 OFFCURVE",
"671 190 CURVE SMOOTH",
"770 190 OFFCURVE",
"828 225 OFFCURVE",
"900 290 CURVE",
"920 270 LINE",
"839 196 OFFCURVE",
"764 162 OFFCURVE",
"671 162 CURVE SMOOTH",
"487 162 OFFCURVE",
"361 334 OFFCURVE",
"361 498 CURVE SMOOTH",
"361 746 OFFCURVE",
"467 942 OFFCURVE",
"655 944 CURVE SMOOTH",
"778 945 OFFCURVE",
"870 847 OFFCURVE",
"870 677 CURVE SMOOTH",
"870 373 OFFCURVE",
"539 -9 OFFCURVE",
"269 -9 CURVE SMOOTH"
);
}
);
width = 797;
},
{
associatedMasterId = "B59D2992-18BA-4B4D-949D-9ECAC08614C3";
layerId = "6AAB8E80-DCE5-4B2B-A2FB-F0CECF562D4B";
name = "Sep 3 20, 20:44";
paths = (
{
closed = 1;
nodes = (
"142 -9 OFFCURVE",
"63 78 OFFCURVE",
"63 245 CURVE SMOOTH",
"63 564 OFFCURVE",
"393 1019 OFFCURVE",
"674 1019 CURVE SMOOTH",
"775 1019 OFFCURVE",
"842 959 OFFCURVE",
"842 863 CURVE SMOOTH",
"842 703 OFFCURVE",
"671 566 OFFCURVE",
"540 569 CURVE SMOOTH",
"498 570 OFFCURVE",
"471 590 OFFCURVE",
"471 622 CURVE SMOOTH",
"471 650 OFFCURVE",
"493 675 OFFCURVE",
"534 667 CURVE SMOOTH",
"694 636 OFFCURVE",
"814 728 OFFCURVE",
"814 863 CURVE SMOOTH",
"814 942 OFFCURVE",
"762 991 OFFCURVE",
"675 992 CURVE SMOOTH",
"411 995 OFFCURVE",
"91 549 OFFCURVE",
"91 239 CURVE SMOOTH",
"91 108 OFFCURVE",
"162 20 OFFCURVE",
"290 19 CURVE SMOOTH",
"513 17 OFFCURVE",
"747 248 OFFCURVE",
"747 547 CURVE SMOOTH",
"747 699 OFFCURVE",
"687 797 OFFCURVE",
"595 797 CURVE SMOOTH",
"505 797 OFFCURVE",
"422 683 OFFCURVE",
"421 500 CURVE SMOOTH",
"420 323 OFFCURVE",
"551 190 OFFCURVE",
"671 190 CURVE SMOOTH",
"770 190 OFFCURVE",
"828 225 OFFCURVE",
"900 290 CURVE",
"920 270 LINE",
"839 196 OFFCURVE",
"764 162 OFFCURVE",
"671 162 CURVE SMOOTH",
"527 162 OFFCURVE",
"395 313 OFFCURVE",
"395 500 CURVE SMOOTH",
"395 668 OFFCURVE",
"457 820 OFFCURVE",
"595 824 CURVE SMOOTH",
"705 827 OFFCURVE",
"774 717 OFFCURVE",
"774 547 CURVE SMOOTH",
"774 243 OFFCURVE",
"549 -9 OFFCURVE",
"289 -9 CURVE SMOOTH"
);
}
);
width = 797;
}
);
unicode = 004F;
},
{
glyphname = Oacute;
lastChange = "2021-05-01 11:01:59 +0000";
layers = (
{
layerId = "B59D2992-18BA-4B4D-949D-9ECAC08614C3";
paths = (
{
closed = 1;
nodes = (
"536 -9 OFFCURVE",
"769 243 OFFCURVE",
"769 547 CURVE SMOOTH",
"769 717 OFFCURVE",
"692 827 OFFCURVE",
"582 824 CURVE SMOOTH",
"444 820 OFFCURVE",
"379 668 OFFCURVE",
"379 500 CURVE SMOOTH",
"379 313 OFFCURVE",
"514 162 OFFCURVE",
"658 162 CURVE SMOOTH",
"751 162 OFFCURVE",
"826 196 OFFCURVE",
"907 270 CURVE",
"887 290 LINE",
"815 225 OFFCURVE",
"757 190 OFFCURVE",
"658 190 CURVE SMOOTH",
"538 190 OFFCURVE",
"404 323 OFFCURVE",
"405 500 CURVE SMOOTH",
"406 683 OFFCURVE",
"492 797 OFFCURVE",
"582 797 CURVE SMOOTH",
"674 797 OFFCURVE",
"742 699 OFFCURVE",
"742 547 CURVE SMOOTH",
"742 248 OFFCURVE",
"500 17 OFFCURVE",
"277 19 CURVE SMOOTH",
"149 20 OFFCURVE",
"91 108 OFFCURVE",
"91 239 CURVE SMOOTH",
"91 549 OFFCURVE",
"411 995 OFFCURVE",
"675 992 CURVE SMOOTH",
"762 991 OFFCURVE",
"814 942 OFFCURVE",
"814 863 CURVE SMOOTH",
"814 728 OFFCURVE",
"694 636 OFFCURVE",
"534 667 CURVE SMOOTH",
"493 675 OFFCURVE",
"471 650 OFFCURVE",
"471 622 CURVE SMOOTH",
"471 590 OFFCURVE",
"498 570 OFFCURVE",
"540 569 CURVE SMOOTH",
"671 566 OFFCURVE",
"842 703 OFFCURVE",
"842 863 CURVE SMOOTH",
"842 959 OFFCURVE",
"775 1019 OFFCURVE",
"674 1019 CURVE SMOOTH",
"393 1019 OFFCURVE",
"63 564 OFFCURVE",
"63 245 CURVE SMOOTH",
"63 78 OFFCURVE",
"129 -9 OFFCURVE",
"276 -9 CURVE SMOOTH"
);
},
{
closed = 1;
nodes = (
"926 1250 LINE SMOOTH",
"959 1270 OFFCURVE",
"968 1300 OFFCURVE",
"948 1324 CURVE SMOOTH",
"929 1347 OFFCURVE",
"905 1345 OFFCURVE",
"872 1311 CURVE SMOOTH",
"695 1126 LINE",
"707 1113 LINE"
);
}
);
width = 784;
}
);
unicode = 00D3;
},
{
glyphname = Ocircumflex;
lastChange = "2021-05-01 11:01:59 +0000";
layers = (
{
layerId = "B59D2992-18BA-4B4D-949D-9ECAC08614C3";
paths = (
{
closed = 1;
nodes = (
"536 -9 OFFCURVE",
"769 243 OFFCURVE",
"769 547 CURVE SMOOTH",
"769 717 OFFCURVE",
"692 827 OFFCURVE",
"582 824 CURVE SMOOTH",
"444 820 OFFCURVE",
"379 668 OFFCURVE",
"379 500 CURVE SMOOTH",
"379 313 OFFCURVE",
"514 162 OFFCURVE",
"658 162 CURVE SMOOTH",
"751 162 OFFCURVE",
"826 196 OFFCURVE",
"907 270 CURVE",
"887 290 LINE",
"815 225 OFFCURVE",
"757 190 OFFCURVE",
"658 190 CURVE SMOOTH",
"538 190 OFFCURVE",
"404 323 OFFCURVE",
"405 500 CURVE SMOOTH",
"406 683 OFFCURVE",
"492 797 OFFCURVE",
"582 797 CURVE SMOOTH",
"674 797 OFFCURVE",
"742 699 OFFCURVE",
"742 547 CURVE SMOOTH",
"742 248 OFFCURVE",
"500 17 OFFCURVE",
"277 19 CURVE SMOOTH",
"149 20 OFFCURVE",
"91 108 OFFCURVE",
"91 239 CURVE SMOOTH",
"91 549 OFFCURVE",
"411 995 OFFCURVE",
"675 992 CURVE SMOOTH",
"762 991 OFFCURVE",
"814 942 OFFCURVE",
"814 863 CURVE SMOOTH",
"814 728 OFFCURVE",
"694 636 OFFCURVE",
"534 667 CURVE SMOOTH",
"493 675 OFFCURVE",
"471 650 OFFCURVE",
"471 622 CURVE SMOOTH",
"471 590 OFFCURVE",
"498 570 OFFCURVE",
"540 569 CURVE SMOOTH",
"671 566 OFFCURVE",
"842 703 OFFCURVE",
"842 863 CURVE SMOOTH",
"842 959 OFFCURVE",
"775 1019 OFFCURVE",
"674 1019 CURVE SMOOTH",
"393 1019 OFFCURVE",
"63 564 OFFCURVE",
"63 245 CURVE SMOOTH",
"63 78 OFFCURVE",
"129 -9 OFFCURVE",
"276 -9 CURVE SMOOTH"
);
},
{
closed = 1;
nodes = (
"946 1023 LINE",
"909 1247 LINE SMOOTH",
"905 1271 OFFCURVE",
"893 1288 OFFCURVE",
"879 1292 CURVE SMOOTH",
"866 1296 OFFCURVE",
"848 1301 OFFCURVE",
"826 1285 CURVE SMOOTH",
"620 1132 LINE",
"625 1116 LINE",
"840 1206 LINE",
"929 1016 LINE"
);
}
);
width = 784;
}
);
unicode = 00D4;
},
